<?xml version="1.0" encoding="UTF-8" standalone="no"?>
<!-- Created with Inkscape (http://www.inkscape.org/) -->

<svg
   width="500mm"
   height="1000mm"
   viewBox="0 0 500 1000"
   version="1.1"
   id="svg1049"
   inkscape:version="1.3 (0e150ed, 2023-07-21)"
   sodipodi:docname="dunes-backing.svg"
   xmlns:inkscape="http://www.inkscape.org/namespaces/inkscape"
   xmlns:sodipodi="http://sodipodi.sourceforge.net/DTD/sodipodi-0.dtd"
   xmlns="http://www.w3.org/2000/svg"
   xmlns:svg="http://www.w3.org/2000/svg">
  <sodipodi:namedview
     id="namedview1051"
     pagecolor="#ffffff"
     bordercolor="#666666"
     borderopacity="1.0"
     inkscape:pageshadow="2"
     inkscape:pageopacity="0.0"
     inkscape:pagecheckerboard="0"
     inkscape:document-units="mm"
     showgrid="false"
     inkscape:zoom="0.65668661"
     inkscape:cx="1318.7417"
     inkscape:cy="707.33893"
     inkscape:window-width="1312"
     inkscape:window-height="784"
     inkscape:window-x="0"
     inkscape:window-y="25"
     inkscape:window-maximized="0"
     inkscape:current-layer="layer1"
     inkscape:showpageshadow="2"
     inkscape:deskcolor="#d1d1d1" />
  <defs
     id="defs1046">
    <clipPath
       clipPathUnits="userSpaceOnUse"
       id="clipath_lpe_path-effect6329">
      <path
         style="display:none;fill:#3026d4;fill-opacity:1;stroke:#000000;stroke-width:0;stroke-linecap:butt;stroke-linejoin:miter;stroke-miterlimit:4;stroke-dasharray:none;stroke-opacity:1"
         d="M 5.0000001e-7,587.49999 H 150 V 412.5 H 5.0000001e-7 C 90.174172,424.76182 135.40698,440.32776 143.67861,486.58169 150,587.49999 66.223433,570.15332 5.0000001e-7,587.49999 Z"
         id="path6331"
         sodipodi:nodetypes="cccccc" />
      <path
         id="lpe_path-effect6329"
         style="fill:#3026d4;fill-opacity:1;stroke:#000000;stroke-width:0;stroke-linecap:butt;stroke-linejoin:miter;stroke-miterlimit:4;stroke-dasharray:none;stroke-opacity:1"
         class="powerclip"
         d="m -5,407.5 h 160 v 185 H -5 Z M 5.0000001e-7,587.49999 H 150 V 412.5 H 5.0000001e-7 C 90.174172,424.76182 135.40698,440.32776 143.67861,486.58169 150,587.49999 66.223433,570.15332 5.0000001e-7,587.49999 Z" />
    </clipPath>
    <inkscape:path-effect
       effect="powerclip"
       id="path-effect6329"
       is_visible="true"
       lpeversion="1"
       inverse="true"
       flatten="false"
       hide_clip="false"
       message="Use fill-rule evenodd on &lt;b&gt;fill and stroke&lt;/b&gt; dialog if no flatten result after convert clip to paths." />
    <clipPath
       clipPathUnits="userSpaceOnUse"
       id="clipPath6265">
      <path
         style="display:none;fill:#3026d4;fill-opacity:1;stroke:#000000;stroke-width:0;stroke-linecap:butt;stroke-linejoin:miter;stroke-miterlimit:4;stroke-dasharray:none;stroke-opacity:1"
         d="M 5.0000001e-7,587.49999 H 150 V 412.5 H 5.0000001e-7 C 90.174172,424.76182 135.40698,440.32776 143.67861,486.58169 150,587.49999 66.223433,570.15332 5.0000001e-7,587.49999 Z"
         id="path6267"
         sodipodi:nodetypes="cccccc" />
      <path
         id="lpe_path-effect6269"
         style="fill:#3026d4;fill-opacity:1;stroke:#000000;stroke-width:0;stroke-linecap:butt;stroke-linejoin:miter;stroke-miterlimit:4;stroke-dasharray:none;stroke-opacity:1"
         class="powerclip"
         d="m -5,407.5 h 160 v 185 H -5 Z M 5.0000001e-7,587.49999 H 150 V 412.5 H 5.0000001e-7 C 90.174172,424.76182 135.40698,440.32776 143.67861,486.58169 150,587.49999 66.223433,570.15332 5.0000001e-7,587.49999 Z" />
    </clipPath>
    <inkscape:path-effect
       effect="powerclip"
       id="path-effect6269"
       is_visible="true"
       lpeversion="1"
       inverse="true"
       flatten="false"
       hide_clip="false"
       message="Use fill-rule evenodd on &lt;b&gt;fill and stroke&lt;/b&gt; dialog if no flatten result after convert clip to paths." />
    <clipPath
       clipPathUnits="userSpaceOnUse"
       id="clipath_lpe_path-effect2253">
      <path
         style="display:none;fill:#d76569;fill-opacity:1;stroke:#000000;stroke-width:0;stroke-linecap:butt;stroke-linejoin:miter;stroke-miterlimit:4;stroke-dasharray:none;stroke-opacity:1"
         d="m 0,200 c 26.863744,-50.11527 48.588282,-73.40758 98.868238,-93.04819 105.764982,-34.470232 167.767252,3.0371 314.015482,9.32719 53.2085,5.47293 64.8961,41.35727 87.11629,83.721 z"
         id="path2255"
         sodipodi:nodetypes="ccccc" />
      <path
         id="lpe_path-effect2253"
         style="fill:#d76569;fill-opacity:1;stroke:#000000;stroke-width:0;stroke-linecap:butt;stroke-linejoin:miter;stroke-miterlimit:4;stroke-dasharray:none;stroke-opacity:1"
         class="powerclip"
         d="M -5.0000005,-5.0000005 H 505 V 205 H -5.0000005 Z M 0,200 H 500.00001 C 477.77982,157.63627 466.09222,121.75193 412.88372,116.279 266.63549,109.98891 204.63322,72.481578 98.868238,106.95181 48.588282,126.59242 26.863744,149.88473 0,200 Z" />
    </clipPath>
    <inkscape:path-effect
       effect="powerclip"
       id="path-effect2253"
       is_visible="true"
       lpeversion="1"
       inverse="true"
       flatten="false"
       hide_clip="false"
       message="Use fill-rule evenodd on &lt;b&gt;fill and stroke&lt;/b&gt; dialog if no flatten result after convert clip to paths." />
    <clipPath
       clipPathUnits="userSpaceOnUse"
       id="clipPath2207">
      <path
         style="display:none;fill:#d76569;fill-opacity:1;stroke:#000000;stroke-width:0;stroke-linecap:butt;stroke-linejoin:miter;stroke-miterlimit:4;stroke-dasharray:none;stroke-opacity:1"
         d="m 0,200 c 26.863744,-50.11527 48.588282,-73.40758 98.868238,-93.04819 105.764982,-34.470232 167.767252,3.0371 314.015482,9.32719 53.2085,5.47293 64.8961,41.35727 87.11629,83.721 z"
         id="path2209"
         sodipodi:nodetypes="ccccc" />
      <path
         id="lpe_path-effect2211"
         style="fill:#d76569;fill-opacity:1;stroke:#000000;stroke-width:0;stroke-linecap:butt;stroke-linejoin:miter;stroke-miterlimit:4;stroke-dasharray:none;stroke-opacity:1"
         class="powerclip"
         d="M -5.0000005,-5.0000005 H 505 V 205 H -5.0000005 Z M 0,200 H 500.00001 C 477.77982,157.63627 466.09222,121.75193 412.88372,116.279 266.63549,109.98891 204.63322,72.481578 98.868238,106.95181 48.588282,126.59242 26.863744,149.88473 0,200 Z" />
    </clipPath>
    <inkscape:path-effect
       effect="powerclip"
       id="path-effect2211"
       is_visible="true"
       lpeversion="1"
       inverse="true"
       flatten="false"
       hide_clip="false"
       message="Use fill-rule evenodd on &lt;b&gt;fill and stroke&lt;/b&gt; dialog if no flatten result after convert clip to paths." />
  </defs>
  <g
     inkscape:label="Layer 1"
     inkscape:groupmode="layer"
     id="layer1">
    <rect
       style="fill:#dabb7f;fill-opacity:1;stroke:#333333;stroke-width:0;stroke-linecap:round;stroke-linejoin:round;stroke-miterlimit:4;stroke-dasharray:none;stroke-dashoffset:831.496"
       id="rect846"
       width="500"
       height="1000"
       x="7.1997067e-07"
       y="1.5771484e-06"
       ry="0" />
    <path
       sodipodi:type="star"
       style="fill:#c9a074;fill-opacity:0.2;stroke:#333333;stroke-width:0;stroke-linecap:round;stroke-linejoin:round;stroke-miterlimit:4;stroke-dasharray:none;stroke-dashoffset:831.496"
       id="path7386-4-9-8-8-9"
       inkscape:flatsided="true"
       sodipodi:sides="4"
       sodipodi:cx="2473.8071"
       sodipodi:cy="1591.8411"
       sodipodi:r1="679.75922"
       sodipodi:r2="480.66238"
       sodipodi:arg1="0"
       sodipodi:arg2="0.78539816"
       inkscape:rounded="0.6"
       inkscape:randomized="0.1"
       transform="matrix(0.01869174,-4.4169925e-4,2.3863328e-4,0.01009848,338.45768,370.97196)"
       inkscape:transform-center-x="-0.014848646"
       inkscape:transform-center-y="-0.025687931"
       d="m 3161.884,1554.4773 c 53.0868,570.8165 -77.8089,703.9924 -627.6419,769.0099 -549.8331,65.0175 -673.1939,-104.2071 -711.3456,-695.547 -38.1516,-591.3399 155.5238,-751.46767 709.133,-671.24681 553.6093,80.22091 576.7677,26.96741 629.8545,597.78391 z" />
    <path
       sodipodi:type="star"
       style="fill:#c9a074;fill-opacity:0.2;stroke:#333333;stroke-width:0;stroke-linecap:round;stroke-linejoin:round;stroke-miterlimit:4;stroke-dasharray:none;stroke-dashoffset:831.496"
       id="path7386-4-9-8-8-97"
       inkscape:flatsided="true"
       sodipodi:sides="4"
       sodipodi:cx="2473.8071"
       sodipodi:cy="1591.8411"
       sodipodi:r1="679.75922"
       sodipodi:r2="480.66238"
       sodipodi:arg1="0"
       sodipodi:arg2="0.78539816"
       inkscape:rounded="0.6"
       inkscape:randomized="0.1"
       transform="matrix(0.01858212,-0.00206911,0.00111787,0.01003925,408.72035,639.44774)"
       inkscape:transform-center-x="0.0067099526"
       inkscape:transform-center-y="0.10766468"
       d="m 3161.884,1554.4773 c 53.0868,570.8165 -77.8089,703.9924 -627.6419,769.0099 -549.8331,65.0175 -673.1939,-104.2071 -711.3456,-695.547 -38.1516,-591.3399 155.5238,-751.46767 709.133,-671.24681 553.6093,80.22091 576.7677,26.96741 629.8545,597.78391 z" />
    <path
       sodipodi:type="star"
       style="fill:#c9a074;fill-opacity:0.2;stroke:#333333;stroke-width:0;stroke-linecap:round;stroke-linejoin:round;stroke-miterlimit:4;stroke-dasharray:none;stroke-dashoffset:831.496"
       id="path7386-4-9-8-8-0"
       inkscape:flatsided="true"
       sodipodi:sides="4"
       sodipodi:cx="2473.8071"
       sodipodi:cy="1591.8411"
       sodipodi:r1="679.75922"
       sodipodi:r2="480.66238"
       sodipodi:arg1="0"
       sodipodi:arg2="0.78539816"
       inkscape:rounded="0.6"
       inkscape:randomized="0.1"
       transform="matrix(0.01771556,0.00597789,-0.00322964,0.00957108,371.74109,604.0066)"
       inkscape:transform-center-x="-0.11875767"
       inkscape:transform-center-y="-0.41313903"
       d="m 3161.884,1554.4773 c 53.0868,570.8165 -77.8089,703.9924 -627.6419,769.0099 -549.8331,65.0175 -673.1939,-104.2071 -711.3456,-695.547 -38.1516,-591.3399 155.5238,-751.46767 709.133,-671.24681 553.6093,80.22091 576.7677,26.96741 629.8545,597.78391 z" />
    <path
       sodipodi:type="star"
       style="fill:#c9a074;fill-opacity:0.2;stroke:#333333;stroke-width:0;stroke-linecap:round;stroke-linejoin:round;stroke-miterlimit:4;stroke-dasharray:none;stroke-dashoffset:831.496"
       id="path7386-4-9-8-8-39"
       inkscape:flatsided="true"
       sodipodi:sides="4"
       sodipodi:cx="2473.8071"
       sodipodi:cy="1591.8411"
       sodipodi:r1="679.75922"
       sodipodi:r2="480.66238"
       sodipodi:arg1="0"
       sodipodi:arg2="0.78539816"
       inkscape:rounded="0.6"
       inkscape:randomized="0.1"
       transform="matrix(0.01858212,-0.00206911,0.00111787,0.01003925,20.312013,809.04566)"
       inkscape:transform-center-x="0.0067089526"
       inkscape:transform-center-y="0.10766468"
       d="m 3161.884,1554.4773 c 53.0868,570.8165 -77.8089,703.9924 -627.6419,769.0099 -549.8331,65.0175 -673.1939,-104.2071 -711.3456,-695.547 -38.1516,-591.3399 155.5238,-751.46767 709.133,-671.24681 553.6093,80.22091 576.7677,26.96741 629.8545,597.78391 z" />
    <path
       sodipodi:type="star"
       style="fill:#c9a074;fill-opacity:0.2;stroke:#333333;stroke-width:0;stroke-linecap:round;stroke-linejoin:round;stroke-miterlimit:4;stroke-dasharray:none;stroke-dashoffset:831.496"
       id="path7386-4-9-8-8-8"
       inkscape:flatsided="true"
       sodipodi:sides="4"
       sodipodi:cx="2473.8071"
       sodipodi:cy="1591.8411"
       sodipodi:r1="679.75922"
       sodipodi:r2="480.66238"
       sodipodi:arg1="0"
       sodipodi:arg2="0.78539816"
       inkscape:rounded="0.6"
       inkscape:randomized="0.1"
       transform="matrix(0.01816915,0.00441113,-0.00238318,0.00981615,294.60282,814.41528)"
       inkscape:transform-center-x="-0.07153119"
       inkscape:transform-center-y="-0.41963496"
       d="m 3161.884,1554.4773 c 53.0868,570.8165 -77.8089,703.9924 -627.6419,769.0099 -549.8331,65.0175 -673.1939,-104.2071 -711.3456,-695.547 -38.1516,-591.3399 155.5238,-751.46767 709.133,-671.24681 553.6093,80.22091 576.7677,26.96741 629.8545,597.78391 z" />
    <path
       sodipodi:type="star"
       style="fill:#c9a074;fill-opacity:0.2;stroke:#333333;stroke-width:0;stroke-linecap:round;stroke-linejoin:round;stroke-miterlimit:4;stroke-dasharray:none;stroke-dashoffset:831.496"
       id="path7386-4-9-8-8-6"
       inkscape:flatsided="true"
       sodipodi:sides="4"
       sodipodi:cx="2473.8071"
       sodipodi:cy="1591.8411"
       sodipodi:r1="679.75922"
       sodipodi:r2="480.66238"
       sodipodi:arg1="0"
       sodipodi:arg2="0.78539816"
       inkscape:rounded="0.6"
       inkscape:randomized="0.1"
       transform="matrix(0.01741342,-0.00680801,0.00367813,0.00940785,309.84283,819.96963)"
       inkscape:transform-center-x="0.092692457"
       inkscape:transform-center-y="-0.088590715"
       d="m 3161.884,1554.4773 c 53.0868,570.8165 -77.8089,703.9924 -627.6419,769.0099 -549.8331,65.0175 -673.1939,-104.2071 -711.3456,-695.547 -38.1516,-591.3399 155.5238,-751.46767 709.133,-671.24681 553.6093,80.22091 576.7677,26.96741 629.8545,597.78391 z" />
    <path
       sodipodi:type="star"
       style="fill:#c9a074;fill-opacity:0.2;stroke:#333333;stroke-width:0;stroke-linecap:round;stroke-linejoin:round;stroke-miterlimit:4;stroke-dasharray:none;stroke-dashoffset:831.496"
       id="path7386-4-9-8-8-5"
       inkscape:flatsided="true"
       sodipodi:sides="4"
       sodipodi:cx="2473.8071"
       sodipodi:cy="1591.8411"
       sodipodi:r1="679.75922"
       sodipodi:r2="480.66238"
       sodipodi:arg1="0"
       sodipodi:arg2="0.78539816"
       inkscape:rounded="0.6"
       inkscape:randomized="0.1"
       transform="matrix(0.01741342,-0.00680801,0.00367813,0.00940785,330.95371,159.91911)"
       inkscape:transform-center-x="0.092692457"
       inkscape:transform-center-y="-0.088590715"
       d="m 3161.884,1554.4773 c 53.0868,570.8165 -77.8089,703.9924 -627.6419,769.0099 -549.8331,65.0175 -673.1939,-104.2071 -711.3456,-695.547 -38.1516,-591.3399 155.5238,-751.46767 709.133,-671.24681 553.6093,80.22091 576.7677,26.96741 629.8545,597.78391 z" />
    <path
       sodipodi:type="star"
       style="fill:#d3ac72;fill-opacity:0.35;stroke:#333333;stroke-width:0;stroke-linecap:round;stroke-linejoin:round;stroke-miterlimit:4;stroke-dasharray:none;stroke-dashoffset:831.496"
       id="path7386"
       inkscape:flatsided="true"
       sodipodi:sides="4"
       sodipodi:cx="2473.8071"
       sodipodi:cy="1591.8411"
       sodipodi:r1="679.75922"
       sodipodi:r2="480.66238"
       sodipodi:arg1="0"
       sodipodi:arg2="0.78539816"
       inkscape:rounded="0.6"
       inkscape:randomized="0.1"
       transform="matrix(0.18457092,0,0,0.09971732,-210.5973,536.52288)"
       inkscape:transform-center-x="4.6653914e-06"
       inkscape:transform-center-y="-8.4186144e-06"
       d="m 3161.884,1554.4773 c 53.0868,570.8165 -77.8089,703.9924 -627.6419,769.0099 -549.8331,65.0175 -673.1939,-104.2071 -711.3456,-695.547 -38.1516,-591.3399 155.5238,-751.46767 709.133,-671.24681 553.6093,80.22091 576.7677,26.96741 629.8545,597.78391 z" />
    <path
       sodipodi:type="star"
       style="fill:#d3ac72;fill-opacity:0.35;stroke:#333333;stroke-width:0;stroke-linecap:round;stroke-linejoin:round;stroke-miterlimit:4;stroke-dasharray:none;stroke-dashoffset:831.496"
       id="path7386-4"
       inkscape:flatsided="true"
       sodipodi:sides="4"
       sodipodi:cx="2473.8071"
       sodipodi:cy="1591.8411"
       sodipodi:r1="679.75922"
       sodipodi:r2="480.66238"
       sodipodi:arg1="0"
       sodipodi:arg2="0.78539816"
       inkscape:rounded="0.6"
       inkscape:randomized="0.1"
       transform="matrix(0.18457092,0,0,0.09971732,-210.5973,137.00488)"
       inkscape:transform-center-x="4.6653914e-06"
       inkscape:transform-center-y="-8.6718623e-06"
       d="m 3161.884,1554.4773 c 53.0868,570.8165 -77.8089,703.9924 -627.6419,769.0099 -549.8331,65.0175 -673.1939,-104.2071 -711.3456,-695.547 -38.1516,-591.3399 155.5238,-751.46767 709.133,-671.24681 553.6093,80.22091 576.7677,26.96741 629.8545,597.78391 z" />
    <path
       sodipodi:type="star"
       style="fill:#d8b67b;fill-opacity:1;stroke:#d8b67b;stroke-width:0;stroke-linecap:round;stroke-linejoin:round;stroke-miterlimit:4;stroke-dasharray:none;stroke-dashoffset:831.496;stroke-opacity:1"
       id="path2318"
       inkscape:flatsided="true"
       sodipodi:sides="4"
       sodipodi:cx="1037.0259"
       sodipodi:cy="679.80408"
       sodipodi:r1="296.60248"
       sodipodi:r2="209.72963"
       sodipodi:arg1="0"
       sodipodi:arg2="0.78539816"
       inkscape:rounded="0.6"
       inkscape:randomized="0.1"
       transform="matrix(0.27670025,0,0,0.27670025,-40.29551,308.9539)"
       inkscape:transform-center-x="-1.6751011"
       inkscape:transform-center-y="2.142438"
       d="m 1338.2545,702.87817 c -0.2219,246.67001 -61.2983,287.04879 -312.5575,297.53933 -251.2592,10.4906 -279.56354,-57.19502 -261.14218,-315.83712 18.42135,-258.64209 14.2314,-310.60133 262.02748,-292.04193 247.7961,18.55941 311.8941,63.66971 311.6722,310.33972 z" />
    <path
       sodipodi:type="star"
       style="fill:#c89966;fill-opacity:1;stroke:#333333;stroke-width:0;stroke-linecap:round;stroke-linejoin:round;stroke-miterlimit:4;stroke-dasharray:none;stroke-dashoffset:831.496"
       id="path7386-4-9"
       inkscape:flatsided="true"
       sodipodi:sides="4"
       sodipodi:cx="2473.8071"
       sodipodi:cy="1591.8411"
       sodipodi:r1="679.75922"
       sodipodi:r2="480.66238"
       sodipodi:arg1="0"
       sodipodi:arg2="0.78539816"
       inkscape:rounded="0.6"
       inkscape:randomized="0.1"
       transform="matrix(0.01869695,0,0,0.0101013,172.85587,424.73313)"
       inkscape:transform-center-x="-2.8696534e-05"
       inkscape:transform-center-y="-1.4984467e-06"
       d="m 3161.884,1554.4773 c 53.0868,570.8165 -77.8089,703.9924 -627.6419,769.0099 -549.8331,65.0175 -673.1939,-104.2071 -711.3456,-695.547 -38.1516,-591.3399 155.5238,-751.46767 709.133,-671.24681 553.6093,80.22091 576.7677,26.96741 629.8545,597.78391 z" />
    <path
       sodipodi:type="star"
       style="fill:#c9a074;fill-opacity:1;stroke:#333333;stroke-width:0;stroke-linecap:round;stroke-linejoin:round;stroke-miterlimit:4;stroke-dasharray:none;stroke-dashoffset:831.496"
       id="path7386-4-9-8"
       inkscape:flatsided="true"
       sodipodi:sides="4"
       sodipodi:cx="2473.8071"
       sodipodi:cy="1591.8411"
       sodipodi:r1="679.75922"
       sodipodi:r2="480.66238"
       sodipodi:arg1="0"
       sodipodi:arg2="0.78539816"
       inkscape:rounded="0.6"
       inkscape:randomized="0.1"
       transform="matrix(-0.01857318,0.0021478,-0.00116038,-0.01003442,279.13915,436.23725)"
       inkscape:transform-center-x="-0.0078876545"
       inkscape:transform-center-y="-0.10482008"
       d="m 3161.884,1554.4773 c 53.0868,570.8165 -77.8089,703.9924 -627.6419,769.0099 -549.8331,65.0175 -673.1939,-104.2071 -711.3456,-695.547 -38.1516,-591.3399 155.5238,-751.46767 709.133,-671.24681 553.6093,80.22091 576.7677,26.96741 629.8545,597.78391 z" />
    <path
       sodipodi:type="star"
       style="fill:#c9a074;fill-opacity:0.2;stroke:#333333;stroke-width:0;stroke-linecap:round;stroke-linejoin:round;stroke-miterlimit:4;stroke-dasharray:none;stroke-dashoffset:831.496"
       id="path7386-4-9-8-8"
       inkscape:flatsided="true"
       sodipodi:sides="4"
       sodipodi:cx="2473.8071"
       sodipodi:cy="1591.8411"
       sodipodi:r1="679.75922"
       sodipodi:r2="480.66238"
       sodipodi:arg1="0"
       sodipodi:arg2="0.78539816"
       inkscape:rounded="0.6"
       inkscape:randomized="0.1"
       transform="matrix(0.01865911,0.00118907,-6.4241532e-4,0.01008085,43.920288,173.56388)"
       inkscape:transform-center-x="-0.031939018"
       inkscape:transform-center-y="-0.29531028"
       d="m 3161.884,1554.4773 c 53.0868,570.8165 -77.8089,703.9924 -627.6419,769.0099 -549.8331,65.0175 -673.1939,-104.2071 -711.3456,-695.547 -38.1516,-591.3399 155.5238,-751.46767 709.133,-671.24681 553.6093,80.22091 576.7677,26.96741 629.8545,597.78391 z" />
    <path
       sodipodi:type="star"
       style="fill:#c9a074;fill-opacity:0.2;stroke:#333333;stroke-width:0;stroke-linecap:round;stroke-linejoin:round;stroke-miterlimit:4;stroke-dasharray:none;stroke-dashoffset:831.496"
       id="path7386-4-9-8-8-3"
       inkscape:flatsided="true"
       sodipodi:sides="4"
       sodipodi:cx="2473.8071"
       sodipodi:cy="1591.8411"
       sodipodi:r1="679.75922"
       sodipodi:r2="480.66238"
       sodipodi:arg1="0"
       sodipodi:arg2="0.78539816"
       inkscape:rounded="0.6"
       inkscape:randomized="0.1"
       transform="matrix(0.01833107,-0.00368078,0.00198859,0.00990362,4.7471129,204.85789)"
       inkscape:transform-center-x="0.032297066"
       inkscape:transform-center-y="0.038561865"
       d="m 3161.884,1554.4773 c 53.0868,570.8165 -77.8089,703.9924 -627.6419,769.0099 -549.8331,65.0175 -673.1939,-104.2071 -711.3456,-695.547 -38.1516,-591.3399 155.5238,-751.46767 709.133,-671.24681 553.6093,80.22091 576.7677,26.96741 629.8545,597.78391 z" />
    <path
       sodipodi:type="star"
       style="fill:#c9a074;fill-opacity:1;stroke:#333333;stroke-width:0;stroke-linecap:round;stroke-linejoin:round;stroke-miterlimit:4;stroke-dasharray:none;stroke-dashoffset:831.496"
       id="path7386-4-9-8-7"
       inkscape:flatsided="true"
       sodipodi:sides="4"
       sodipodi:cx="2473.8071"
       sodipodi:cy="1591.8411"
       sodipodi:r1="679.75922"
       sodipodi:r2="480.66238"
       sodipodi:arg1="0"
       sodipodi:arg2="0.78539816"
       inkscape:rounded="0.6"
       inkscape:randomized="0.1"
       transform="matrix(-0.01869695,0,0,-0.0101013,295.4339,456.43938)"
       inkscape:transform-center-x="2.9125332e-05"
       inkscape:transform-center-y="4.5165667e-06"
       d="m 3161.884,1554.4773 c 53.0868,570.8165 -77.8089,703.9924 -627.6419,769.0099 -549.8331,65.0175 -673.1939,-104.2071 -711.3456,-695.547 -38.1516,-591.3399 155.5238,-751.46767 709.133,-671.24681 553.6093,80.22091 576.7677,26.96741 629.8545,597.78391 z" />
    <path
       sodipodi:type="star"
       style="fill:#c9a074;fill-opacity:1;stroke:#333333;stroke-width:0;stroke-linecap:round;stroke-linejoin:round;stroke-miterlimit:4;stroke-dasharray:none;stroke-dashoffset:831.496"
       id="path7386-4-9-8-7-3"
       inkscape:flatsided="true"
       sodipodi:sides="4"
       sodipodi:cx="2473.8071"
       sodipodi:cy="1591.8411"
       sodipodi:r1="679.75922"
       sodipodi:r2="480.66238"
       sodipodi:arg1="0"
       sodipodi:arg2="0.78539816"
       inkscape:rounded="0.6"
       inkscape:randomized="0.1"
       transform="matrix(0.00347262,-0.01837165,0.00992555,0.00187614,219.34645,504.88468)"
       inkscape:transform-center-x="0.15738719"
       inkscape:transform-center-y="-0.0040955857"
       d="m 3161.884,1554.4773 c 53.0868,570.8165 -77.8089,703.9924 -627.6419,769.0099 -549.8331,65.0175 -673.1939,-104.2071 -711.3456,-695.547 -38.1516,-591.3399 155.5238,-751.46767 709.133,-671.24681 553.6093,80.22091 576.7677,26.96741 629.8545,597.78391 z" />
    <path
       sodipodi:type="star"
       style="fill:#c9a074;fill-opacity:1;stroke:#333333;stroke-width:0;stroke-linecap:round;stroke-linejoin:round;stroke-miterlimit:4;stroke-dasharray:none;stroke-dashoffset:831.496"
       id="path7386-4-9-8-7-2"
       inkscape:flatsided="true"
       sodipodi:sides="4"
       sodipodi:cx="2473.8071"
       sodipodi:cy="1591.8411"
       sodipodi:r1="679.75922"
       sodipodi:r2="480.66238"
       sodipodi:arg1="0"
       sodipodi:arg2="0.78539816"
       inkscape:rounded="0.6"
       inkscape:randomized="0.1"
       transform="matrix(-0.01725563,0.0071986,-0.00388915,-0.0093226,241.08232,443.38773)"
       inkscape:transform-center-x="-0.03989521"
       inkscape:transform-center-y="-0.000451456"
       d="m 3161.884,1554.4773 c 53.0868,570.8165 -77.8089,703.9924 -627.6419,769.0099 -549.8331,65.0175 -673.1939,-104.2071 -711.3456,-695.547 -38.1516,-591.3399 155.5238,-751.46767 709.133,-671.24681 553.6093,80.22091 576.7677,26.96741 629.8545,597.78391 z" />
    <path
       sodipodi:type="star"
       style="fill:#c89966;fill-opacity:1;stroke:#333333;stroke-width:0;stroke-linecap:round;stroke-linejoin:round;stroke-miterlimit:4;stroke-dasharray:none;stroke-dashoffset:831.496"
       id="path7386-4-9-8-7-7"
       inkscape:flatsided="true"
       sodipodi:sides="4"
       sodipodi:cx="2473.8071"
       sodipodi:cy="1591.8411"
       sodipodi:r1="679.75922"
       sodipodi:r2="480.66238"
       sodipodi:arg1="0"
       sodipodi:arg2="0.78539816"
       inkscape:rounded="0.6"
       inkscape:randomized="0.1"
       transform="matrix(-0.00198581,-0.0185912,0.01004415,-0.00107286,258.3294,487.43333)"
       inkscape:transform-center-x="-0.10765411"
       inkscape:transform-center-y="0.0071613415"
       d="m 3161.884,1554.4773 c 53.0868,570.8165 -77.8089,703.9924 -627.6419,769.0099 -549.8331,65.0175 -673.1939,-104.2071 -711.3456,-695.547 -38.1516,-591.3399 155.5238,-751.46767 709.133,-671.24681 553.6093,80.22091 576.7677,26.96741 629.8545,597.78391 z" />
    <path
       sodipodi:type="star"
       style="fill:#c89966;fill-opacity:1;stroke:#333333;stroke-width:0;stroke-linecap:round;stroke-linejoin:round;stroke-miterlimit:4;stroke-dasharray:none;stroke-dashoffset:831.496"
       id="path7386-4-9-8-7-0"
       inkscape:flatsided="true"
       sodipodi:sides="4"
       sodipodi:cx="2473.8071"
       sodipodi:cy="1591.8411"
       sodipodi:r1="679.75922"
       sodipodi:r2="480.66238"
       sodipodi:arg1="0"
       sodipodi:arg2="0.78539816"
       inkscape:rounded="0.6"
       inkscape:randomized="0.1"
       transform="matrix(-0.01596925,0.00972415,-0.00525362,-0.00862762,305.61237,410.28101)"
       inkscape:transform-center-x="-0.062182938"
       inkscape:transform-center-y="0.037785969"
       d="m 3161.884,1554.4773 c 53.0868,570.8165 -77.8089,703.9924 -627.6419,769.0099 -549.8331,65.0175 -673.1939,-104.2071 -711.3456,-695.547 -38.1516,-591.3399 155.5238,-751.46767 709.133,-671.24681 553.6093,80.22091 576.7677,26.96741 629.8545,597.78391 z" />
    <path
       sodipodi:type="star"
       style="fill:#c89966;fill-opacity:1;stroke:#333333;stroke-width:0;stroke-linecap:round;stroke-linejoin:round;stroke-miterlimit:4;stroke-dasharray:none;stroke-dashoffset:831.496"
       id="path7386-4-9-4"
       inkscape:flatsided="true"
       sodipodi:sides="4"
       sodipodi:cx="2473.8071"
       sodipodi:cy="1591.8411"
       sodipodi:r1="679.75922"
       sodipodi:r2="480.66238"
       sodipodi:arg1="0"
       sodipodi:arg2="0.78539816"
       inkscape:rounded="0.6"
       inkscape:randomized="0.1"
       transform="matrix(0.00118963,-0.01865905,0.01008085,6.427149e-4,185.91531,553.64043)"
       inkscape:transform-center-x="0.096807175"
       inkscape:transform-center-y="-0.0027498532"
       d="m 3161.884,1554.4773 c 53.0868,570.8165 -77.8089,703.9924 -627.6419,769.0099 -549.8331,65.0175 -673.1939,-104.2071 -711.3456,-695.547 -38.1516,-591.3399 155.5238,-751.46767 709.133,-671.24681 553.6093,80.22091 576.7677,26.96741 629.8545,597.78391 z" />
    <path
       sodipodi:type="star"
       style="fill:#c9a074;fill-opacity:1;stroke:#333333;stroke-width:0;stroke-linecap:round;stroke-linejoin:round;stroke-miterlimit:4;stroke-dasharray:none;stroke-dashoffset:831.496"
       id="path7386-4-9-8-2"
       inkscape:flatsided="true"
       sodipodi:sides="4"
       sodipodi:cx="2473.8071"
       sodipodi:cy="1591.8411"
       sodipodi:r1="679.75922"
       sodipodi:r2="480.66238"
       sodipodi:arg1="0"
       sodipodi:arg2="0.78539816"
       inkscape:rounded="0.6"
       inkscape:randomized="0.1"
       transform="matrix(9.6168792e-4,0.0186722,-0.01008795,5.195632e-4,204.15862,448.30446)"
       inkscape:transform-center-x="0.082162337"
       inkscape:transform-center-y="-0.003074873"
       d="m 3161.884,1554.4773 c 53.0868,570.8165 -77.8089,703.9924 -627.6419,769.0099 -549.8331,65.0175 -673.1939,-104.2071 -711.3456,-695.547 -38.1516,-591.3399 155.5238,-751.46767 709.133,-671.24681 553.6093,80.22091 576.7677,26.96741 629.8545,597.78391 z" />
    <path
       sodipodi:type="star"
       style="fill:#c9a074;fill-opacity:1;stroke:#333333;stroke-width:0;stroke-linecap:round;stroke-linejoin:round;stroke-miterlimit:4;stroke-dasharray:none;stroke-dashoffset:831.496"
       id="path7386-4-9-8-7-5"
       inkscape:flatsided="true"
       sodipodi:sides="4"
       sodipodi:cx="2473.8071"
       sodipodi:cy="1591.8411"
       sodipodi:r1="679.75922"
       sodipodi:r2="480.66238"
       sodipodi:arg1="0"
       sodipodi:arg2="0.78539816"
       inkscape:rounded="0.6"
       inkscape:randomized="0.1"
       transform="matrix(-0.00118963,0.01865905,-0.01008085,-6.427149e-4,225.3566,433.32816)"
       inkscape:transform-center-x="-0.096807411"
       inkscape:transform-center-y="0.0027521339"
       d="m 3161.884,1554.4773 c 53.0868,570.8165 -77.8089,703.9924 -627.6419,769.0099 -549.8331,65.0175 -673.1939,-104.2071 -711.3456,-695.547 -38.1516,-591.3399 155.5238,-751.46767 709.133,-671.24681 553.6093,80.22091 576.7677,26.96741 629.8545,597.78391 z" />
    <path
       sodipodi:type="star"
       style="fill:#c9a074;fill-opacity:1;stroke:#333333;stroke-width:0;stroke-linecap:round;stroke-linejoin:round;stroke-miterlimit:4;stroke-dasharray:none;stroke-dashoffset:831.496"
       id="path7386-4-9-8-7-5-1"
       inkscape:flatsided="true"
       sodipodi:sides="4"
       sodipodi:cx="2473.8071"
       sodipodi:cy="1591.8411"
       sodipodi:r1="679.75922"
       sodipodi:r2="480.66238"
       sodipodi:arg1="0"
       sodipodi:arg2="0.78539816"
       inkscape:rounded="0.6"
       inkscape:randomized="0.1"
       transform="matrix(-0.00828385,0.01676168,-0.00905575,-0.00447545,261.11815,431.17575)"
       inkscape:transform-center-x="-0.14842377"
       inkscape:transform-center-y="0.056866779"
       d="m 3161.884,1554.4773 c 53.0868,570.8165 -77.8089,703.9924 -627.6419,769.0099 -549.8331,65.0175 -673.1939,-104.2071 -711.3456,-695.547 -38.1516,-591.3399 155.5238,-751.46767 709.133,-671.24681 553.6093,80.22091 576.7677,26.96741 629.8545,597.78391 z" />
    <path
       sodipodi:type="star"
       style="fill:#c89966;fill-opacity:1;stroke:#333333;stroke-width:0;stroke-linecap:round;stroke-linejoin:round;stroke-miterlimit:4;stroke-dasharray:none;stroke-dashoffset:831.496"
       id="path7386-4-9-6"
       inkscape:flatsided="true"
       sodipodi:sides="4"
       sodipodi:cx="2473.8071"
       sodipodi:cy="1591.8411"
       sodipodi:r1="679.75922"
       sodipodi:r2="480.66238"
       sodipodi:arg1="0"
       sodipodi:arg2="0.78539816"
       inkscape:rounded="0.6"
       inkscape:randomized="0.1"
       transform="matrix(0.01869695,0,0,0.0101013,222.61055,539.80726)"
       inkscape:transform-center-x="-2.8696534e-05"
       inkscape:transform-center-y="-1.4984467e-06"
       d="m 3161.884,1554.4773 c 53.0868,570.8165 -77.8089,703.9924 -627.6419,769.0099 -549.8331,65.0175 -673.1939,-104.2071 -711.3456,-695.547 -38.1516,-591.3399 155.5238,-751.46767 709.133,-671.24681 553.6093,80.22091 576.7677,26.96741 629.8545,597.78391 z" />
    <path
       sodipodi:type="star"
       style="fill:#c9a074;fill-opacity:1;stroke:#333333;stroke-width:0;stroke-linecap:round;stroke-linejoin:round;stroke-miterlimit:4;stroke-dasharray:none;stroke-dashoffset:831.496"
       id="path7386-4-9-8-3"
       inkscape:flatsided="true"
       sodipodi:sides="4"
       sodipodi:cx="2473.8071"
       sodipodi:cy="1591.8411"
       sodipodi:r1="679.75922"
       sodipodi:r2="480.66238"
       sodipodi:arg1="0"
       sodipodi:arg2="0.78539816"
       inkscape:rounded="0.6"
       inkscape:randomized="0.1"
       transform="matrix(-0.01857318,0.0021478,-0.00116038,-0.01003442,328.89385,551.31138)"
       inkscape:transform-center-x="-0.0078876545"
       inkscape:transform-center-y="-0.10482008"
       d="m 3161.884,1554.4773 c 53.0868,570.8165 -77.8089,703.9924 -627.6419,769.0099 -549.8331,65.0175 -673.1939,-104.2071 -711.3456,-695.547 -38.1516,-591.3399 155.5238,-751.46767 709.133,-671.24681 553.6093,80.22091 576.7677,26.96741 629.8545,597.78391 z" />
    <path
       sodipodi:type="star"
       style="fill:#c9a074;fill-opacity:1;stroke:#333333;stroke-width:0;stroke-linecap:round;stroke-linejoin:round;stroke-miterlimit:4;stroke-dasharray:none;stroke-dashoffset:831.496"
       id="path7386-4-9-8-3-7"
       inkscape:flatsided="true"
       sodipodi:sides="4"
       sodipodi:cx="2473.8071"
       sodipodi:cy="1591.8411"
       sodipodi:r1="679.75922"
       sodipodi:r2="480.66238"
       sodipodi:arg1="0"
       sodipodi:arg2="0.78539816"
       inkscape:rounded="0.6"
       inkscape:randomized="0.1"
       transform="matrix(0.01867712,8.6090028e-4,-4.6511238e-4,0.01009058,245.86409,424.13119)"
       inkscape:transform-center-x="-0.028844136"
       inkscape:transform-center-y="-0.24852638"
       d="m 3161.884,1554.4773 c 53.0868,570.8165 -77.8089,703.9924 -627.6419,769.0099 -549.8331,65.0175 -673.1939,-104.2071 -711.3456,-695.547 -38.1516,-591.3399 155.5238,-751.46767 709.133,-671.24681 553.6093,80.22091 576.7677,26.96741 629.8545,597.78391 z" />
    <path
       sodipodi:type="star"
       style="fill:#c9a074;fill-opacity:1;stroke:#333333;stroke-width:0;stroke-linecap:round;stroke-linejoin:round;stroke-miterlimit:4;stroke-dasharray:none;stroke-dashoffset:831.496"
       id="path7386-4-9-8-7-6"
       inkscape:flatsided="true"
       sodipodi:sides="4"
       sodipodi:cx="2473.8071"
       sodipodi:cy="1591.8411"
       sodipodi:r1="679.75922"
       sodipodi:r2="480.66238"
       sodipodi:arg1="0"
       sodipodi:arg2="0.78539816"
       inkscape:rounded="0.6"
       inkscape:randomized="0.1"
       transform="matrix(-0.01869695,0,0,-0.0101013,345.1886,571.5135)"
       inkscape:transform-center-x="2.9125332e-05"
       inkscape:transform-center-y="4.5165667e-06"
       d="m 3161.884,1554.4773 c 53.0868,570.8165 -77.8089,703.9924 -627.6419,769.0099 -549.8331,65.0175 -673.1939,-104.2071 -711.3456,-695.547 -38.1516,-591.3399 155.5238,-751.46767 709.133,-671.24681 553.6093,80.22091 576.7677,26.96741 629.8545,597.78391 z" />
    <path
       sodipodi:type="star"
       style="fill:#c89966;fill-opacity:1;stroke:#333333;stroke-width:0;stroke-linecap:round;stroke-linejoin:round;stroke-miterlimit:4;stroke-dasharray:none;stroke-dashoffset:831.496"
       id="path7386-4-9-8-7-3-6"
       inkscape:flatsided="true"
       sodipodi:sides="4"
       sodipodi:cx="2473.8071"
       sodipodi:cy="1591.8411"
       sodipodi:r1="679.75922"
       sodipodi:r2="480.66238"
       sodipodi:arg1="0"
       sodipodi:arg2="0.78539816"
       inkscape:rounded="0.6"
       inkscape:randomized="0.1"
       transform="matrix(0.00347262,-0.01837165,0.00992555,0.00187614,279.87937,619.9588)"
       inkscape:transform-center-x="0.15738719"
       inkscape:transform-center-y="-0.0040955857"
       d="m 3161.884,1554.4773 c 53.0868,570.8165 -77.8089,703.9924 -627.6419,769.0099 -549.8331,65.0175 -673.1939,-104.2071 -711.3456,-695.547 -38.1516,-591.3399 155.5238,-751.46767 709.133,-671.24681 553.6093,80.22091 576.7677,26.96741 629.8545,597.78391 z" />
    <path
       sodipodi:type="star"
       style="fill:#c89966;fill-opacity:1;stroke:#333333;stroke-width:0;stroke-linecap:round;stroke-linejoin:round;stroke-miterlimit:4;stroke-dasharray:none;stroke-dashoffset:831.496"
       id="path7386-4-9-8-7-7-5"
       inkscape:flatsided="true"
       sodipodi:sides="4"
       sodipodi:cx="2473.8071"
       sodipodi:cy="1591.8411"
       sodipodi:r1="679.75922"
       sodipodi:r2="480.66238"
       sodipodi:arg1="0"
       sodipodi:arg2="0.78539816"
       inkscape:rounded="0.6"
       inkscape:randomized="0.1"
       transform="matrix(-0.00198581,-0.0185912,0.01004415,-0.00107286,308.0841,602.50746)"
       inkscape:transform-center-x="-0.10765411"
       inkscape:transform-center-y="0.0071613415"
       d="m 3161.884,1554.4773 c 53.0868,570.8165 -77.8089,703.9924 -627.6419,769.0099 -549.8331,65.0175 -673.1939,-104.2071 -711.3456,-695.547 -38.1516,-591.3399 155.5238,-751.46767 709.133,-671.24681 553.6093,80.22091 576.7677,26.96741 629.8545,597.78391 z" />
    <path
       sodipodi:type="star"
       style="fill:#c89966;fill-opacity:1;stroke:#333333;stroke-width:0;stroke-linecap:round;stroke-linejoin:round;stroke-miterlimit:4;stroke-dasharray:none;stroke-dashoffset:831.496"
       id="path7386-4-9-8-7-0-0"
       inkscape:flatsided="true"
       sodipodi:sides="4"
       sodipodi:cx="2473.8071"
       sodipodi:cy="1591.8411"
       sodipodi:r1="679.75922"
       sodipodi:r2="480.66238"
       sodipodi:arg1="0"
       sodipodi:arg2="0.78539816"
       inkscape:rounded="0.6"
       inkscape:randomized="0.1"
       transform="matrix(-0.01596925,0.00972415,-0.00525362,-0.00862762,355.36707,525.3551)"
       inkscape:transform-center-x="-0.062182938"
       inkscape:transform-center-y="0.037785969"
       d="m 3161.884,1554.4773 c 53.0868,570.8165 -77.8089,703.9924 -627.6419,769.0099 -549.8331,65.0175 -673.1939,-104.2071 -711.3456,-695.547 -38.1516,-591.3399 155.5238,-751.46767 709.133,-671.24681 553.6093,80.22091 576.7677,26.96741 629.8545,597.78391 z" />
    <path
       sodipodi:type="star"
       style="fill:#c89966;fill-opacity:1;stroke:#333333;stroke-width:0;stroke-linecap:round;stroke-linejoin:round;stroke-miterlimit:4;stroke-dasharray:none;stroke-dashoffset:831.496"
       id="path7386-4-9-8-7-0-0-2"
       inkscape:flatsided="true"
       sodipodi:sides="4"
       sodipodi:cx="2473.8071"
       sodipodi:cy="1591.8411"
       sodipodi:r1="679.75922"
       sodipodi:r2="480.66238"
       sodipodi:arg1="0"
       sodipodi:arg2="0.78539816"
       inkscape:rounded="0.6"
       inkscape:randomized="0.1"
       transform="matrix(-0.01596925,0.00972415,-0.00525362,-0.00862762,274.8231,537.94481)"
       inkscape:transform-center-x="-0.062182938"
       inkscape:transform-center-y="0.037785969"
       d="m 3161.884,1554.4773 c 53.0868,570.8165 -77.8089,703.9924 -627.6419,769.0099 -549.8331,65.0175 -673.1939,-104.2071 -711.3456,-695.547 -38.1516,-591.3399 155.5238,-751.46767 709.133,-671.24681 553.6093,80.22091 576.7677,26.96741 629.8545,597.78391 z" />
    <path
       sodipodi:type="star"
       style="fill:#c9a074;fill-opacity:1;stroke:#333333;stroke-width:0;stroke-linecap:round;stroke-linejoin:round;stroke-miterlimit:4;stroke-dasharray:none;stroke-dashoffset:831.496"
       id="path7386-4-9-8-7-5-1-7"
       inkscape:flatsided="true"
       sodipodi:sides="4"
       sodipodi:cx="2473.8071"
       sodipodi:cy="1591.8411"
       sodipodi:r1="679.75922"
       sodipodi:r2="480.66238"
       sodipodi:arg1="0"
       sodipodi:arg2="0.78539816"
       inkscape:rounded="0.6"
       inkscape:randomized="0.1"
       transform="matrix(-0.01867945,8.0907405e-4,-4.3712777e-4,-0.01009185,331.47945,585.72863)"
       inkscape:transform-center-x="-0.0024892946"
       inkscape:transform-center-y="-0.069995973"
       d="m 3161.884,1554.4773 c 53.0868,570.8165 -77.8089,703.9924 -627.6419,769.0099 -549.8331,65.0175 -673.1939,-104.2071 -711.3456,-695.547 -38.1516,-591.3399 155.5238,-751.46767 709.133,-671.24681 553.6093,80.22091 576.7677,26.96741 629.8545,597.78391 z" />
    <path
       sodipodi:type="star"
       style="fill:#c9a074;fill-opacity:1;stroke:#aeaeae;stroke-width:0;stroke-linecap:round;stroke-linejoin:round;stroke-miterlimit:4;stroke-dasharray:none;stroke-dashoffset:831.496;stroke-opacity:1"
       id="path7386-4-9-6-9"
       inkscape:flatsided="true"
       sodipodi:sides="4"
       sodipodi:cx="2473.8071"
       sodipodi:cy="1591.8411"
       sodipodi:r1="679.75922"
       sodipodi:r2="480.66238"
       sodipodi:arg1="0"
       sodipodi:arg2="0.78539816"
       inkscape:rounded="0.6"
       inkscape:randomized="0.1"
       transform="matrix(0.01869695,0,0,0.0101013,196.52855,543.65953)"
       inkscape:transform-center-x="-2.8696534e-05"
       inkscape:transform-center-y="-1.4984467e-06"
       d="m 3161.884,1554.4773 c 53.0868,570.8165 -77.8089,703.9924 -627.6419,769.0099 -549.8331,65.0175 -673.1939,-104.2071 -711.3456,-695.547 -38.1516,-591.3399 155.5238,-751.46767 709.133,-671.24681 553.6093,80.22091 576.7677,26.96741 629.8545,597.78391 z" />
    <path
       sodipodi:type="star"
       style="fill:#c89966;fill-opacity:1;stroke:#333333;stroke-width:0;stroke-linecap:round;stroke-linejoin:round;stroke-miterlimit:4;stroke-dasharray:none;stroke-dashoffset:831.496"
       id="path7386-4-9-8-7-5-1-7-4"
       inkscape:flatsided="true"
       sodipodi:sides="4"
       sodipodi:cx="2473.8071"
       sodipodi:cy="1591.8411"
       sodipodi:r1="679.75922"
       sodipodi:r2="480.66238"
       sodipodi:arg1="0"
       sodipodi:arg2="0.78539816"
       inkscape:rounded="0.6"
       inkscape:randomized="0.1"
       transform="matrix(-0.01867945,8.0907405e-4,-4.3712777e-4,-0.01009185,305.39745,589.5809)"
       inkscape:transform-center-x="-0.0024892946"
       inkscape:transform-center-y="-0.069995973"
       d="m 3161.884,1554.4773 c 53.0868,570.8165 -77.8089,703.9924 -627.6419,769.0099 -549.8331,65.0175 -673.1939,-104.2071 -711.3456,-695.547 -38.1516,-591.3399 155.5238,-751.46767 709.133,-671.24681 553.6093,80.22091 576.7677,26.96741 629.8545,597.78391 z" />
    <path
       sodipodi:type="star"
       style="fill:#c89966;fill-opacity:1;stroke:#333333;stroke-width:0;stroke-linecap:round;stroke-linejoin:round;stroke-miterlimit:4;stroke-dasharray:none;stroke-dashoffset:831.496"
       id="path7386-4-9-8-7-7-3"
       inkscape:flatsided="true"
       sodipodi:sides="4"
       sodipodi:cx="2473.8071"
       sodipodi:cy="1591.8411"
       sodipodi:r1="679.75922"
       sodipodi:r2="480.66238"
       sodipodi:arg1="0"
       sodipodi:arg2="0.78539816"
       inkscape:rounded="0.6"
       inkscape:randomized="0.1"
       transform="matrix(-0.01867988,7.9888675e-4,-4.3161395e-4,-0.01009205,253.92692,472.32951)"
       inkscape:transform-center-x="-0.0024826308"
       inkscape:transform-center-y="-0.069170343"
       d="m 3161.884,1554.4773 c 53.0868,570.8165 -77.8089,703.9924 -627.6419,769.0099 -549.8331,65.0175 -673.1939,-104.2071 -711.3456,-695.547 -38.1516,-591.3399 155.5238,-751.46767 709.133,-671.24681 553.6093,80.22091 576.7677,26.96741 629.8545,597.78391 z" />
    <path
       sodipodi:type="star"
       style="fill:#c89966;fill-opacity:1;stroke:#333333;stroke-width:0;stroke-linecap:round;stroke-linejoin:round;stroke-miterlimit:4;stroke-dasharray:none;stroke-dashoffset:831.496"
       id="path7386-4-9-8-7-0-5"
       inkscape:flatsided="true"
       sodipodi:sides="4"
       sodipodi:cx="2473.8071"
       sodipodi:cy="1591.8411"
       sodipodi:r1="679.75922"
       sodipodi:r2="480.66238"
       sodipodi:arg1="0"
       sodipodi:arg2="0.78539816"
       inkscape:rounded="0.6"
       inkscape:randomized="0.1"
       transform="matrix(0.00868838,0.0165556,-0.0089444,0.00469402,179.93936,420.23338)"
       inkscape:transform-center-x="-0.023557248"
       inkscape:transform-center-y="-0.052556853"
       d="m 3161.884,1554.4773 c 53.0868,570.8165 -77.8089,703.9924 -627.6419,769.0099 -549.8331,65.0175 -673.1939,-104.2071 -711.3456,-695.547 -38.1516,-591.3399 155.5238,-751.46767 709.133,-671.24681 553.6093,80.22091 576.7677,26.96741 629.8545,597.78391 z" />
    <path
       style="fill:#d3ac72;fill-opacity:0.35;stroke:#333333;stroke-width:0;stroke-linecap:round;stroke-linejoin:round;stroke-miterlimit:4;stroke-dasharray:none;stroke-dashoffset:831.496"
       id="rect1103"
       width="500"
       height="200"
       x="1.4210855e-14"
       y="9.9475983e-14"
       clip-path="url(#clipPath2207)"
       inkscape:path-effect="#path-effect2211"
       sodipodi:type="rect"
       d="M 0,0 H 500 V 200 H 0 Z" />
    <path
       style="fill:#d3ac72;fill-opacity:0.35;stroke:#333333;stroke-width:0;stroke-linecap:round;stroke-linejoin:round;stroke-miterlimit:4;stroke-dasharray:none;stroke-dashoffset:831.496"
       id="rect1103-7"
       width="500"
       height="200"
       x="1.4210855e-14"
       y="9.9475983e-14"
       clip-path="url(#clipath_lpe_path-effect2253)"
       inkscape:path-effect="#path-effect2253"
       sodipodi:type="rect"
       transform="rotate(180,250,500)"
       d="M 0,0 H 500 V 200 H 0 Z" />
    <path
       style="fill:#d3ac72;fill-opacity:0.35;stroke:#333333;stroke-width:0;stroke-linecap:round;stroke-linejoin:round;stroke-miterlimit:4;stroke-dasharray:none;stroke-dashoffset:831.496"
       id="rect5612"
       width="150"
       height="175"
       x="5e-07"
       y="412.5"
       clip-path="url(#clipPath6265)"
       inkscape:path-effect="#path-effect6269"
       sodipodi:type="rect"
       d="M 5e-7,412.5 H 150 v 175 H 5e-7 Z" />
    <path
       style="fill:#d3ac72;fill-opacity:0.35;stroke:#333333;stroke-width:0;stroke-linecap:round;stroke-linejoin:round;stroke-miterlimit:4;stroke-dasharray:none;stroke-dashoffset:831.496"
       id="rect5612-6"
       width="150"
       height="175"
       x="5e-07"
       y="412.5"
       clip-path="url(#clipath_lpe_path-effect6329)"
       inkscape:path-effect="#path-effect6329"
       sodipodi:type="rect"
       transform="rotate(180,250,500)"
       d="M 5e-7,412.5 H 150 v 175 H 5e-7 Z" />
  </g>
</svg>
