<?xml version="1.0" encoding="UTF-8" standalone="no"?>
<!-- Created with Inkscape (http://www.inkscape.org/) -->

<svg
   width="450mm"
   height="375mm"
   viewBox="0 0 450 375"
   version="1.1"
   id="svg30180"
   inkscape:version="1.3 (0e150ed, 2023-07-21)"
   sodipodi:docname="ibc.svg"
   xml:space="preserve"
   xmlns:inkscape="http://www.inkscape.org/namespaces/inkscape"
   xmlns:sodipodi="http://sodipodi.sourceforge.net/DTD/sodipodi-0.dtd"
   xmlns="http://www.w3.org/2000/svg"
   xmlns:svg="http://www.w3.org/2000/svg"><sodipodi:namedview
     id="namedview30182"
     pagecolor="#ffffff"
     bordercolor="#666666"
     borderopacity="1.0"
     inkscape:pageshadow="2"
     inkscape:pageopacity="0.0"
     inkscape:pagecheckerboard="0"
     inkscape:document-units="mm"
     showgrid="false"
     inkscape:zoom="0.20776512"
     inkscape:cx="476.49961"
     inkscape:cy="315.25984"
     inkscape:window-width="1312"
     inkscape:window-height="722"
     inkscape:window-x="0"
     inkscape:window-y="25"
     inkscape:window-maximized="0"
     inkscape:current-layer="layer1"
     inkscape:showpageshadow="2"
     inkscape:deskcolor="#d1d1d1" /><defs
     id="defs30177"><rect
       x="923.79322"
       y="2345.0136"
       width="314.00207"
       height="194.89539"
       id="rect2" /></defs><g
     inkscape:label="Layer 1"
     inkscape:groupmode="layer"
     id="layer1"><path
       style="fill:#bebebe;fill-opacity:1;stroke:#333333;stroke-width:15;stroke-linecap:butt;stroke-linejoin:round;stroke-dasharray:none;stroke-opacity:1"
       d="M 60.000004,59.999998 H 185 V 70 h 80 V 59.999998 H 389.99998 V 315 H 265 v -10 h -80 v 10 H 60.000004 Z"
       id="path2"
       sodipodi:nodetypes="ccccccccccccc" /><path
       style="fill:none;stroke:#333333;stroke-width:40;stroke-linecap:butt;stroke-linejoin:miter;stroke-dasharray:none;stroke-opacity:1"
       d="M 132.50025,260 H 25.000001"
       id="path7-0-8-4"
       sodipodi:nodetypes="cc" /><rect
       style="fill:none;fill-opacity:0.1;stroke:#333333;stroke-width:40;stroke-linecap:square;stroke-linejoin:round;stroke-dasharray:none;stroke-dashoffset:14.1732;stroke-opacity:1"
       id="rect5"
       width="400"
       height="325"
       x="25.000002"
       y="25"
       ry="42.009136" /><path
       style="fill:none;stroke:#333333;stroke-width:40;stroke-linecap:butt;stroke-linejoin:miter;stroke-dasharray:none;stroke-opacity:1"
       d="M 132.50025,350 V 24.999999"
       id="path7" /><path
       style="fill:none;stroke:#333333;stroke-width:40;stroke-linecap:butt;stroke-linejoin:miter;stroke-dasharray:none;stroke-opacity:1"
       d="M 317.49975,350 V 24.999999"
       id="path7-9" /><path
       style="fill:none;stroke:#333333;stroke-width:40;stroke-linecap:butt;stroke-linejoin:miter;stroke-dasharray:none;stroke-opacity:1"
       d="M 132.50025,115 H 25.000002"
       id="path7-0"
       sodipodi:nodetypes="cc" /><path
       style="fill:none;stroke:#333333;stroke-width:40;stroke-linecap:butt;stroke-linejoin:miter;stroke-dasharray:none;stroke-opacity:1"
       d="M 423.00517,110 H 315.50492"
       id="path7-0-1"
       sodipodi:nodetypes="cc" /><path
       style="fill:none;stroke:#333333;stroke-width:40;stroke-linecap:butt;stroke-linejoin:miter;stroke-dasharray:none;stroke-opacity:1"
       d="M 423.00517,260 H 315.50492"
       id="path7-0-8"
       sodipodi:nodetypes="cc" /><rect
       style="fill:none;fill-opacity:0.1;stroke:#879f9e;stroke-width:10;stroke-linecap:square;stroke-linejoin:round;stroke-dasharray:none;stroke-dashoffset:14.1732;stroke-opacity:1"
       id="rect5-2"
       width="400"
       height="325"
       x="25.000002"
       y="25"
       ry="42.009136" /><path
       style="fill:#b0b0b0;stroke:#333333;stroke-width:15;stroke-linecap:butt;stroke-linejoin:round;stroke-opacity:1;stroke-dasharray:none;fill-opacity:1"
       d="m 185,69.999999 h 80 V 304.99999 h -80 z"
       id="path1" /><path
       style="fill:none;fill-opacity:1;stroke:#333333;stroke-width:20;stroke-linecap:butt;stroke-linejoin:round;stroke-dasharray:none;stroke-opacity:0.1"
       d="M 75,75.000002 H 188.63637 L 173.636,85 H 276.364 L 261.36365,75.000002 H 375 V 300 H 261.36365 L 276.364,290 H 173.636 l 15.00037,10 H 75 Z"
       id="path2-3"
       sodipodi:nodetypes="ccccccccccccc" /><path
       style="fill:none;stroke:#879f9e;stroke-width:10;stroke-linecap:butt;stroke-linejoin:miter;stroke-dasharray:none;stroke-opacity:1"
       d="M 132.50025,115 H 25.000002"
       id="path7-3-1"
       sodipodi:nodetypes="cc" /><path
       style="fill:none;stroke:#879f9e;stroke-width:10;stroke-linecap:butt;stroke-linejoin:miter;stroke-dasharray:none;stroke-opacity:1"
       d="M 423.00517,110 H 315.50492"
       id="path7-3-1-0"
       sodipodi:nodetypes="cc" /><path
       style="fill:none;stroke:#879f9e;stroke-width:10;stroke-linecap:butt;stroke-linejoin:miter;stroke-dasharray:none;stroke-opacity:1"
       d="M 132.50025,350 V 25"
       id="path7-3" /><path
       style="fill:none;stroke:#879f9e;stroke-width:10;stroke-linecap:butt;stroke-linejoin:miter;stroke-dasharray:none;stroke-opacity:1"
       d="M 317.49975,350 V 25"
       id="path7-3-9" /><path
       style="fill:none;stroke:#879f9e;stroke-width:10;stroke-linecap:butt;stroke-linejoin:miter;stroke-dasharray:none;stroke-opacity:1"
       d="M 423.00517,260 H 315.50492"
       id="path7-3-1-9"
       sodipodi:nodetypes="cc" /><path
       style="fill:none;stroke:#879f9e;stroke-width:10;stroke-linecap:butt;stroke-linejoin:miter;stroke-dasharray:none;stroke-opacity:1"
       d="M 132.50025,260 H 25.000001"
       id="path7-3-1-9-0"
       sodipodi:nodetypes="cc" /><g
       id="g9"
       transform="matrix(0.73187246,0,0,0.75076562,60.328695,46.731444)"><path
         sodipodi:type="star"
         style="fill:#b72c2c;fill-opacity:1;stroke:#333333;stroke-width:66.9341;stroke-linecap:round;stroke-linejoin:round;stroke-dasharray:none;stroke-opacity:1"
         id="path4"
         inkscape:flatsided="false"
         sodipodi:sides="10"
         sodipodi:cx="315.50491"
         sodipodi:cy="109.99999"
         sodipodi:r1="107.50025"
         sodipodi:r2="96.750221"
         sodipodi:arg1="0"
         sodipodi:arg2="0.31415927"
         inkscape:rounded="0.1"
         inkscape:randomized="0"
         d="m 423.00517,109.99999 c 0,3.36698 -14.44488,26.69528 -15.48533,29.89747 -1.04045,3.20218 -3.06634,30.56565 -5.0454,33.28959 -1.97906,2.72395 -27.37723,13.10646 -30.10117,15.08552 -2.72395,1.97906 -20.44677,22.92578 -23.64895,23.96624 -3.20219,1.04045 -29.85243,-5.4886 -33.21941,-5.4886 -3.36697,0 -30.01722,6.52905 -33.2194,5.4886 -3.20219,-1.04046 -20.92501,-21.98719 -23.64895,-23.96624 -2.72394,-1.97906 -28.12212,-12.36157 -30.10118,-15.08552 -1.97906,-2.72394 -4.00494,-30.08741 -5.0454,-33.2896 -1.04045,-3.20218 -15.48532,-26.53048 -15.48532,-29.89746 0,-3.36697 14.44487,-26.695275 15.48533,-29.897461 1.04045,-3.202185 3.06633,-30.565658 5.04539,-33.289599 1.97906,-2.723942 27.37724,-13.106452 30.10118,-15.085511 2.72394,-1.97906 20.44676,-22.9257884 23.64895,-23.9662416 3.20218,-1.0404531 29.85243,5.4885936 33.2194,5.4885936 3.36698,0 30.01722,-6.5290467 33.21941,-5.4885936 3.20218,1.0404532 20.92501,21.9871826 23.64895,23.9662416 2.72394,1.97906 28.12211,12.361569 30.10117,15.085511 1.97906,2.723942 4.00495,30.087415 5.0454,33.2896 1.04045,3.202186 15.48533,26.53049 15.48533,29.89746 z"
         inkscape:transform-center-x="1.2620828e-05"
         transform="matrix(0.30232487,0,0,0.30232487,129.61502,154.24427)"
         inkscape:transform-center-y="-4.6581995e-06" /><path
         sodipodi:type="star"
         style="fill:none;fill-opacity:1;stroke:#333333;stroke-width:107.5;stroke-linecap:round;stroke-linejoin:round;stroke-dasharray:none;stroke-opacity:0.1"
         id="path4-2"
         inkscape:flatsided="false"
         sodipodi:sides="10"
         sodipodi:cx="315.50491"
         sodipodi:cy="109.99999"
         sodipodi:r1="107.50025"
         sodipodi:r2="96.750221"
         sodipodi:arg1="0"
         sodipodi:arg2="0.31415927"
         inkscape:rounded="0.1"
         inkscape:randomized="0"
         d="m 423.00517,109.99999 c 0,3.36698 -14.44488,26.69528 -15.48533,29.89747 -1.04045,3.20218 -3.06634,30.56565 -5.0454,33.28959 -1.97906,2.72395 -27.37723,13.10646 -30.10117,15.08552 -2.72395,1.97906 -20.44677,22.92578 -23.64895,23.96624 -3.20219,1.04045 -29.85243,-5.4886 -33.21941,-5.4886 -3.36697,0 -30.01722,6.52905 -33.2194,5.4886 -3.20219,-1.04046 -20.92501,-21.98719 -23.64895,-23.96624 -2.72394,-1.97906 -28.12212,-12.36157 -30.10118,-15.08552 -1.97906,-2.72394 -4.00494,-30.08741 -5.0454,-33.2896 -1.04045,-3.20218 -15.48532,-26.53048 -15.48532,-29.89746 0,-3.36697 14.44487,-26.695275 15.48533,-29.897461 1.04045,-3.202185 3.06633,-30.565658 5.04539,-33.289599 1.97906,-2.723942 27.37724,-13.106452 30.10118,-15.085511 2.72394,-1.97906 20.44676,-22.9257884 23.64895,-23.9662416 3.20218,-1.0404531 29.85243,5.4885936 33.2194,5.4885936 3.36698,0 30.01722,-6.5290467 33.21941,-5.4885936 3.20218,1.0404532 20.92501,21.9871826 23.64895,23.9662416 2.72394,1.97906 28.12211,12.361569 30.10117,15.085511 1.97906,2.723942 4.00495,30.087415 5.0454,33.2896 1.04045,3.202186 15.48533,26.53049 15.48533,29.89746 z"
         inkscape:transform-center-x="9.5455037e-06"
         transform="matrix(0.23255759,0,0,0.23255759,151.62694,161.91867)"
         inkscape:transform-center-y="-2.3334253e-06" /></g></g></svg>
