<?xml version="1.0" encoding="UTF-8" standalone="no"?>
<!-- Created with Inkscape (http://www.inkscape.org/) -->

<svg
   width="60mm"
   height="60mm"
   viewBox="0 0 60 60"
   version="1.1"
   id="svg3646"
   inkscape:version="1.3 (0e150ed, 2023-07-21)"
   sodipodi:docname="stone.svg"
   xmlns:inkscape="http://www.inkscape.org/namespaces/inkscape"
   xmlns:sodipodi="http://sodipodi.sourceforge.net/DTD/sodipodi-0.dtd"
   xmlns="http://www.w3.org/2000/svg"
   xmlns:svg="http://www.w3.org/2000/svg">
  <sodipodi:namedview
     id="namedview3648"
     pagecolor="#ffffff"
     bordercolor="#666666"
     borderopacity="1.0"
     inkscape:pageshadow="2"
     inkscape:pageopacity="0.0"
     inkscape:pagecheckerboard="0"
     inkscape:document-units="mm"
     showgrid="false"
     inkscape:zoom="1.2210366"
     inkscape:cx="149.87265"
     inkscape:cy="93.77278"
     inkscape:window-width="1312"
     inkscape:window-height="722"
     inkscape:window-x="0"
     inkscape:window-y="25"
     inkscape:window-maximized="0"
     inkscape:current-layer="layer1"
     inkscape:showpageshadow="2"
     inkscape:deskcolor="#d1d1d1" />
  <defs
     id="defs3643" />
  <g
     inkscape:label="Layer 1"
     inkscape:groupmode="layer"
     id="layer1">
    <g
       id="g1">
      <path
         sodipodi:type="star"
         style="fill:#919191;fill-opacity:1;fill-rule:evenodd;stroke:#333333;stroke-width:18.71610989;stroke-linecap:round;stroke-linejoin:round;stroke-miterlimit:4;stroke-dasharray:none;stroke-dashoffset:188.976;stroke-opacity:1"
         id="path5921"
         inkscape:flatsided="true"
         sodipodi:sides="10"
         sodipodi:cx="100.51512"
         sodipodi:cy="71.333313"
         sodipodi:r1="109.24181"
         sodipodi:r2="88.378479"
         sodipodi:arg1="0.47249694"
         sodipodi:arg2="0.78665621"
         inkscape:rounded="0.5"
         inkscape:randomized="0"
         d="m 197.78782,121.05047 c -15.36345,30.05892 -17.70297,32.39256 -47.80044,47.68033 -30.09748,15.28776 -33.36187,15.80058 -66.697168,10.47779 C 49.954916,173.8858 47.01254,172.38192 23.172377,148.4817 -0.6677858,124.58148 -2.164259,121.63533 -7.4031577,88.286745 -12.642056,54.938163 -12.121025,51.675072 3.2424221,21.616155 18.605869,-8.4427622 20.945389,-10.776403 51.042867,-26.064171 c 30.097478,-15.287767 33.361869,-15.800587 66.697163,-10.477797 33.3353,5.32279 36.27767,6.826671 60.11784,30.7268931 23.84016,23.9002219 25.33663,26.8463729 30.57553,60.1949559 5.2389,33.348582 4.71787,36.611673 -10.64558,66.670589 z"
         transform="matrix(0.24045711,0,0,0.24041205,6.3840838,12.304365)"
         inkscape:transform-center-x="0.9844168"
         inkscape:transform-center-y="0.97047043" />
      <path
         sodipodi:type="star"
         style="fill:#989898;fill-opacity:1;fill-rule:evenodd;stroke:#333333;stroke-width:0;stroke-linecap:round;stroke-linejoin:round;stroke-miterlimit:4;stroke-dasharray:none;stroke-dashoffset:188.976;stroke-opacity:1"
         id="path5921-92"
         inkscape:flatsided="true"
         sodipodi:sides="10"
         sodipodi:cx="100.51512"
         sodipodi:cy="71.333313"
         sodipodi:r1="109.24181"
         sodipodi:r2="88.378479"
         sodipodi:arg1="0.47249694"
         sodipodi:arg2="0.78665621"
         inkscape:rounded="0.5"
         inkscape:randomized="0"
         transform="matrix(0.09429711,0,0,0.09427944,17.814404,16.55287)"
         inkscape:transform-center-x="0.38604664"
         inkscape:transform-center-y="0.3805777"
         d="m 197.78782,121.05047 c -15.36345,30.05892 -17.70297,32.39256 -47.80044,47.68033 -30.09748,15.28776 -33.36187,15.80058 -66.697168,10.47779 C 49.954916,173.8858 47.01254,172.38192 23.172377,148.4817 -0.6677858,124.58148 -2.164259,121.63533 -7.4031577,88.286745 -12.642056,54.938163 -12.121025,51.675072 3.2424221,21.616155 18.605869,-8.4427622 20.945389,-10.776403 51.042867,-26.064171 c 30.097478,-15.287767 33.361869,-15.800587 66.697163,-10.477797 33.3353,5.32279 36.27767,6.826671 60.11784,30.7268931 23.84016,23.9002219 25.33663,26.8463729 30.57553,60.1949559 5.2389,33.348582 4.71787,36.611673 -10.64558,66.670589 z" />
      <path
         sodipodi:type="star"
         style="fill:#a0a0a0;fill-opacity:1;fill-rule:evenodd;stroke:#333333;stroke-width:0;stroke-linecap:round;stroke-linejoin:round;stroke-miterlimit:4;stroke-dasharray:none;stroke-dashoffset:188.976;stroke-opacity:1"
         id="path5921-92-6"
         inkscape:flatsided="true"
         sodipodi:sides="10"
         sodipodi:cx="100.51512"
         sodipodi:cy="71.333313"
         sodipodi:r1="109.24181"
         sodipodi:r2="88.378479"
         sodipodi:arg1="0.47249694"
         sodipodi:arg2="0.78665621"
         inkscape:rounded="0.5"
         inkscape:randomized="0"
         transform="matrix(0.04714855,0,0,0.04713972,22.22489,19.628757)"
         inkscape:transform-center-x="0.19302328"
         inkscape:transform-center-y="0.19028872"
         d="m 197.78782,121.05047 c -15.36345,30.05892 -17.70297,32.39256 -47.80044,47.68033 -30.09748,15.28776 -33.36187,15.80058 -66.697168,10.47779 C 49.954916,173.8858 47.01254,172.38192 23.172377,148.4817 -0.6677858,124.58148 -2.164259,121.63533 -7.4031577,88.286745 -12.642056,54.938163 -12.121025,51.675072 3.2424221,21.616155 18.605869,-8.4427622 20.945389,-10.776403 51.042867,-26.064171 c 30.097478,-15.287767 33.361869,-15.800587 66.697163,-10.477797 33.3353,5.32279 36.27767,6.826671 60.11784,30.7268931 23.84016,23.9002219 25.33663,26.8463729 30.57553,60.1949559 5.2389,33.348582 4.71787,36.611673 -10.64558,66.670589 z" />
      <path
         sodipodi:type="star"
         style="fill:none;fill-opacity:1;fill-rule:evenodd;stroke:#333333;stroke-width:32.2784;stroke-linecap:round;stroke-linejoin:round;stroke-miterlimit:4;stroke-dasharray:none;stroke-dashoffset:188.976;stroke-opacity:0.1"
         id="path5921-9"
         inkscape:flatsided="true"
         sodipodi:sides="10"
         sodipodi:cx="100.51512"
         sodipodi:cy="71.333313"
         sodipodi:r1="109.24181"
         sodipodi:r2="88.378479"
         sodipodi:arg1="0.47249694"
         sodipodi:arg2="0.78665621"
         inkscape:rounded="0.5"
         inkscape:randomized="0"
         transform="matrix(0.21688335,0,0,0.21684271,8.7097069,14.028777)"
         inkscape:transform-center-x="0.88790714"
         inkscape:transform-center-y="0.87532843"
         d="m 197.78782,121.05047 c -15.36345,30.05892 -17.70297,32.39256 -47.80044,47.68033 -30.09748,15.28776 -33.36187,15.80058 -66.697168,10.47779 C 49.954916,173.8858 47.01254,172.38192 23.172377,148.4817 -0.6677858,124.58148 -2.164259,121.63533 -7.4031577,88.286745 -12.642056,54.938163 -12.121025,51.675072 3.2424221,21.616155 18.605869,-8.4427622 20.945389,-10.776403 51.042867,-26.064171 c 30.097478,-15.287767 33.361869,-15.800587 66.697163,-10.477797 33.3353,5.32279 36.27767,6.826671 60.11784,30.7268931 23.84016,23.9002219 25.33663,26.8463729 30.57553,60.1949559 5.2389,33.348582 4.71787,36.611673 -10.64558,66.670589 z" />
    </g>
  </g>
</svg>
