<?xml version="1.0" encoding="UTF-8" standalone="no"?>
<!-- Created with Inkscape (http://www.inkscape.org/) -->

<svg
   width="600mm"
   height="350mm"
   viewBox="0 0 599.99998 350"
   version="1.1"
   id="svg5"
   inkscape:version="1.3 (0e150ed, 2023-07-21)"
   sodipodi:docname="deagle_promo.svg"
   xml:space="preserve"
   inkscape:export-filename="deagle_promo.png"
   inkscape:export-xdpi="171.044"
   inkscape:export-ydpi="171.044"
   xmlns:inkscape="http://www.inkscape.org/namespaces/inkscape"
   xmlns:sodipodi="http://sodipodi.sourceforge.net/DTD/sodipodi-0.dtd"
   xmlns:xlink="http://www.w3.org/1999/xlink"
   xmlns="http://www.w3.org/2000/svg"
   xmlns:svg="http://www.w3.org/2000/svg"><sodipodi:namedview
     id="namedview7"
     pagecolor="#ffffff"
     bordercolor="#666666"
     borderopacity="1.0"
     inkscape:pageshadow="2"
     inkscape:pageopacity="0.0"
     inkscape:pagecheckerboard="0"
     inkscape:document-units="mm"
     showgrid="false"
     inkscape:zoom="0.084670373"
     inkscape:cx="1098.3771"
     inkscape:cy="1305.061"
     inkscape:window-width="1440"
     inkscape:window-height="784"
     inkscape:window-x="0"
     inkscape:window-y="25"
     inkscape:window-maximized="1"
     inkscape:current-layer="layer1"
     inkscape:showpageshadow="2"
     inkscape:deskcolor="#d1d1d1"
     showguides="false" /><defs
     id="defs2"><linearGradient
       id="linearGradient21"
       inkscape:collect="always"><stop
         style="stop-color:#cc5e5e;stop-opacity:1;"
         offset="0"
         id="stop20" /><stop
         style="stop-color:#ab3a3a;stop-opacity:1;"
         offset="1"
         id="stop21" /></linearGradient><rect
       x="1783.0041"
       y="166.20152"
       width="399.89187"
       height="186.08357"
       id="rect20" /><rect
       x="1283.1631"
       y="481.82739"
       width="926.05277"
       height="418.74717"
       id="rect19" /><rect
       x="1250.9224"
       y="452.13235"
       width="771.67293"
       height="605.05889"
       id="rect18" /><rect
       x="1275.3193"
       y="1210.9402"
       width="787.87756"
       height="758.80787"
       id="rect17" /><rect
       x="1503.431"
       y="183.71102"
       width="1061.0249"
       height="330.10704"
       id="rect15" /><rect
       x="91.149288"
       y="-820.34359"
       width="2557.5418"
       height="546.89573"
       id="rect3" /><linearGradient
       id="linearGradient2"
       inkscape:collect="always"><stop
         style="stop-color:#5ea0cc;stop-opacity:1;"
         offset="0"
         id="stop2" /><stop
         style="stop-color:#3a7dab;stop-opacity:1;"
         offset="1"
         id="stop3" /></linearGradient><rect
       x="418.71599"
       y="1322.8346"
       width="1911.4359"
       height="379.8904"
       id="rect2" /><rect
       x="446.43755"
       y="755.54835"
       width="1154.5051"
       height="437.73334"
       id="rect14" /><clipPath
       clipPathUnits="userSpaceOnUse"
       id="clipPath54"><path
         id="path54"
         style="stroke-width:0.0999999;stroke-linecap:square;paint-order:markers fill stroke;stop-color:#000000"
         d="m 1691.1994,-792.32001 h 1634.8919 v 92.82806 H 1691.1994 Z" /></clipPath><clipPath
       clipPathUnits="userSpaceOnUse"
       id="clipPath15"><rect
         style="fill:none;stroke:#000000;stroke-linecap:butt;stroke-linejoin:bevel;paint-order:stroke markers fill;stop-color:#000000"
         id="rect15-7"
         width="45.034248"
         height="38.955639"
         x="262.48285"
         y="121.00073" /></clipPath><inkscape:path-effect
       effect="fill_between_many"
       method="originald"
       linkedpaths="#path34,0,1"
       id="path-effect34"
       is_visible="true"
       lpeversion="0"
       join="true"
       close="true"
       autoreverse="true" /><clipPath
       clipPathUnits="userSpaceOnUse"
       id="clipPath18"><path
         id="path18"
         style="display:block;fill:#7c7c7c;fill-opacity:1;stroke:none;stroke-width:2;stroke-linecap:butt;stroke-linejoin:round;stroke-dasharray:none;stroke-opacity:1"
         d="m 153.59913,-83.812388 -3.61735,3.154844 -2.40761,-0.0088 c -1.34656,-0.204305 -2.29712,-1.317812 -3.31246,-2.14612 h -13.35319 v 2.200381 H 112.76803 81.208197 v -1.308962 l -3.028754,-1.804025 c -0.730348,-0.09707 -0.90537,0.08005 -0.971,0.866095 v 2.246892 h -2.300118 v 6.340697 l 4.014743,7.959204 h 7.185091 29.447811 c 1.76143,1.117558 3.44887,2.326802 4.88808,3.848346 1.66435,1.957232 2.16168,5.662877 1.11414,8.841838 0.23521,0.294005 0.40656,0.472813 0.79065,0.574641 h 10.53114 c 1.63957,0.0013 2.88577,-1.311839 4.5806,0.291454 1.89445,1.269701 3.39776,10.078691 3.99252,16.436724 0.12464,0.566679 -0.41557,1.525915 -0.59118,2.054138 l -0.96066,2.69286 c 1.47419,1.697225 23.54263,1.423702 24.28895,-0.243396 l 5.3e-4,-2.545582 c 0.008,-2.298944 0.28081,-4.561536 -0.81442,-6.179468 -3.04458,-4.470765 -4.09201,-9.834113 -5.53196,-14.965495 -0.63051,-2.868401 -0.22576,-4.766924 0.8108,-6.023404 2.02891,-2.459384 6.47909,-2.459281 10.32857,-2.459281 1.29315,0.0085 1.65041,0.129876 2.26911,-0.077 0.51498,-0.172194 0.86447,-0.634709 0.85576,-1.131197 -0.008,-0.447802 -0.32033,-0.93013 -0.83199,-1.131713 -0.34693,-0.136687 -1.80546,-0.164412 -2.31562,-0.178284 -3.15248,-0.12092 -4.91266,-0.383641 -5.98103,-1.396815 -0.44827,-0.445749 -0.61998,-0.905423 -0.79013,-1.488797 l -0.34468,-1.440739 c 0.60127,-2.004748 1.22422,-4.08211 2.81895,-5.553149 0.68691,-1.668251 -0.6656,-1.742456 -0.90279,-1.717725 -1.42483,0.545679 -2.85843,1.023125 -4.40955,1.033529 l -3.54294,-3.565158 -0.80046,-0.0031 v -3.173447 z"
         sodipodi:nodetypes="cccccccccccccccccccccccccccccscscsccccccccccc" /></clipPath><inkscape:path-effect
       effect="powerclip"
       id="path-effect18"
       is_visible="true"
       lpeversion="1"
       inverse="true"
       flatten="false"
       hide_clip="false"
       message="Use fill-rule evenodd on &lt;b&gt;fill and stroke&lt;/b&gt; dialogue if no flatten result after convert clip to paths." /><rect
       x="418.716"
       y="1322.8346"
       width="1911.4359"
       height="379.89041"
       id="rect2-1" /><radialGradient
       inkscape:collect="always"
       xlink:href="#linearGradient2"
       id="radialGradient3"
       cx="245.1344"
       cy="478.46774"
       fx="245.1344"
       fy="478.46774"
       r="300"
       gradientTransform="matrix(0.21852165,-0.58709325,0.54669189,0.20348388,-22.945868,195.55453)"
       gradientUnits="userSpaceOnUse" /><rect
       x="91.149284"
       y="-820.34357"
       width="2557.5417"
       height="546.89575"
       id="rect3-3" /><rect
       x="91.149284"
       y="-820.34357"
       width="2557.5417"
       height="546.89575"
       id="rect3-0" /><rect
       x="91.149284"
       y="-820.34357"
       width="2557.5417"
       height="546.89575"
       id="rect3-00" /><rect
       x="1503.431"
       y="183.71101"
       width="1061.0249"
       height="330.10703"
       id="rect15-6" /><rect
       x="1283.1631"
       y="481.82739"
       width="926.0528"
       height="418.74716"
       id="rect19-7" /><radialGradient
       inkscape:collect="always"
       xlink:href="#linearGradient21"
       id="radialGradient3-0"
       cx="245.1344"
       cy="478.46774"
       fx="245.1344"
       fy="478.46774"
       r="300"
       gradientTransform="matrix(0.21852165,-0.58709325,0.54669189,0.20348388,-22.945944,195.5547)"
       gradientUnits="userSpaceOnUse" /></defs><g
     inkscape:label="Layer 1"
     inkscape:groupmode="layer"
     id="layer1"><rect
       style="fill:url(#radialGradient3);stroke-width:17.5;stroke-linecap:round;stroke-linejoin:round;stroke-opacity:0.15;fill-opacity:1"
       id="rect1"
       width="600"
       height="349.99997"
       x="0"
       y="0" /><path
       id="rect1-8"
       style="fill:url(#radialGradient3-0);fill-opacity:1;stroke-width:17.5;stroke-linecap:round;stroke-linejoin:round;stroke-opacity:0.15"
       d="M 351.73298,1.75e-4 251.22894,136.65314 344.75201,205.78172 238.17486,350 H 600 V 1.75e-4 Z"
       sodipodi:nodetypes="ccccccc" /><text
       xml:space="preserve"
       transform="scale(0.26458333)"
       id="text12"
       style="font-style:normal;font-weight:normal;font-size:40px;line-height:1.25;font-family:sans-serif;white-space:pre;shape-inside:url(#rect14);display:inline;fill:#000000;fill-opacity:1;stroke:none" /><g
       id="g12"
       transform="matrix(0.73367885,-0.30389973,0.30389973,0.73367885,36.834696,114.30205)"><g
         id="g1"
         transform="translate(146.854,50)"><path
           id="path1-9"
           style="fill:none;fill-opacity:1;stroke:#333333;stroke-width:30;stroke-linecap:butt;stroke-linejoin:round;stroke-dasharray:none;stroke-opacity:1"
           d="m 64.002874,46.91515 v 13.80588 l -2.27118,0.0083 -8.980331,9.03665 c -5.73019,-0.05416 -11.03022,-1.78577 -16.29772,-3.76721 -0.88115,-0.0902 -5.904059,0.17973 -3.352249,6.2668 5.924299,5.36751 8.237009,12.94798 10.470679,20.26285 l 4.36408,-17.91725 -4.31137,18.02112 c -0.48282,1.65537 -0.96972,2.9597 -2.24172,4.22455 -3.03157,2.87494 -8.0257,3.62047 -16.971059,3.96358 -1.44762,0.0394 -5.46997,0.0374 -6.57066,0.50694 -3.66488,1.56339 -4.08085,6.70092 0.5085,8.07651 1.76183,0.52809 2.76896,0.24269 6.43836,0.21859 10.923149,0 23.109809,-1.65651 28.86698,5.32216 2.9413,3.56535 4.08922,8.95218 2.30011,17.09146 -4.085951,14.56063 -7.058041,29.77952 -15.697231,42.46563 -3.10779,4.59097 -2.33367,11.01142 -2.31097,17.53485 l 66.196987,-5.2e-4 c -0.49831,-1.49886 -2.03108,-3.94775 -1.67741,-5.55573 1.68768,-18.04136 5.95288,-43.03719 11.3285,-46.64005 4.80918,-4.54947 8.34579,-0.82434 12.99818,-0.82734 h 29.88241 c 1.08988,-0.28895 1.57637,-0.79611 2.24379,-1.63039 -4.06083,-14.63953 1.28025,-27.13133 13.04572,-36.00917 h 87.54607 20.38791 L 291.29183,78.78817 V 60.79599 h -6.52621 v -9.60613 c -0.18614,-2.23047 -0.68349,-2.73268 -2.75591,-2.45722 l -14.39757,3.72846 v 8.33489 H 132.38836 V 54.55347 H 94.497134 c -2.87653,2.34666 -5.56998,5.49844 -9.38134,6.08542 L 69.921884,46.91518 Z m 40.141206,145.12086 -66.196467,0.001 5.1e-4,7.22385 c 2.11773,4.73051 51.346401,5.16129 66.195957,0.68936 z M 85.109074,60.64041 c -0.004,5.8e-4 -0.007,0.002 -0.0109,0.0026 l -20.13366,0.07441 z m 35.744586,52.82055 h 25.31318 c -1.76996,3.67324 -2.89973,7.83928 -2.90473,12.88035 h -15.46882 c -6.90676,0 -7.05625,-5.97053 -6.93963,-12.88035 z" /><g
           id="g13"
           transform="translate(5.1120899,2.4678619)"><path
             style="fill:#9c9c9c;fill-opacity:1;stroke:#333333;stroke-width:7;stroke-linecap:butt;stroke-linejoin:round;stroke-dasharray:none;stroke-opacity:1"
             d="m 286.17985,76.327174 v -17.99228 h -6.52641 v -9.606271 c -0.18614,-2.230468 -0.68371,-2.7327 -2.75613,-2.457246 L 262.5,50 v 8.334894 H 127.27605 v 11.51636 l 2.12778,6.360317 h 124.99526 v 22.700544 h 20.38812 z"
             id="path1"
             sodipodi:nodetypes="cccccccccccccc" /><path
             id="path1-7"
             style="fill:#333333;fill-opacity:0.15;stroke:none;stroke-width:7;stroke-linecap:butt;stroke-linejoin:round;stroke-dasharray:none;stroke-opacity:1"
             d="m 269.94664,58.333907 v 15.019755 l -10.05314,19.929533 -2.84013,5.629114 h 17.73399 L 286.17995,76.327124 V 58.334941 h -6.52674 v -10e-4 z"
             sodipodi:nodetypes="cccccccccc" /><path
             style="fill:#8b8b8b;fill-opacity:1;stroke:#333333;stroke-width:7;stroke-linecap:butt;stroke-linejoin:round;stroke-dasharray:none;stroke-opacity:1"
             d="m 254.39909,98.912112 -188.981018,3e-6 -9.222181,31.625005 -5.352845,-0.96202 c 1.789115,-8.13929 0.641234,-13.52625 -2.300075,-17.0916 -5.75717,-6.97868 -17.943774,-5.32227 -28.866935,-5.32227 -3.669401,0.0241 -4.67639,0.30985 -6.438214,-0.21824 -4.5893488,-1.3756 -4.1737333,-6.51361 -0.508846,-8.077 1.100689,-0.469538 5.123257,-0.467294 6.570871,-0.506656 8.945376,-0.343119 13.939496,-1.088457 16.971068,-3.963407 1.271997,-1.264849 1.759009,-2.569577 2.241821,-4.224946 L 42.82391,72.150263 56.619682,58.268279 79.986231,58.182045 c 3.820984,-0.579738 6.517411,-3.739418 9.398507,-6.089801 h 37.891312 l 1.4e-4,6.24265 v 11.516357 l 2.12778,6.360318 h 124.99512 z"
             id="path2"
             sodipodi:nodetypes="ccccscssccccccccccccc" /><path
             d="m 253.03526,86.539164 a 10.001,10.001 0 0 0 -5.2e-4,0 H 128.0403 a 10.001,10.001 0 0 1 -4.04058,-0.85267 10.001,10.001 0 0 1 -3.35225,-2.41225 10.001,10.001 0 0 1 -2.09134,-3.56102 l -2.127,-6.36137 a 10.001,10.001 0 0 1 -0.5178,-3.1719 v -11.51558 -6.24251 a 10.001,10.001 0 0 1 0,-10e-4 H 88.021041 c -0.72027,0.5876 -1.42899,1.22559 -2.14664,1.86139 -0.71764,0.6358 -1.44445,1.26934 -2.20038,1.84743 -0.37797,0.28905 -0.76338,0.56431 -1.15859,0.81907 -0.39521,0.25476 -0.80044,0.48885 -1.21801,0.69609 -0.41757,0.20723 -0.84739,0.38786 -1.29243,0.53433 -0.44503,0.14647 -0.90524,0.25878 -1.38286,0.33125 l -23.366531,0.0863 -13.79554,13.88235 -4.311365,18.02061 c -0.241406,0.82768 -0.483652,1.56756 -0.824756,2.25877 -0.170552,0.34561 -0.36582,0.67906 -0.597896,1.00511 -0.232076,0.32605 -0.501073,0.64497 -0.819071,0.96118 -0.378947,0.35937 -0.788324,0.68515 -1.232483,0.98134 -0.44416,0.29619 -0.923081,0.56277 -1.440223,0.80253 -0.517142,0.23977 -1.072806,0.45278 -1.670699,0.64286 -0.597892,0.19008 -1.238019,0.35721 -1.92443,0.50436 -0.686411,0.14715 -1.419234,0.27454 -2.201933,0.38551 -0.782698,0.11096 -1.615418,0.20528 -2.502173,0.2868 -1.773508,0.16305 -3.762775,0.27389 -5.999117,0.35967 -0.723806,0.0197 -2.091116,0.0289 -3.415295,0.092 -0.662089,0.0315 -1.313585,0.0767 -1.868103,0.14315 -0.554519,0.0664 -1.012088,0.15443 -1.28726,0.27181 -0.45811,0.19543 -0.865905,0.44669 -1.219047,0.73949 -0.353142,0.292796 -0.651654,0.627056 -0.892969,0.988566 -0.241315,0.36152 -0.42514,0.7503 -0.54777,1.15187 -0.12263,0.40157 -0.184298,0.8159 -0.181384,1.22887 0.0029,0.41297 0.07036,0.82437 0.205672,1.22008 0.135315,0.3957 0.338308,0.77573 0.612882,1.12551 0.274575,0.34978 0.620588,0.66945 1.041281,0.94465 0.420692,0.27519 0.916163,0.50604 1.489831,0.67799 0.440456,0.13202 0.834021,0.21284 1.233517,0.25993 0.399495,0.0471 0.804882,0.06 1.270206,0.0558 0.93065,-0.008 2.099945,-0.0856 3.934644,-0.0977 2.730787,0 5.540537,-0.10361 8.309053,-0.14986 1.384259,-0.0231 2.758111,-0.0318 4.106726,-0.006 1.348616,0.0256 2.671876,0.0854 3.954798,0.19999 1.282922,0.11456 2.525773,0.28392 3.712951,0.52762 0.59359,0.12185 1.173343,0.26207 1.737362,0.42374 0.564019,0.16168 1.112102,0.34487 1.642794,0.55139 0.530692,0.20652 1.043765,0.43659 1.537374,0.69298 0.493609,0.2564 0.967815,0.53878 1.420585,0.85008 0.45277,0.31129 0.884253,0.65146 1.292427,1.02268 0.408175,0.37121 0.793079,0.77357 1.152902,1.20974 0.367663,0.44567 0.70709,0.91979 1.016475,1.4242 0.309385,0.50441 0.588451,1.03932 0.835091,1.60611 0.24664,0.56679 0.460843,1.16553 0.640271,1.79834 0.179428,0.6328 0.324267,1.29949 0.432015,2.00194 0.107749,0.70246 0.178721,1.44066 0.210323,2.2164 0.0316,0.77574 0.02369,1.58905 -0.02532,2.44172 -0.04901,0.85266 -0.139277,1.74465 -0.273369,2.67787 -0.134091,0.93322 -0.311728,1.90747 -0.535367,2.92488 l 5.352644,0.96222 9.222177,-31.624936 H 253.03526 Z"
             style="fill:#333333;fill-opacity:0.15;stroke:none;stroke-width:7;stroke-linejoin:round;stroke-opacity:1"
             id="path10" /><path
             id="path5"
             style="fill:#717171;fill-opacity:1;stroke:#333333;stroke-width:7;stroke-linecap:round;stroke-linejoin:round;stroke-dasharray:none;stroke-opacity:1"
             d="m 60.849123,69.755722 18.666685,0.05865 -13.811578,12.207396 -0.0057,-0.01476 a 7.0939198,7.0939198 0 0 1 -4.849233,1.937054 7.0939198,7.0939198 0 0 1 -7.094204,-7.094221 7.0939198,7.0939198 0 0 1 7.094204,-7.09422 z" /><path
             style="fill:none;stroke:#333333;stroke-width:7;stroke-linecap:butt;stroke-linejoin:miter;stroke-dasharray:none;stroke-opacity:1"
             d="M 279.65344,58.334894 H 262.5"
             id="path6"
             sodipodi:nodetypes="cc" /><path
             style="fill:#8b8b8b;fill-opacity:1;stroke:#333333;stroke-width:7;stroke-linecap:butt;stroke-linejoin:round;stroke-dasharray:none;stroke-opacity:1"
             d="M 80.004991,58.179174 64.809585,44.454013 h -5.918884 v 13.805818 z"
             id="path4"
             sodipodi:nodetypes="ccccc" /><path
             style="fill:#8b8b8b;fill-opacity:1;stroke:#333333;stroke-width:6.99999;stroke-linecap:butt;stroke-linejoin:round;stroke-dasharray:none;stroke-opacity:1"
             d="m 47.724296,67.307068 c -5.763028,-0.03759 -11.088997,-1.778061 -16.38272,-3.769353 -0.881142,-0.09023 -5.904308,0.179811 -3.352492,6.266898 5.924294,5.367508 8.237165,12.947562 10.470835,20.262448 L 42.82391,72.150263 Z"
             id="path7"
             sodipodi:nodetypes="cccccc" /><path
             id="rect10"
             style="fill:#333333;fill-opacity:0.15;stroke:#333333;stroke-width:7;stroke-linecap:round;stroke-linejoin:round;stroke-dasharray:none"
             d="m 178.75103,58.334891 h -51.47498 v 11.516363 l 2.12778,6.360317 49.3472,-2e-6 z"
             sodipodi:nodetypes="cccccc" /><path
             style="fill:#9c9c9c;fill-opacity:1;stroke:#333333;stroke-width:7;stroke-linecap:butt;stroke-linejoin:round;stroke-dasharray:none;stroke-opacity:1"
             d="m 99.031846,189.575 1.54e-4,7.91428 c -14.849579,4.47193 -64.078142,4.04084 -66.195875,-0.68967 l -6.53e-4,-7.22391 z"
             id="path9"
             sodipodi:nodetypes="ccccc" /><path
             id="rect12"
             style="fill:none;stroke:#333333;stroke-width:7;stroke-linecap:round;stroke-linejoin:round;stroke-dasharray:none"
             d="M 105.20889,98.912503 H 65.417845 l -3.487541,12.260737 43.278586,-4.7e-4 z"
             sodipodi:nodetypes="ccccc" /><path
             id="path3"
             style="fill:#c7a588;fill-opacity:1;stroke:#333333;stroke-width:7;stroke-linecap:butt;stroke-linejoin:round;stroke-dasharray:none;stroke-opacity:1"
             d="m 166.85341,98.911711 c -11.76589,8.877879 -17.10698,21.369859 -13.04608,36.009649 -0.66742,0.83428 -1.15364,1.34163 -2.24352,1.63058 h -29.88282 c -4.65239,0.003 -8.18857,-3.72243 -12.99775,0.82704 -5.37563,3.60286 -9.641294,28.5988 -11.328974,46.64017 -0.35367,1.60799 1.17927,4.05699 1.67758,5.55585 l -66.197087,3.6e-4 c -0.0227,-6.52343 -0.796818,-12.94368 2.310972,-17.53466 8.639202,-12.68612 11.611356,-27.90496 15.697315,-42.4656 l 5.35219,0.96191 9.2219,-31.624843 z M 141.05482,111 H 115.7413 c -0.11662,6.90983 0.0332,12.88011 6.93996,12.88011 h 15.46866 c 0.005,-5.04108 1.13494,-9.20687 2.9049,-12.88011 z"
             sodipodi:nodetypes="cccccccccccccccscc" /><path
             id="path3-37"
             style="fill:#333333;fill-opacity:0.15;stroke:none;stroke-width:7;stroke-linecap:butt;stroke-linejoin:round;stroke-dasharray:none;stroke-opacity:1"
             d="m 166.853,98.911983 -101.435155,5.2e-4 -7.14892,24.514267 9.60148,2.79982 5.04879,-17.31418 h 84.462535 c 2.38135,-3.69366 5.56239,-7.04979 9.47127,-9.999387 z" /><path
             id="path3-3"
             style="fill:#333333;fill-opacity:0.1;stroke:#333333;stroke-width:7;stroke-linecap:butt;stroke-linejoin:round;stroke-dasharray:none;stroke-opacity:1"
             d="m 58.269149,123.42644 -2.073258,7.11068 -5.352128,-0.96221 c -4.085955,14.56062 -7.05804,29.77951 -15.697233,42.46562 -3.107787,4.59098 -2.33367,11.01142 -2.31097,17.53485 l 47.429146,-5.2e-4 C 84.274425,160.50466 89.765506,138.41174 95,123.42644 Z"
             sodipodi:nodetypes="cccccccc" /><path
             id="path3-3-1"
             style="fill:#333333;fill-opacity:0.1;stroke:none;stroke-width:7;stroke-linecap:butt;stroke-linejoin:round;stroke-dasharray:none;stroke-opacity:1"
             d="m 58.269312,123.42657 -2.073259,7.11068 -5.352128,-0.96221 c -4.085951,14.5606 -7.058049,29.77952 -15.697233,42.46562 -3.107784,4.59098 -2.33367,11.01143 -2.31097,17.53485 h 9.746175 c 0.008,-6.70905 0.344953,-10.67804 0.583427,-11.03034 8.422658,-12.3788 11.899911,-25.78736 15.099853,-38.04729 a 10.001,10.001 0 0 0 7.269324,-6.2637 l 2.072225,-7.10912 1.079004,-3.69849 z" /><rect
             style="fill:#333333;fill-opacity:0.15;stroke:none;stroke-width:30;stroke-linecap:round;stroke-linejoin:round;stroke-dasharray:none;stroke-opacity:1"
             id="rect13"
             width="15"
             height="17.87668"
             x="163.75104"
             y="58.334892" /><rect
             style="fill:#333333;fill-opacity:0.15;stroke:none;stroke-width:30;stroke-linecap:round;stroke-linejoin:round;stroke-dasharray:none;stroke-opacity:1"
             id="rect13-9"
             width="15"
             height="17.87668"
             x="127.27605"
             y="58.334892" /><rect
             style="fill:#333333;fill-opacity:0.15;stroke:none;stroke-width:30;stroke-linecap:round;stroke-linejoin:round;stroke-dasharray:none;stroke-opacity:1"
             id="rect13-3"
             width="15"
             height="17.87668"
             x="178.75104"
             y="58.334888" /><circle
             style="fill:#333333;fill-opacity:0.2;stroke:#333333;stroke-width:7;stroke-linecap:square;stroke-linejoin:round;stroke-dasharray:none;stroke-opacity:1"
             id="path8"
             cx="66.844246"
             cy="173.12523"
             r="6" /><path
             style="fill:none;stroke:#333333;stroke-width:8;stroke-linecap:round;stroke-linejoin:miter;stroke-dasharray:none;stroke-opacity:1"
             d="M 96.100746,86.159303 103.41532,67.540381"
             id="path11" /><path
             style="fill:none;stroke:#333333;stroke-width:8;stroke-linecap:round;stroke-linejoin:miter;stroke-dasharray:none;stroke-opacity:1"
             d="m 109.17191,86.159303 7.31457,-18.618922"
             id="path11-5" /><path
             style="fill:none;stroke:#333333;stroke-width:8;stroke-linecap:round;stroke-linejoin:miter;stroke-dasharray:none;stroke-opacity:1"
             d="M 83.029585,86.159303 90.344159,67.540381"
             id="path11-56" /></g></g><path
         id="path1-9-5"
         style="fill:none;fill-opacity:1;stroke:#333333;stroke-width:70;stroke-linecap:butt;stroke-linejoin:round;stroke-dasharray:none;stroke-opacity:0.1"
         d="m 210.85687,96.875578 v 13.805882 l -2.27118,0.008 -8.98033,9.03665 c -5.73019,-0.0542 -11.03022,-1.78577 -16.29772,-3.76721 -0.88115,-0.0902 -5.90406,0.17973 -3.35225,6.2668 5.9243,5.36751 8.23701,12.94798 10.47068,20.26285 l 4.36408,-17.91725 -4.31137,18.02112 c -0.48282,1.65537 -0.96972,2.9597 -2.24172,4.22455 -3.03157,2.87494 -8.0257,3.62047 -16.97106,3.96358 -1.44762,0.0394 -5.46997,0.0374 -6.57066,0.50694 -3.66488,1.56339 -4.08085,6.70092 0.5085,8.07651 1.76183,0.52809 2.76896,0.24269 6.43836,0.21859 10.92315,0 23.10981,-1.65651 28.86698,5.32216 2.9413,3.56535 4.08922,8.95218 2.30011,17.09146 -4.08595,14.56063 -7.05804,29.77952 -15.69723,42.46563 -3.10779,4.59097 -2.33367,11.01142 -2.31097,17.53485 l 66.19699,-5.2e-4 c -0.49831,-1.49886 -2.03108,-3.94775 -1.67741,-5.55573 1.68768,-18.04136 5.95288,-43.03719 11.3285,-46.64005 4.80918,-4.54947 8.34579,-0.82434 12.99818,-0.82734 h 29.88241 c 1.08988,-0.28895 1.57637,-0.79611 2.24379,-1.63039 -4.06083,-14.63953 1.28025,-27.13133 13.04572,-36.00917 h 87.54607 20.38791 l 11.39258,-22.58519 v -17.99218 h -6.52621 v -9.60613 c -0.18614,-2.230472 -0.68349,-2.732682 -2.75591,-2.457222 l -14.39757,3.728462 v 8.33489 H 279.24236 v -6.24252 h -37.89123 c -2.87653,2.34666 -5.56998,5.49844 -9.38134,6.08542 L 216.77588,96.875308 Z m 40.14121,145.120862 -66.19647,0.001 5.1e-4,7.22385 c 2.11773,4.73051 51.3464,5.16129 66.19596,0.68936 z m -19.03501,-131.3956 c -0.004,5.8e-4 -0.007,0.002 -0.0109,0.003 l -20.13366,0.0744 z m 35.74459,52.82055 h 25.31318 c -1.76996,3.67324 -2.89973,7.83928 -2.90473,12.88035 h -15.46882 c -6.90676,0 -7.05625,-5.97053 -6.93963,-12.88035 z" /></g><g
       id="g19"
       transform="translate(-143.92862,212.17705)"><text
         xml:space="preserve"
         transform="matrix(0.26458333,0,0,0.26458333,-90.272957,9.555001)"
         id="text14-7"
         style="font-style:normal;font-variant:normal;font-weight:normal;font-stretch:normal;font-size:133.333px;line-height:1.25;font-family:'Source Sans Pro';-inkscape-font-specification:'Source Sans Pro';white-space:pre;shape-inside:url(#rect15-6);display:inline;fill:#f0f0f0;fill-opacity:1;stroke:none"><tspan
           x="1503.4316"
           y="300.37731"
           id="tspan2">NEW SECONDARY</tspan></text><rect
         style="fill:#f0f0f0;fill-opacity:1;stroke:none;stroke-width:23.824;stroke-linecap:round;stroke-linejoin:round;stroke-dasharray:none;stroke-opacity:1"
         id="rect16"
         width="280"
         height="5"
         x="303.92862"
         y="96.125351"
         ry="0" /></g><text
       xml:space="preserve"
       transform="scale(0.26458333)"
       id="text16"
       style="font-style:normal;font-weight:normal;font-size:40px;line-height:1.25;font-family:sans-serif;white-space:pre;shape-inside:url(#rect17);display:inline;fill:#000000;fill-opacity:1;stroke:none" /><text
       xml:space="preserve"
       transform="matrix(0.26458333,0,-0.06596803,0.26458333,47.090718,-29.794878)"
       id="text19"
       style="font-style:normal;font-variant:normal;font-weight:normal;font-stretch:normal;font-size:133.333px;line-height:1.25;font-family:'Bebas Neue';-inkscape-font-specification:'Bebas Neue';white-space:pre;shape-inside:url(#rect20);display:inline;fill:#f0f0f0;fill-opacity:1;stroke:none"><tspan
         x="1783.0039"
         y="282.86754"
         id="tspan3">REKOIL</tspan></text></g></svg>
