<?xml version="1.0" encoding="UTF-8" standalone="no"?>
<!-- Created with Inkscape (http://www.inkscape.org/) -->

<svg
   width="600mm"
   height="350mm"
   viewBox="0 0 599.99998 350"
   version="1.1"
   id="svg5"
   inkscape:version="1.3 (0e150ed, 2023-07-21)"
   sodipodi:docname="x45_revamp_promo copy.svg"
   xml:space="preserve"
   inkscape:export-filename="x45_revamp_promo.png"
   inkscape:export-xdpi="171.044"
   inkscape:export-ydpi="171.044"
   xmlns:inkscape="http://www.inkscape.org/namespaces/inkscape"
   xmlns:sodipodi="http://sodipodi.sourceforge.net/DTD/sodipodi-0.dtd"
   xmlns:xlink="http://www.w3.org/1999/xlink"
   xmlns="http://www.w3.org/2000/svg"
   xmlns:svg="http://www.w3.org/2000/svg"><sodipodi:namedview
     id="namedview7"
     pagecolor="#ffffff"
     bordercolor="#666666"
     borderopacity="1.0"
     inkscape:pageshadow="2"
     inkscape:pageopacity="0.0"
     inkscape:pagecheckerboard="0"
     inkscape:document-units="mm"
     showgrid="false"
     inkscape:zoom="0.30104976"
     inkscape:cx="1288.8235"
     inkscape:cy="745.7239"
     inkscape:window-width="1440"
     inkscape:window-height="784"
     inkscape:window-x="0"
     inkscape:window-y="25"
     inkscape:window-maximized="1"
     inkscape:current-layer="layer1"
     inkscape:showpageshadow="2"
     inkscape:deskcolor="#d1d1d1"
     showguides="false" /><defs
     id="defs2"><linearGradient
       id="linearGradient21"
       inkscape:collect="always"><stop
         style="stop-color:#cc5e5e;stop-opacity:1;"
         offset="0"
         id="stop20" /><stop
         style="stop-color:#ab3a3a;stop-opacity:1;"
         offset="1"
         id="stop21" /></linearGradient><rect
       x="1783.0041"
       y="166.20152"
       width="399.89187"
       height="186.08357"
       id="rect20" /><rect
       x="1283.1631"
       y="481.82739"
       width="926.05277"
       height="418.74717"
       id="rect19" /><rect
       x="1250.9224"
       y="452.13235"
       width="771.67293"
       height="605.05889"
       id="rect18" /><rect
       x="1275.3193"
       y="1210.9402"
       width="787.87756"
       height="758.80787"
       id="rect17" /><rect
       x="1503.431"
       y="183.71102"
       width="1061.0249"
       height="330.10704"
       id="rect15" /><rect
       x="91.149288"
       y="-820.34359"
       width="2557.5418"
       height="546.89573"
       id="rect3" /><linearGradient
       id="linearGradient2"
       inkscape:collect="always"><stop
         style="stop-color:#5ea0cc;stop-opacity:1;"
         offset="0"
         id="stop2" /><stop
         style="stop-color:#3a7dab;stop-opacity:1;"
         offset="1"
         id="stop3" /></linearGradient><rect
       x="418.71599"
       y="1322.8346"
       width="1911.4359"
       height="379.8904"
       id="rect2" /><rect
       x="446.43755"
       y="755.54835"
       width="1154.5051"
       height="437.73334"
       id="rect14" /><clipPath
       clipPathUnits="userSpaceOnUse"
       id="clipPath54"><path
         id="path54"
         style="stroke-width:0.0999999;stroke-linecap:square;paint-order:markers fill stroke;stop-color:#000000"
         d="m 1691.1994,-792.32001 h 1634.8919 v 92.82806 H 1691.1994 Z" /></clipPath><clipPath
       clipPathUnits="userSpaceOnUse"
       id="clipPath15"><rect
         style="fill:none;stroke:#000000;stroke-linecap:butt;stroke-linejoin:bevel;paint-order:stroke markers fill;stop-color:#000000"
         id="rect15-7"
         width="45.034248"
         height="38.955639"
         x="262.48285"
         y="121.00073" /></clipPath><inkscape:path-effect
       effect="fill_between_many"
       method="originald"
       linkedpaths="#path34,0,1"
       id="path-effect34"
       is_visible="true"
       lpeversion="0"
       join="true"
       close="true"
       autoreverse="true" /><clipPath
       clipPathUnits="userSpaceOnUse"
       id="clipPath18"><path
         id="path18"
         style="display:block;fill:#7c7c7c;fill-opacity:1;stroke:none;stroke-width:2;stroke-linecap:butt;stroke-linejoin:round;stroke-dasharray:none;stroke-opacity:1"
         d="m 153.59913,-83.812388 -3.61735,3.154844 -2.40761,-0.0088 c -1.34656,-0.204305 -2.29712,-1.317812 -3.31246,-2.14612 h -13.35319 v 2.200381 H 112.76803 81.208197 v -1.308962 l -3.028754,-1.804025 c -0.730348,-0.09707 -0.90537,0.08005 -0.971,0.866095 v 2.246892 h -2.300118 v 6.340697 l 4.014743,7.959204 h 7.185091 29.447811 c 1.76143,1.117558 3.44887,2.326802 4.88808,3.848346 1.66435,1.957232 2.16168,5.662877 1.11414,8.841838 0.23521,0.294005 0.40656,0.472813 0.79065,0.574641 h 10.53114 c 1.63957,0.0013 2.88577,-1.311839 4.5806,0.291454 1.89445,1.269701 3.39776,10.078691 3.99252,16.436724 0.12464,0.566679 -0.41557,1.525915 -0.59118,2.054138 l -0.96066,2.69286 c 1.47419,1.697225 23.54263,1.423702 24.28895,-0.243396 l 5.3e-4,-2.545582 c 0.008,-2.298944 0.28081,-4.561536 -0.81442,-6.179468 -3.04458,-4.470765 -4.09201,-9.834113 -5.53196,-14.965495 -0.63051,-2.868401 -0.22576,-4.766924 0.8108,-6.023404 2.02891,-2.459384 6.47909,-2.459281 10.32857,-2.459281 1.29315,0.0085 1.65041,0.129876 2.26911,-0.077 0.51498,-0.172194 0.86447,-0.634709 0.85576,-1.131197 -0.008,-0.447802 -0.32033,-0.93013 -0.83199,-1.131713 -0.34693,-0.136687 -1.80546,-0.164412 -2.31562,-0.178284 -3.15248,-0.12092 -4.91266,-0.383641 -5.98103,-1.396815 -0.44827,-0.445749 -0.61998,-0.905423 -0.79013,-1.488797 l -0.34468,-1.440739 c 0.60127,-2.004748 1.22422,-4.08211 2.81895,-5.553149 0.68691,-1.668251 -0.6656,-1.742456 -0.90279,-1.717725 -1.42483,0.545679 -2.85843,1.023125 -4.40955,1.033529 l -3.54294,-3.565158 -0.80046,-0.0031 v -3.173447 z"
         sodipodi:nodetypes="cccccccccccccccccccccccccccccscscsccccccccccc" /></clipPath><inkscape:path-effect
       effect="powerclip"
       id="path-effect18"
       is_visible="true"
       lpeversion="1"
       inverse="true"
       flatten="false"
       hide_clip="false"
       message="Use fill-rule evenodd on &lt;b&gt;fill and stroke&lt;/b&gt; dialogue if no flatten result after convert clip to paths." /><rect
       x="418.716"
       y="1322.8346"
       width="1911.4359"
       height="379.89041"
       id="rect2-1" /><radialGradient
       inkscape:collect="always"
       xlink:href="#linearGradient2"
       id="radialGradient3"
       cx="245.1344"
       cy="478.46774"
       fx="245.1344"
       fy="478.46774"
       r="300"
       gradientTransform="matrix(0.21852165,-0.58709325,0.54669189,0.20348388,-22.945868,195.55453)"
       gradientUnits="userSpaceOnUse" /><rect
       x="91.149284"
       y="-820.34357"
       width="2557.5417"
       height="546.89575"
       id="rect3-3" /><rect
       x="91.149284"
       y="-820.34357"
       width="2557.5417"
       height="546.89575"
       id="rect3-0" /><rect
       x="91.149284"
       y="-820.34357"
       width="2557.5417"
       height="546.89575"
       id="rect3-00" /><rect
       x="1503.431"
       y="183.71101"
       width="1061.0249"
       height="330.10703"
       id="rect15-6" /><rect
       x="1283.1631"
       y="481.82739"
       width="926.0528"
       height="418.74716"
       id="rect19-7" /><radialGradient
       inkscape:collect="always"
       xlink:href="#linearGradient21"
       id="radialGradient3-0"
       cx="245.1344"
       cy="478.46774"
       fx="245.1344"
       fy="478.46774"
       r="300"
       gradientTransform="matrix(0.21852165,-0.58709325,0.54669189,0.20348388,-22.945944,195.5547)"
       gradientUnits="userSpaceOnUse" /></defs><g
     inkscape:label="Layer 1"
     inkscape:groupmode="layer"
     id="layer1"><rect
       style="fill:url(#radialGradient3);stroke-width:17.5;stroke-linecap:round;stroke-linejoin:round;stroke-opacity:0.15;fill-opacity:1"
       id="rect1"
       width="600"
       height="349.99997"
       x="0"
       y="0" /><path
       id="rect1-8"
       style="fill:url(#radialGradient3-0);fill-opacity:1;stroke-width:17.5;stroke-linecap:round;stroke-linejoin:round;stroke-opacity:0.15"
       d="M 351.73298,1.75e-4 251.22894,136.65314 344.75201,205.78172 238.17486,350 H 600 V 1.75e-4 Z"
       sodipodi:nodetypes="ccccccc" /><text
       xml:space="preserve"
       transform="scale(0.26458333)"
       id="text12"
       style="font-style:normal;font-weight:normal;font-size:40px;line-height:1.25;font-family:sans-serif;white-space:pre;shape-inside:url(#rect14);display:inline;fill:#000000;fill-opacity:1;stroke:none" /><g
       id="g4"><text
         xml:space="preserve"
         transform="matrix(0.26458333,0,0,0.26458333,-183.08429,221.73205)"
         id="text14-7"
         style="font-style:normal;font-variant:normal;font-weight:normal;font-stretch:normal;font-size:133.333px;line-height:1.25;font-family:'Source Sans Pro';-inkscape-font-specification:'Source Sans Pro';white-space:pre;shape-inside:url(#rect15-6);display:inline;fill:#f0f0f0;fill-opacity:1;stroke:none"><tspan
           x="1503.4316"
           y="300.37731"
           id="tspan1">NEW LOOK</tspan></text><rect
         style="fill:#f0f0f0;fill-opacity:1;stroke:none;stroke-width:19.1017;stroke-linecap:round;stroke-linejoin:round;stroke-dasharray:none;stroke-opacity:1"
         id="rect16"
         width="180"
         height="5"
         x="210"
         y="308.3024"
         ry="0" /></g><text
       xml:space="preserve"
       transform="scale(0.26458333)"
       id="text16"
       style="font-style:normal;font-weight:normal;font-size:40px;line-height:1.25;font-family:sans-serif;white-space:pre;shape-inside:url(#rect17);display:inline;fill:#000000;fill-opacity:1;stroke:none" /><text
       xml:space="preserve"
       transform="matrix(0.26458333,0,-0.06596803,0.26458333,47.090718,-29.794878)"
       id="text19"
       style="font-style:normal;font-variant:normal;font-weight:normal;font-stretch:normal;font-size:133.333px;line-height:1.25;font-family:'Bebas Neue';-inkscape-font-specification:'Bebas Neue';white-space:pre;shape-inside:url(#rect20);display:inline;fill:#f0f0f0;fill-opacity:1;stroke:none"><tspan
         x="1783.0039"
         y="282.86754"
         id="tspan2">REKOIL</tspan></text><g
       id="g3"
       transform="matrix(0.88688079,0,0,0.88688079,50.253579,-422.7642)"><path
         id="rect9-7-8"
         style="fill:none;fill-opacity:1;stroke:#333333;stroke-width:55;stroke-linecap:round;stroke-linejoin:round;stroke-dasharray:none;stroke-opacity:0.1"
         d="m 363.4326,538.01219 -75.19799,31.14797 1.20251,2.9037 -33.18402,13.74542 -1.20251,-2.9037 -69.98074,28.98685 8.59069,20.73982 -2.71146,1.12345 c 0.25756,4.42533 2.05501,6.89209 6.72258,6.30659 33.93696,-4.92981 12.9792,47.48015 19.39572,88.6902 0.97726,3.83503 5.72793,7.537 10.3017,5.57744 l 0.9281,-0.38448 2.44275,5.89732 c 1.40162,3.3838 5.25391,4.97969 8.63771,3.57807 l 25.38554,-10.51512 c 3.3838,-1.40161 4.97917,-5.25391 3.57755,-8.63772 l -2.44274,-5.89731 2.51871,-1.04334 c 2.83627,-2.1869 2.99213,-7.10556 3.88193,-10.57869 -7.01117,-6.50313 -8.13086,-12.74426 -0.0134,-18.85414 -5.74839,-5.3626 -7.76794,-12.35169 -0.37311,-18.23042 -5.45536,-4.37345 -4.14953,-9.40971 -4.07158,-13.63224 l 43.04698,-17.83095 c 0.005,-0.002 0.01,-0.004 0.0145,-0.006 3.99675,-1.66981 6.53955,-5.01626 7.76025,-8.39123 1.22071,-3.37499 1.41651,-6.9359 0.005,-10.36318 l -10e-4,-0.002 -5.2e-4,-0.002 -5.2e-4,-0.002 -0.001,-0.002 v -5.2e-4 l -5.2e-4,-0.002 -10e-4,-0.002 -5.2e-4,-0.002 -5.2e-4,-0.002 -5.1e-4,-10e-4 -7.52823,-18.17564 66.99902,-27.75179 -6.20531,-14.70401 0.0971,-0.0403 z m -62.25356,67.36539 7.52461,18.16582 c 0.079,0.1918 0.22017,1.50495 -0.17415,2.59519 -0.39433,1.09023 -1.02854,1.79939 -1.78181,2.11409 l -39.32731,16.28996 c 0.24852,-5.93792 0.95832,-11.95852 1.17615,-17.48575 1.05446,-6.20685 3.52285,-9.64338 8.4367,-11.67785 z" /><g
         id="g2"
         transform="translate(37.956376,127.36851)"><g
           id="g9"
           transform="matrix(0.8295967,-0.3436302,0.3436302,0.8295967,-160.40297,355.68517)"><rect
             style="fill:none;fill-opacity:1;stroke:#333333;stroke-width:30;stroke-linecap:round;stroke-linejoin:round;stroke-dasharray:none;stroke-opacity:1"
             id="rect9-7"
             width="45.324673"
             height="33.219322"
             x="253.96057"
             y="388.83734"
             ry="7.362556" /><path
             id="path1-51"
             style="fill:none;fill-opacity:1;stroke:#333333;stroke-width:30;stroke-linecap:butt;stroke-linejoin:round;stroke-dasharray:none;stroke-opacity:1"
             d="m 258.23251,288.58545 c -1.62096,4.6629 -0.82269,7.96715 4.2292,9.35395 37.01798,9.39092 -6.88092,54.38274 -17.84181,99.51744 -0.62892,4.36227 2.68127,10.19551 8.22224,10.12858 h 49.47915 c 3.85018,-1.04131 6.10666,-6.03572 8.50232,-9.22993 -4.44217,-9.67893 -2.93453,-16.57758 8.02116,-19.40448 -3.62899,-7.96727 -2.72834,-16.01854 7.38541,-18.91553 -3.74904,-6.8247 -0.25891,-11.4502 1.62082,-15.76144 h 51.88882 c 0.006,10e-6 0.0117,10e-6 0.0176,0 4.82379,-0.0147 8.86625,-2.37409 11.56053,-5.32629 2.6943,-2.95221 4.41301,-6.53225 4.42196,-10.65982 v -0.002 -0.002 -0.002 -0.002 -5.1e-4 -0.002 -0.002 -0.002 -0.002 -10e-4 -21.90874 h 80.76096 l -0.11785,-17.77623 z m 96.40186,17.77979 h 29.10572 v 21.89737 c -5e-4,0.23099 -0.41484,1.64205 -1.28519,2.59571 -0.87034,0.95366 -1.82506,1.41316 -2.7342,1.41593 h -47.40589 c 2.78629,-6.00349 6.08282,-11.89534 8.66252,-17.48937 3.73011,-5.9367 7.73425,-8.42058 13.65704,-8.41964 z"
             sodipodi:nodetypes="cccccccccccsscccccccccccccccccscccc" /><path
             id="rect5-2"
             style="fill:none;fill-opacity:1;stroke:#333333;stroke-width:30;stroke-linecap:round;stroke-linejoin:round;stroke-dasharray:none;stroke-opacity:1"
             d="m 261.50104,263.58542 v 25.00003 h 214.9998 v -25.00003 h -90.6446 v 3.50005 H 345.8561 v -3.50005 z" /></g><g
           id="g10"
           transform="matrix(0.8295967,-0.3436302,0.3436302,0.8295967,-125.59827,558.57851)"><rect
             style="fill:#7a7a7a;fill-opacity:1;stroke:#333333;stroke-width:7;stroke-linecap:round;stroke-linejoin:round;stroke-dasharray:none;stroke-opacity:1"
             id="rect9"
             width="45.324673"
             height="33.219322"
             x="304.60431"
             y="165.25206"
             ry="7.362556" /><path
             id="path1-0"
             style="fill:#c7a588;fill-opacity:1;stroke:#333333;stroke-width:7;stroke-linecap:butt;stroke-linejoin:round;stroke-dasharray:none;stroke-opacity:1"
             d="m 308.87624,65.000167 c -1.62096,4.6629 -0.82269,7.967149 4.2292,9.353951 37.01798,9.390918 -6.88092,54.382742 -17.84181,99.517442 -0.62892,4.36227 2.68127,10.19551 8.22224,10.12858 h 49.47915 c 3.85018,-1.04131 6.10666,-6.03572 8.50232,-9.22993 -4.44217,-9.67893 -2.93453,-16.57758 8.02116,-19.40448 -3.62899,-7.96727 -2.72834,-16.01854 7.38541,-18.91553 -3.74904,-6.8247 -0.25891,-11.4502 1.62082,-15.76144 h 51.88882 c 0.006,1e-5 0.0117,1e-5 0.0176,0 4.82379,-0.0147 8.86625,-2.37409 11.56053,-5.32629 2.6943,-2.95221 4.41301,-6.53225 4.42196,-10.65982 v -0.002 -0.002 -0.002 -0.002 -5.1e-4 -0.002 -0.002 -0.002 -0.002 -10e-4 V 82.7764 H 527.1446 L 527.02675,65.000167 Z M 405.2781,82.77996 h 27.1058 l -3e-4,19.89698 c -5e-4,0.23099 -0.41485,1.64205 -1.28519,2.59571 -0.87034,0.95366 -1.82507,1.41316 -2.73421,1.41593 l -44.1993,1.8e-4 c 2.78629,-6.00349 4.87646,-9.895132 7.45616,-15.489159 3.73011,-5.9367 7.73425,-8.420578 13.65704,-8.419641 z"
             sodipodi:nodetypes="cccccccccccsscccccccccccccccccscccc" /><path
             id="path1-5"
             style="fill:#333333;fill-opacity:0.1;stroke:none;stroke-width:7;stroke-linecap:butt;stroke-linejoin:round;stroke-dasharray:none;stroke-opacity:1"
             d="m 308.87624,65.00017 c -1.62096,4.6629 -0.82269,7.96716 4.2292,9.35396 37.01794,9.39091 -6.88093,54.38278 -17.84181,99.51744 -0.62891,4.36226 2.68128,10.19551 8.22224,10.12858 h 49.47915 c 3.85018,-1.04131 6.10667,-6.03572 8.50233,-9.22993 -4.44217,-9.67892 -2.93447,-16.5776 8.02121,-19.4045 -3.62899,-7.96726 -2.72814,-16.01866 7.3856,-18.91564 -3.74904,-6.8247 -0.25916,-11.45008 1.62057,-15.76132 h 51.88882 c 0.006,1e-5 0.0117,1e-5 0.0176,0 4.82379,-0.0147 8.86626,-2.37409 11.56054,-5.32629 2.69429,-2.9522 4.413,-6.53224 4.42195,-10.65981 v -0.002 -0.002 -0.002 -0.002 -5.1e-4 -0.002 -0.002 -0.002 -0.002 -0.001 -21.90874 h 80.76096 l -0.11782,-17.77618 z m 23.85901,10.00043 h 63.30828 c -5.18344,2.26006 -9.8466,6.04639 -12.88293,10.87892 -0.22842,0.36402 -0.43314,0.74239 -0.61289,1.13275 -2.34121,5.07686 -5.65023,10.99735 -8.6527,17.46663 -0.98961,2.43079 -0.98405,5.15318 0.0155,7.5799 -1.99865,0.99092 -3.60862,2.62162 -4.57388,4.63279 -0.55729,1.27818 -2.34794,4.0861 -3.45508,8.50233 -0.45726,1.82394 -0.58031,3.99577 -0.45321,6.2575 -3.24672,2.60013 -5.80067,5.8738 -6.95099,9.6175 -0.93847,3.0542 -1.06708,6.02368 -0.76585,8.88266 -3.30375,2.30749 -6.01409,5.309 -7.40213,9.14053 -1.80076,4.97077 -1.35112,9.77255 0.008,14.30093 -0.0999,0.14591 -0.32477,0.48336 -0.41599,0.6072 h -44.26965 c 5.32148,-19.70845 17.8272,-40.82333 25.7483,-59.3633 4.10944,-9.6185 7.4532,-18.68628 5.99808,-28.57397 -0.56305,-3.82597 -2.14548,-7.7399 -4.64261,-11.06237 z m 72.54286,7.77937 h 29.10571 v 21.89737 c -5e-4,0.23099 -0.41484,1.64205 -1.28519,2.59571 -0.87034,0.95366 -1.82506,1.41316 -2.7342,1.41593 h -47.40589 c 2.78629,-6.00348 6.08282,-11.89535 8.66252,-17.48937 3.73011,-5.9367 7.73425,-8.42058 13.65705,-8.41964 z"
             sodipodi:nodetypes="cccccccccccsscccccccccccccccccccccscscscccssccccscccc" /><rect
             style="fill:#333333;fill-opacity:0.15;stroke:#333333;stroke-width:7;stroke-linecap:round;stroke-linejoin:round;stroke-dasharray:none;stroke-opacity:1"
             id="rect1-2"
             width="72.032661"
             height="17.779999"
             x="455.11197"
             y="65" /><path
             style="fill:none;stroke:#333333;stroke-width:7;stroke-linecap:butt;stroke-linejoin:miter;stroke-dasharray:none;stroke-opacity:1"
             d="m 324.75916,104.1605 c 2.30371,-8.09307 30.24085,-5.166222 15.45964,23.57079 -10.25349,18.04097 -16.16789,31.50396 -23.0207,56.26885"
             id="path4-4"
             sodipodi:nodetypes="ccc" /><path
             style="fill:#333333;fill-opacity:0.15;stroke:none;stroke-width:0.264583px;stroke-linecap:butt;stroke-linejoin:miter;stroke-opacity:1"
             d="m 298.51164,182.17653 18.68647,1.82361 10.87522,-32.17947 12.14546,-24.08938 3.54941,-16.13604 -9.64875,-8.52059 -9.36029,1.08584 -28.14254,64.68029 z"
             id="path5-8" /><path
             id="rect5"
             style="fill:#aa8a70;fill-opacity:1;stroke:#333333;stroke-width:7;stroke-linecap:round;stroke-linejoin:round;stroke-dasharray:none;stroke-opacity:1"
             d="m 312.14477,40.000142 v 25.000025 h 214.9998 V 40.000142 h -90.6446 v 3.500045 h -40.00014 v -3.500045 z" /><rect
             style="fill:#7a7a7a;fill-opacity:1;stroke:#333333;stroke-width:7;stroke-linecap:round;stroke-linejoin:round;stroke-dasharray:none;stroke-opacity:1"
             id="rect6"
             width="40"
             height="12"
             x="396.49982"
             y="43.500187" /><rect
             style="fill:none;fill-opacity:1;stroke:#333333;stroke-width:7;stroke-linecap:round;stroke-linejoin:round;stroke-dasharray:none;stroke-opacity:1"
             id="rect7"
             width="10"
             height="24.999981"
             x="338.5"
             y="40.000187" /><rect
             style="fill:none;fill-opacity:1;stroke:#333333;stroke-width:7;stroke-linecap:round;stroke-linejoin:round;stroke-dasharray:none;stroke-opacity:1"
             id="rect7-0"
             width="10"
             height="24.999981"
             x="328.5"
             y="40.000187" /><rect
             style="fill:none;fill-opacity:1;stroke:#333333;stroke-width:7;stroke-linecap:round;stroke-linejoin:round;stroke-dasharray:none;stroke-opacity:1"
             id="rect7-3"
             width="10"
             height="24.999981"
             x="348.5"
             y="40.000187" /><rect
             style="fill:none;fill-opacity:1;stroke:#333333;stroke-width:7;stroke-linecap:round;stroke-linejoin:round;stroke-dasharray:none;stroke-opacity:1"
             id="rect7-4"
             width="10"
             height="24.999981"
             x="358.5"
             y="40.000187" /><rect
             style="fill:#333333;fill-opacity:0.15;stroke:#333333;stroke-width:0;stroke-linecap:round;stroke-linejoin:round;stroke-dasharray:none;stroke-opacity:1"
             id="rect8"
             width="12"
             height="12"
             x="396.49982"
             y="43.500187" /><rect
             style="fill:#333333;fill-opacity:0.15;stroke:#333333;stroke-width:0;stroke-linecap:round;stroke-linejoin:round;stroke-dasharray:none;stroke-opacity:1"
             id="rect8-2"
             width="12"
             height="12"
             x="304.60431"
             y="186.47137" /><rect
             style="fill:#333333;fill-opacity:0.15;stroke:#333333;stroke-width:0;stroke-linecap:round;stroke-linejoin:round;stroke-dasharray:none;stroke-opacity:1"
             id="rect8-2-2"
             width="12"
             height="12"
             x="337.92899"
             y="186.47137" /><rect
             style="fill:#333333;fill-opacity:0.15;stroke:#333333;stroke-width:0;stroke-linecap:round;stroke-linejoin:round;stroke-dasharray:none;stroke-opacity:1"
             id="rect8-1"
             width="16.095268"
             height="24.500011"
             x="312.14478"
             y="40.500156" /><rect
             style="fill:#333333;fill-opacity:0.15;stroke:#333333;stroke-width:0;stroke-linecap:round;stroke-linejoin:round;stroke-dasharray:none;stroke-opacity:1"
             id="rect8-1-3"
             width="16.095268"
             height="24.500011"
             x="511.04929"
             y="40.250149" /><rect
             style="fill:#333333;fill-opacity:0.15;stroke:#333333;stroke-width:0;stroke-linecap:round;stroke-linejoin:round;stroke-dasharray:none;stroke-opacity:1"
             id="rect8-1-3-1"
             width="16.095268"
             height="18.029842"
             x="511.04938"
             y="64.75016" /><rect
             style="fill:#333333;fill-opacity:0.15;stroke:#333333;stroke-width:0;stroke-linecap:round;stroke-linejoin:round;stroke-dasharray:none;stroke-opacity:1"
             id="rect8-1-3-1-0"
             width="16.095268"
             height="18.029842"
             x="455.11197"
             y="64.875076" /><rect
             style="fill:#333333;fill-opacity:0.15;stroke:#333333;stroke-width:0;stroke-linecap:round;stroke-linejoin:round;stroke-dasharray:none;stroke-opacity:1"
             id="rect8-0"
             width="12"
             height="12"
             x="424.49982"
             y="43.500187" /><rect
             style="fill:#7d7d7d;fill-opacity:1;stroke:#333333;stroke-width:7;stroke-linecap:round;stroke-linejoin:round;stroke-miterlimit:4;stroke-dasharray:none;stroke-dashoffset:831.496;stroke-opacity:1"
             id="rect47612-5-7-4"
             width="12"
             height="10"
             x="370.96509"
             y="-59.581116"
             transform="rotate(24.301195)" /></g></g></g></g></svg>
