<?xml version="1.0" encoding="UTF-8" standalone="no"?>
<!-- Created with Inkscape (http://www.inkscape.org/) -->

<svg
   width="300mm"
   height="300mm"
   viewBox="0 0 300 300"
   version="1.1"
   id="svg5"
   inkscape:version="1.3 (0e150ed6c4, 2023-07-21)"
   sodipodi:docname="smokeparticle.svg"
   xmlns:inkscape="http://www.inkscape.org/namespaces/inkscape"
   xmlns:sodipodi="http://sodipodi.sourceforge.net/DTD/sodipodi-0.dtd"
   xmlns="http://www.w3.org/2000/svg"
   xmlns:svg="http://www.w3.org/2000/svg">
  <sodipodi:namedview
     id="namedview7"
     pagecolor="#ffffff"
     bordercolor="#666666"
     borderopacity="1.0"
     inkscape:pageshadow="2"
     inkscape:pageopacity="0.0"
     inkscape:pagecheckerboard="0"
     inkscape:document-units="mm"
     showgrid="false"
     inkscape:zoom="0.6254197"
     inkscape:cx="895.39872"
     inkscape:cy="576.41293"
     inkscape:window-width="1920"
     inkscape:window-height="1009"
     inkscape:window-x="-8"
     inkscape:window-y="-8"
     inkscape:window-maximized="1"
     inkscape:current-layer="layer1"
     inkscape:showpageshadow="2"
     inkscape:deskcolor="#d1d1d1" />
  <defs
     id="defs2" />
  <g
     inkscape:label="Layer 1"
     inkscape:groupmode="layer"
     id="layer1">
    <path
       id="path2-9-0-3-2-51-7-0"
       style="fill:#333333;stroke:#333333;stroke-width:17;stroke-linejoin:round;stroke-dasharray:none;stroke-opacity:1;fill-opacity:1"
       d="m 152.93057,34.712979 a 50,50 0 0 0 -49.13654,41.254851 30,30 0 0 0 -8.576733,-1.2547 30,30 0 0 0 -29.99972,29.99971 30,30 0 0 0 29.99972,30.00024 30,30 0 0 0 24.451733,-12.731 50,50 0 0 0 33.26154,12.731 50,50 0 0 0 15.82074,-2.58486 20,20 0 0 0 16.54369,8.81084 20,20 0 0 0 19.99982,-19.99982 20,20 0 0 0 -0.0791,-1.73012 30,30 0 0 0 8.07083,1.13223 30,30 0 0 0 29.99971,-29.99972 30,30 0 0 0 -29.99971,-30.00024 30,30 0 0 0 -14.73244,3.95067 50,50 0 0 0 -45.62354,-29.579081 z M 92.479997,135.33475 a 9.999999,9.999999 0 0 0 -9.99991,9.9999 9.999999,9.999999 0 0 0 9.99991,10.00043 9.999999,9.999999 0 0 0 10.000423,-10.00043 9.999999,9.999999 0 0 0 -10.000423,-9.9999 z m 72.468963,7.67291 a 14.999999,14.999999 0 0 0 -15.00012,15.00012 14.999999,14.999999 0 0 0 15.00012,15.00012 14.999999,14.999999 0 0 0 15.00012,-15.00012 14.999999,14.999999 0 0 0 -15.00012,-15.00012 z m 75.90854,4.49792 a 20,20 0 0 0 -17.52348,10.46551 30,30 0 0 0 -10.04744,-1.73426 30,30 0 0 0 -30.00024,30.00024 30,30 0 0 0 30.00024,29.99972 30,30 0 0 0 29.92117,-28.89902 20,20 0 0 0 17.64957,-19.83186 20,20 0 0 0 -19.99982,-20.00033 z m -112.97708,7.40833 a 20,20 0 0 0 -20.00033,20.00033 20,20 0 0 0 1.01286,6.17689 30,30 0 0 0 -12.389943,24.19594 30,30 0 0 0 0.21859,3.05821 14.999999,14.999999 0 0 0 -9.2413,13.82086 14.999999,14.999999 0 0 0 15.000123,15.00012 14.999999,14.999999 0 0 0 11.0355,-4.87671 30,30 0 0 0 12.98732,2.99724 30,30 0 0 0 29.99972,-29.99972 30,30 0 0 0 -10.24382,-22.56555 20,20 0 0 0 1.62109,-7.80728 20,20 0 0 0 -19.99981,-20.00033 z M 54.1428,167.16588 a 14.999999,14.999999 0 0 0 -15.00012,15.00012 14.999999,14.999999 0 0 0 10.80296,14.3986 20,20 0 0 0 -0.80305,5.60173 20,20 0 0 0 20.000327,19.99981 20,20 0 0 0 19.99981,-19.99981 A 20,20 0 0 0 69.142917,182.166 14.999999,14.999999 0 0 0 54.1428,167.16588 Z m 117.36028,68.12091 a 14.999999,14.999999 0 0 0 -15.00012,15.00011 14.999999,14.999999 0 0 0 15.00012,15.00012 14.999999,14.999999 0 0 0 15.00012,-15.00012 14.999999,14.999999 0 0 0 -15.00012,-15.00011 z" />
    <g
       id="g2"
       transform="translate(-8.0074465,-24.473352)">
      <circle
         style="fill:#cccccc;fill-opacity:1;stroke:#819e47;stroke-width:0;stroke-linejoin:round;stroke-dasharray:none"
         id="path2-9-0-3-2-51-7"
         cx="110.4875"
         cy="246.63959"
         r="14.999999" />
      <circle
         style="fill:#cccccc;fill-opacity:1;stroke:#819e47;stroke-width:0;stroke-linejoin:round;stroke-dasharray:none"
         id="path2"
         cx="160.93785"
         cy="109.18646"
         r="50" />
      <circle
         style="fill:#bababa;fill-opacity:1;stroke:#819e47;stroke-width:0;stroke-linejoin:round;stroke-dasharray:none"
         id="path2-9"
         cx="103.22478"
         cy="129.18646"
         r="30" />
      <circle
         style="fill:#cccccc;fill-opacity:1;stroke:#819e47;stroke-width:0;stroke-linejoin:round;stroke-dasharray:none"
         id="path2-9-1"
         cx="221.29375"
         cy="114.81492"
         r="30" />
      <circle
         style="fill:#cccccc;fill-opacity:1;stroke:#819e47;stroke-width:0;stroke-linejoin:round;stroke-dasharray:none"
         id="path2-9-3"
         cx="221.29375"
         cy="210.71042"
         r="30" />
      <circle
         style="fill:#bababa;fill-opacity:1;stroke:#819e47;stroke-width:0;stroke-linejoin:round;stroke-dasharray:none"
         id="path2-9-3-5"
         cx="134.51041"
         cy="229.76042"
         r="30" />
      <circle
         style="fill:#cccccc;fill-opacity:1;stroke:#819e47;stroke-width:0;stroke-linejoin:round;stroke-dasharray:none"
         id="path2-9-0"
         cx="135.8875"
         cy="199.3875"
         r="20" />
      <circle
         style="fill:#bababa;fill-opacity:1;stroke:#819e47;stroke-width:0;stroke-linejoin:round;stroke-dasharray:none"
         id="path2-9-0-2"
         cx="193.30208"
         cy="145.41249"
         r="20" />
      <circle
         style="fill:#bababa;fill-opacity:1;stroke:#819e47;stroke-width:0;stroke-linejoin:round;stroke-dasharray:none"
         id="path2-9-0-21"
         cx="248.86458"
         cy="191.97916"
         r="20" />
      <circle
         style="fill:#cccccc;fill-opacity:1;stroke:#819e47;stroke-width:0;stroke-linejoin:round;stroke-dasharray:none"
         id="path2-9-0-3"
         cx="77.149994"
         cy="226.63959"
         r="20" />
      <circle
         style="fill:#cccccc;fill-opacity:1;stroke:#819e47;stroke-width:0;stroke-linejoin:round;stroke-dasharray:none"
         id="path2-9-0-3-2"
         cx="62.149994"
         cy="206.63959"
         r="14.999999" />
      <circle
         style="fill:#bababa;fill-opacity:1;stroke:#819e47;stroke-width:0;stroke-linejoin:round;stroke-dasharray:none"
         id="path2-9-0-3-2-5"
         cx="179.51041"
         cy="274.76044"
         r="14.999999" />
      <circle
         style="fill:#bababa;fill-opacity:1;stroke:#819e47;stroke-width:0;stroke-linejoin:round;stroke-dasharray:none"
         id="path2-9-0-3-2-5-8"
         cx="173.30208"
         cy="135.41249"
         r="9.999999" />
      <circle
         style="fill:#bababa;fill-opacity:1;stroke:#819e47;stroke-width:0;stroke-linejoin:round;stroke-dasharray:none"
         id="path2-9-0-3-2-5-8-6"
         cx="100.4875"
         cy="169.80833"
         r="9.999999" />
      <circle
         style="fill:#cccccc;fill-opacity:1;stroke:#819e47;stroke-width:0;stroke-linejoin:round;stroke-dasharray:none"
         id="path2-9-0-3-2-51"
         cx="172.95625"
         cy="182.48125"
         r="14.999999" />
    </g>
  </g>
</svg>
