<?xml version="1.0" encoding="UTF-8" standalone="no"?>
<!-- Created with Inkscape (http://www.inkscape.org/) -->

<svg
   width="100mm"
   height="100mm"
   viewBox="0 0 100 100"
   version="1.1"
   id="svg1"
   inkscape:version="1.3 (0e150ed, 2023-07-21)"
   sodipodi:docname="pose-scout.svg"
   xmlns:inkscape="http://www.inkscape.org/namespaces/inkscape"
   xmlns:sodipodi="http://sodipodi.sourceforge.net/DTD/sodipodi-0.dtd"
   xmlns="http://www.w3.org/2000/svg"
   xmlns:svg="http://www.w3.org/2000/svg">
  <sodipodi:namedview
     id="namedview1"
     pagecolor="#ffffff"
     bordercolor="#666666"
     borderopacity="1.0"
     inkscape:showpageshadow="2"
     inkscape:pageopacity="0.0"
     inkscape:pagecheckerboard="0"
     inkscape:deskcolor="#d1d1d1"
     inkscape:document-units="mm"
     inkscape:zoom="1.8670772"
     inkscape:cx="215.84538"
     inkscape:cy="266.72705"
     inkscape:window-width="1440"
     inkscape:window-height="765"
     inkscape:window-x="0"
     inkscape:window-y="25"
     inkscape:window-maximized="1"
     inkscape:current-layer="layer1" />
  <defs
     id="defs1">
    <rect
       x="0"
       y="-177.97614"
       width="882.46503"
       height="177.97614"
       id="rect1-0" />
  </defs>
  <g
     inkscape:label="Layer 1"
     inkscape:groupmode="layer"
     id="layer1">
    <circle
       style="fill:#3d73c5;fill-opacity:1;stroke:#333333;stroke-width:3;stroke-linecap:round;stroke-linejoin:round;stroke-dasharray:none"
       id="path2"
       cx="50"
       cy="58.5"
       r="20" />
    <g
       id="g6"
       transform="translate(0.12697538,3.8655939)"
       style="stroke-width:2.5;stroke-dasharray:none">
      <ellipse
         style="fill:#ececec;fill-opacity:1;stroke:#333333;stroke-width:2.5;stroke-linecap:round;stroke-linejoin:round;stroke-dasharray:none"
         id="path3"
         cx="61.25045"
         cy="49.068695"
         rx="2.8740857"
         ry="6.207993" />
      <ellipse
         style="fill:#ececec;fill-opacity:1;stroke:#333333;stroke-width:2.5;stroke-linecap:round;stroke-linejoin:round;stroke-dasharray:none"
         id="path3-0"
         cx="52.624535"
         cy="49.068695"
         rx="2.8740857"
         ry="6.207993" />
    </g>
    <g
       id="g2"
       transform="matrix(0.11593354,0.03967279,-0.03967279,0.11593354,50.958804,59.541634)">
      <path
         id="rect17-0-4-8"
         style="color:#000000;fill:#333333;stroke-linecap:round;stroke-linejoin:round;-inkscape-stroke:none"
         d="m 55.25486,-0.79375 -12.08402,5.2e-4 A 15.0015,15.0015 0 0 0 34.41117,2.47633 15.0015,15.0015 0 0 0 31.08889,1.58337 h -13.594 A 15.0015,15.0015 0 0 0 5.40725,8.18296 15.0015,15.0015 0 0 0 0.08303,6.75721 H -30.87994 A 15.0015,15.0015 0 0 0 -45.88006,21.75733 V 41.3923 a 15.0015,15.0015 0 0 0 6.4885,11.97653 h -108.97268 a 15.0015,15.0015 0 0 0 -14.04101,9.72448 c -3.0262,8.05568 -2.06541,12.272443 -1.85156,19.369363 0.21384,7.09692 0.8851,15.45205 1.84536,24.304457 1.91982,17.69828 4.94639,37.10153 8.16023,50.88268 1.97197,8.50901 8.70627,11.89509 13.58832,12.87105 4.88483,0.97651 10.83341,0.64141 16.21089,-4.82813 a 15.0015,15.0015 0 0 0 1.82211,-2.25361 c 0,0 5.8218,-8.82118 11.65821,-17.66249 0.20184,-0.30578 0.35491,-0.53635 0.55655,-0.84181 a 15.0015,15.0015 0 0 0 9.34,-1.70067 l 19.668051,-11.53366 h 24.097239 a 15.0015,15.0015 0 0 0 15.00012,-14.9996 v -9.16637 h 0.20102 a 15.0015,15.0015 0 0 0 13.89683,12.10934 l -28.24634,40.74428 0.092,-0.12867 c -3.73237,5.26529 -4.37089,10.13922 -2.93729,15.95665 1.43361,5.81741 7.34434,12.29496 14.01517,14.00018 a 15.0015,15.0015 0 0 0 0.32453,0.078 l 28.63442,6.64869 -0.5581,-0.14056 c 7.39459,2.01935 16.73062,-0.75883 21.36872,-6.70709 3.29525,-4.22606 5.15694,-10.46554 3.35742,-16.49822 l 14.42806,-24.65637 c 0.17877,-0.007 0.38051,-0.0172 0.47852,-0.0176 0.51771,-0.002 1.24701,-0.003 2.07791,-0.004 h 5.47874 12.38839 c 0.78453,4.60465 1.96635,9.23415 3.33623,14.06065 -0.53745,2.83266 -0.52804,5.78509 0.28887,8.68164 2.86661,10.16428 13.93553,16.36298 24.09982,13.49633 l 34.88676,-9.83971 c 10.16422,-2.86662 16.36247,-13.93553 13.49582,-24.09982 -0.74528,-2.64259 -2.06388,-4.99667 -3.75791,-7.01353 -1.47994,-3.76193 -2.13322,-6.37026 -2.39624,-9.01547 a 15.0015,15.0015 0 0 0 5.14439,-10.5761 v -5.83995 a 15.0015,15.0015 0 0 0 -2.08411,-6.65076 15.0015,15.0015 0 0 0 4.04317,0.12144 l 8.55451,-2.44326 h 17.2558 a 15.0015,15.0015 0 0 0 4.79919,7.20111 c -1.0977,15.17873 -0.58149,32.98801 1.53324,45.77499 a 15.0015,15.0015 0 0 0 14.79858,12.55324 h 12.68759 a 15.0015,15.0015 0 0 0 14.80272,-12.5765 c 2.0865,-12.73859 2.60777,-30.59976 1.52135,-45.7693 a 15.0015,15.0015 0 0 0 4.78111,-7.18354 h 16.34008 a 15.0015,15.0015 0 0 0 10.39833,-4.90823 h 20.56257 a 15.0015,15.0015 0 0 0 10.39834,-4.908217 h 38.34184 a 15.0015,15.0015 0 0 0 5.63273,1.509467 h 24.16597 A 15.0015,15.0015 0 0 0 341.32114,86.493513 V 72.90002 A 15.0015,15.0015 0 0 0 326.32102,57.8999 h -24.16597 a 15.0015,15.0015 0 0 0 -5.63273,1.50999 h -33.90801 l -0.17208,-10.27534 v -0.008 c -0.11786,-10.6965 -5.54557,-17.36887 -16.07034,-19.51354 -1.51739,-0.30938 -3.02093,-0.43177 -4.43952,-0.40617 a 15.0015,15.0015 0 0 0 -0.004,0 c -6.6e-4,10e-6 -0.001,-10e-6 -0.002,0 -6.34042,0.11653 -11.82814,3.05875 -15.54479,7.45277 a 15.0015,15.0015 0 0 0 -0.17208,0.20722 l -0.0408,0.0507 a 15.0015,15.0015 0 0 0 -0.16433,0.20308 l -3.42356,4.34961 a 15.0015,15.0015 0 0 0 -5.75986,-1.54254 h -81.56091 a 15.0015,15.0015 0 0 0 -13.10153,7.91218 l -1.36115,-0.38913 9.43766,-19.02933 A 15.0015,15.0015 0 0 0 116.7976,6.75761 H 91.59242 A 15.0015,15.0015 0 0 0 80.93002,1.58377 H 67.33654 a 15.0015,15.0015 0 0 0 -3.32435,0.89245 15.0015,15.0015 0 0 0 -8.7576,-3.26957 z M 43.04837,14.13712 h 12.0835 v 10.57093 h -0.0393 c -0.16047,-0.14169 -0.34696,-0.25119 -0.51728,-0.38137 0.23698,0.18108 0.47122,0.36474 0.68885,0.56792 -0.0612,-0.0572 -0.10724,-0.12902 -0.17002,-0.18448 H 67.2138 V 38.30309 H 55.09257 c 0.0618,-0.0546 0.10717,-0.12518 0.16744,-0.18139 -1.61719,1.50807 -3.77376,2.44688 -6.16965,2.44688 -2.39418,0 -4.54921,-0.93815 -6.16604,-2.44429 0.0593,0.0553 0.10354,0.12513 0.16434,0.1788 H 30.96588 V 49.74373 H 67.21431 V 16.51579 H 80.8078 v 8.19433 h 9.33896 v -3.02256 h 26.52913 L 106.9354,41.32358 H 90.14676 V 38.30309 H 80.8078 v 11.44064 8.89093 h 26.38857 v 35.806603 c -0.0272,7.156457 -7.33661,1.87217 -7.55199,11.020517 v 12.11812 l 3.02048,1.12552 v 5.8384 l -5.40742,0.9896 c -0.0346,12.37574 0.53725,16.14342 4.23695,25.49457 l -40.43991,10.40815 c -3.29486,-11.19056 -5.01325,-18.66398 -4.60282,-28.43289 l -4.62865,0.84698 0.001,0.0129 -38.27053,-0.0129 -22.03484,37.6592 c -1.34935,2.07376 0.58081,4.78666 1.1958,5.24826 1.90756,2.00012 -0.47289,6.95255 -5.77329,5.50509 l -28.6365,-6.64766 c -3.75326,-0.95942 -3.8407,-4.93898 -2.55695,-6.74998 l 30.63172,-44.18851 c 3.38102,-5.02397 2.90035,-8.31869 3.00861,-11.36727 l -5.2e-4,-5.1e-4 c 0.15466,-6.1674 -4.12577,-8.57384 -9.8888,-8.63875 h -7.47913 V 92.466193 h -9.06147 v 5.2e-4 h -20.39147 v 10.572477 h 5.2e-4 v 13.59348 h -28.170889 l -23.181531,13.59297 v -19.33267 l 14.592901,-6.07043 -14.593421,6.06992 v 7.53649 l -3.07526,1.22421 c -0.12475,0.17236 -23.41046,35.45468 -23.41046,35.45468 -1.25472,1.2762 -4.11197,0.72356 -4.49068,-0.91622 -5.93704,-25.4496 -12.10886,-76.881887 -8.72454,-85.89088 h 111.44437 v 24.165453 h 5.1e-4 V 68.30074 h 9.06147 l 17.36845,-9.66608 H 0.75844 V 49.74373 H 17.37241 V 38.30309 H -0.03893 v 3.02049 H -31.00138 V 21.68756 h 30.96245 v 3.02256 H 17.37241 V 16.51579 H 30.9659 v 8.19433 h 12.11967 c -0.0634,0.056 -0.10975,0.12879 -0.17156,0.18655 0.21652,-0.20229 0.45004,-0.38494 0.68575,-0.56534 -0.16816,0.12873 -0.35256,0.23677 -0.51108,0.37672 h -0.0403 z m 0.55139,10.19421 c 0.19839,-0.15189 0.39214,-0.30903 0.60306,-0.44442 -0.21161,0.13565 -0.40407,0.29211 -0.60306,0.44442 z m 0.60306,-0.44442 c 0.27248,-0.17467 0.5647,-0.3183 0.85628,-0.46353 -0.29198,0.14563 -0.58344,0.28841 -0.85628,0.46353 z m 0.85628,-0.46353 c 0.20987,-0.10469 0.41212,-0.22207 0.63097,-0.31058 -0.21951,0.0886 -0.42049,0.20573 -0.63097,0.31058 z m 0.63097,-0.31058 c 0.34681,-0.13994 0.71371,-0.23699 1.08055,-0.33383 -0.36724,0.0972 -0.73341,0.19342 -1.08055,0.33383 z m 1.08055,-0.33383 c 0.1874,-0.0496 0.36556,-0.12041 0.55759,-0.15813 -0.19234,0.0377 -0.36988,0.10858 -0.55759,0.15813 z m 0.55759,-0.15813 c 0.57034,-0.11167 1.15816,-0.17673 1.76217,-0.17673 0.60452,0 1.1924,0.0649 1.7632,0.17673 -0.57073,-0.1121 -1.15807,-0.17777 -1.76269,-0.17777 -0.60438,0 -1.1921,0.0657 -1.76268,0.17777 z m 3.52537,0 c 0.18677,0.0367 0.3602,0.10556 0.5426,0.15348 -0.18273,-0.0479 -0.35548,-0.11681 -0.5426,-0.15348 z m 0.5426,0.15348 c 0.37307,0.0978 0.74573,0.19713 1.09812,0.33951 -0.35265,-0.14275 -0.72473,-0.24141 -1.09812,-0.33951 z m 1.09812,0.33951 c 0.21368,0.0865 0.41086,0.20141 0.61599,0.30334 -0.20562,-0.10205 -0.40178,-0.21678 -0.61599,-0.30334 z m 0.61599,0.30334 c 0.2963,0.14707 0.59308,0.29334 0.86971,0.47078 -0.27712,-0.17797 -0.57287,-0.32327 -0.86971,-0.47078 z M 53.98,23.88795 c 0.20818,0.13369 0.39932,0.28893 0.59531,0.43873 C 54.37873,24.17647 54.18887,24.02192 53.98,23.88795 Z m -11.06599,1.00872 c -0.26366,0.24633 -0.4976,0.51708 -0.73019,0.79323 0.23208,-0.27535 0.46725,-0.54751 0.73019,-0.79323 z m -0.73019,0.79323 c -0.15837,0.1879 -0.32377,0.3658 -0.46664,0.56638 0.14232,-0.19986 0.30892,-0.37912 0.46664,-0.56638 z m -0.46664,0.56638 c -0.21529,0.30233 -0.39099,0.62899 -0.56844,0.95756 0.17721,-0.32778 0.35357,-0.65589 0.56844,-0.95756 z m -0.56844,0.95756 c -0.11317,0.20933 -0.24171,0.40634 -0.33848,0.62529 0.0965,-0.21839 0.2257,-0.41647 0.33848,-0.62529 z m -0.33848,0.62529 c -0.16425,0.37185 -0.27687,0.7673 -0.39067,1.16375 0.11378,-0.39589 0.22654,-0.7924 0.39067,-1.16375 z m -0.39067,1.16375 c -0.0582,0.20246 -0.1418,0.39238 -0.18604,0.60048 0.0441,-0.20775 0.12801,-0.39835 0.18604,-0.60048 z m -0.18604,0.60048 c -0.12617,0.5939 -0.19509,1.20867 -0.19947,1.8402 0.004,-0.63127 0.0733,-1.2466 0.19947,-1.8402 z m -0.19947,1.8402 c -1.5e-4,0.0216 -0.007,0.0414 -0.007,0.063 0,0.021 0.007,0.0401 0.007,0.061 -1.4e-4,-0.0209 -0.006,-0.0401 -0.006,-0.061 0,-0.0216 0.006,-0.0415 0.006,-0.063 z m 0,0.12402 c 0.004,0.63324 0.0738,1.24944 0.20051,1.84485 -0.12685,-0.59509 -0.19624,-1.21168 -0.20051,-1.84485 z m 0.20051,1.84485 c 0.0425,0.19944 0.12242,0.38143 0.17776,0.57568 -0.0551,-0.19399 -0.13539,-0.37654 -0.17776,-0.57568 z m 0.17776,0.57568 c 0.11537,0.40583 0.23183,0.80944 0.39998,1.18959 -0.16813,-0.3795 -0.28454,-0.78444 -0.39998,-1.18959 z m 0.39998,1.18959 c 0.0928,0.20955 0.21611,0.39819 0.32401,0.59893 -0.10743,-0.20028 -0.23155,-0.38989 -0.32401,-0.59893 z m 0.32401,0.59893 c 0.1823,0.33985 0.36489,0.67666 0.58756,0.98857 -0.22237,-0.31115 -0.40538,-0.64962 -0.58756,-0.98857 z m 0.58756,0.98857 c 0.13549,0.18958 0.29245,0.35763 0.44183,0.53588 -0.14875,-0.17775 -0.30688,-0.34685 -0.44183,-0.53588 z m 0.44183,0.53588 c 0.24066,0.28756 0.48442,0.56779 0.75861,0.82321 -0.27343,-0.25471 -0.51845,-0.53664 -0.75861,-0.82321 z m 38.64209,1.00201 V 24.71012 H 80.8073 V 38.30309 Z M 55.26003,38.1217 c 0.27074,-0.25247 0.51076,-0.53005 0.74879,-0.8139 -0.2375,0.28293 -0.47879,0.5621 -0.74879,0.8139 z m 0.74879,-0.8139 c 0.15198,-0.18106 0.31144,-0.3519 0.44906,-0.54467 -0.1371,0.19217 -0.29769,0.36416 -0.44906,0.54467 z m 0.44906,-0.54467 c 0.22142,-0.31034 0.403,-0.64541 0.58447,-0.9834 -0.18128,0.33716 -0.3634,0.67376 -0.58447,0.9834 z m 0.58447,-0.9834 c 0.10846,-0.20175 0.2323,-0.39139 0.32556,-0.60203 -0.0929,0.2101 -0.21751,0.40077 -0.32556,0.60203 z m 0.32556,-0.60203 c 0.16815,-0.38015 0.2846,-0.78376 0.39997,-1.18959 -0.11534,0.40515 -0.23196,0.81008 -0.39997,1.18959 z m 0.39997,-1.18959 c 0.0553,-0.19425 0.13529,-0.37625 0.17777,-0.57568 -0.0424,0.19914 -0.12262,0.38169 -0.17777,0.57568 z m 0.17777,-0.57568 c 0.13086,-0.61504 0.20671,-1.25065 0.20671,-1.90583 0,0.65512 -0.0758,1.29108 -0.20671,1.90583 z m 0.20671,-1.90583 c 0,-0.65517 -0.0758,-1.29079 -0.20671,-1.90582 0.13086,0.61471 0.20671,1.2509 0.20671,1.90582 z m -0.20671,-1.90582 c -0.0427,-0.20053 -0.12315,-0.38349 -0.1788,-0.57878 0.0555,0.19496 0.13621,0.37861 0.1788,0.57878 z M 57.76685,29.022 c -0.11505,-0.40419 -0.23049,-0.80675 -0.39791,-1.18546 0.16729,0.37822 0.28289,0.78181 0.39791,1.18546 z m -0.39791,-1.18546 c -0.0949,-0.21462 -0.22158,-0.40749 -0.33228,-0.61288 0.11034,0.2049 0.23763,0.39879 0.33228,0.61288 z m -0.33228,-0.61288 c -0.17923,-0.33284 -0.35714,-0.66348 -0.57516,-0.96945 0.21759,0.30531 0.39619,0.6374 0.57516,0.96945 z M 56.4615,26.25421 c -0.14098,-0.19782 -0.30436,-0.37314 -0.46043,-0.55862 0.15544,0.18485 0.31998,0.36151 0.46043,0.55862 z m -0.46043,-0.55862 c -0.23459,-0.27898 -0.47065,-0.55239 -0.73691,-0.80099 0.26553,0.24798 0.50284,0.52282 0.73691,0.80099 z m 186.08063,18.4397 c 0.3879,-0.007 0.77952,0.0263 1.17202,0.10645 2.0938,0.42666 4.04233,2.70048 4.06693,4.98575 l 0.34003,20.20548 v 4.908743 h 54.37291 V 72.83121 h 24.16597 v 13.593493 h -24.16597 v -1.5105 h -54.37291 v 4.90874 h -30.96245 v 4.90874 h -90.62186 l -10.57248,3.02101 v -3.776 h -8.30698 V 65.27974 h 8.30698 v -3.776 l 10.57248,3.02049 h 9.06198 v -9.66608 h 81.55988 v 9.66608 4.90874 h 2.93006 c 0.1203,-0.26984 0.27273,-0.52404 0.45423,-0.75706 l 17.58756,-22.34696 0.0419,-0.0517 c 1.0981,-1.29823 2.68916,-2.11126 4.36976,-2.14199 z m 9.56169,10.36629 h 1.57458 l 0.0269,1.46296 a 15.0015,15.0015 0 0 0 -1.21491,-0.32453 15.0015,15.0015 0 0 0 -0.38654,-1.13843 z m -13.455,5.09788 -7.42797,9.83351 h 7.61039 z m -78.88407,35.341513 h 27.18645 v 10.572487 h -27.18645 z m -293.31595,5.926767 c -2.09173,0 -3.776,1.68426 -3.776,3.776 0,2.09174 1.68427,3.776 3.776,3.776 h 5.0555 c -0.45249,-1.17559 -0.74827,-2.41453 -0.74827,-3.70727 0,-1.34241 0.30889,-2.63043 0.79478,-3.84473 z m 10.55233,0 c 0.48588,1.21429 0.79426,2.50233 0.79426,3.84473 0,1.22687 -0.34779,2.38551 -0.75396,3.51348 l 0.66405,-0.26355 a 15.0015,15.0015 0 0 0 -0.1385,0.45734 h 4.2907 c 2.09176,0 3.77599,-1.68426 3.77599,-3.776 0,-2.09174 -1.68423,-3.776 -3.77599,-3.776 z m 290.02571,5.01934 h 12.68708 c 2.2536,13.31226 2.2416,40.68738 0,54.3729 h -12.68708 c -2.2745,-13.75306 -2.2805,-40.90762 0,-54.3729 z M 22.27806,148.91959 h 0.0961 c -0.0801,0.004 -0.0342,0.002 -0.0977,0.006 z m 78.16732,3.03341 c 1.75249,0.21855 3.28306,1.45707 3.79408,3.26905 0.68138,2.41598 -0.71509,4.90949 -3.13107,5.59087 l -34.88779,9.8392 c -2.41598,0.68137 -4.90951,-0.71511 -5.59088,-3.13108 -0.68138,-2.41599 0.7151,-4.9095 3.13108,-5.59087 l 34.88779,-9.8392 c 0.604,-0.17034 1.21263,-0.21082 1.79679,-0.13797 z M 1.84055,164.82973 c 2.41456,1.81232 2.28227,2.11953 2.61947,2.62671 -0.27164,-0.32429 -0.46533,-0.6651 -0.76791,-0.98236 a 15.0015,15.0015 0 0 0 -1.85156,-1.64435 z" />
      <g
         id="g10"
         transform="translate(-164.5978,-10.306299)">
        <g
           id="g4"
           transform="rotate(2.9346295,2790.298,75.472699)">
          <rect
             style="fill:#828282;fill-opacity:1;stroke:#333333;stroke-width:7;stroke-linecap:round;stroke-dasharray:none;stroke-opacity:1"
             id="rect5-5"
             width="45.310951"
             height="9.062191"
             x="-167.836"
             y="363.13019"
             ry="4.5310955"
             transform="matrix(-0.94729639,0.32035847,0.32035847,0.94729639,0,0)" />
          <path
             style="fill:#333333;fill-opacity:0.1;stroke:none;stroke-width:0.264583px;stroke-linecap:butt;stroke-linejoin:miter;stroke-opacity:1"
             d="m 229.55645,294.39855 41.7279,-13.9093 3.27279,9.61378 -42.54611,14.52295 z"
             id="path15"
             sodipodi:nodetypes="ccccc" />
          <path
             style="fill:#333333;fill-opacity:0.1;stroke:none;stroke-width:0.264583px;stroke-linecap:butt;stroke-linejoin:miter;stroke-opacity:1"
             d="m 233.23833,303.39869 7.9774,-2.65913 4.50006,12.88656 -9.00015,2.45458 z"
             id="path16" />
          <path
             style="fill:#333333;fill-opacity:0.1;stroke:none;stroke-width:0.264583px;stroke-linecap:butt;stroke-linejoin:miter;stroke-opacity:1"
             d="m 278.62669,304.21797 -7.9774,2.65913 -4.50006,-12.88656 9.00015,-2.45458 z"
             id="path16-7" />
        </g>
        <path
           style="fill:#b89a80;fill-opacity:1;stroke:#333333;stroke-width:7;stroke-linecap:butt;stroke-linejoin:round;stroke-dasharray:none;stroke-opacity:1"
           d="m 178.17051,144.17358 -22.03523,37.65926 c -1.34936,2.07376 0.58056,4.78689 1.19555,5.24849 1.90756,2.00013 -0.47302,6.95246 -5.77343,5.50499 l -28.63619,-6.64768 c -3.75326,-0.95942 -3.84056,-4.93896 -2.55681,-6.74996 l 30.63153,-44.18824 c 3.38102,-5.02397 2.90048,-8.31892 3.00874,-11.3675 h 24.16584 z"
           id="path1-7-3"
           sodipodi:nodetypes="cccccccccc" />
        <path
           id="path3-3"
           style="fill:#b89a80;fill-opacity:1;stroke:#333333;stroke-width:7;stroke-linecap:butt;stroke-linejoin:round;stroke-dasharray:none;stroke-opacity:1"
           d="m 154.00464,68.958292 -17.36844,9.666077 v 36.369361 h 7.47861 c 5.76303,0.0649 10.04398,2.47135 9.88932,8.63874 h 24.16596 v 20.54139 h 8.06308 v -0.0155 h 30.20694 v 0.0155 l 0.0847,-0.0155 h 0.98443 V 143.978 l 49.77216,-9.11055 v -5.83841 l -3.02049,-1.12551 v -12.11812 c 0.21538,-9.14835 7.5248,-3.86406 7.552,-11.02052 V 68.958292 Z m 62.43547,75.215568 h -5.2e-4 -8.56227 c 2.75536,0 8.56279,0.0129 8.56279,0.0129 z m -30.20694,0 v 0.0129 c 0.25012,-0.0139 5.08146,-0.0129 8.56278,-0.0129 z m 9.75311,-26.81837 h 13.08137 c 4.74403,0 8.56227,3.81981 8.56227,8.56382 v 8.71094 h -30.20694 v -8.71094 c 0,-4.74401 3.81928,-8.56382 8.5633,-8.56382 z"
           sodipodi:nodetypes="ccccccccccccccccccccccccccccccsssccss" />
        <path
           style="fill:#828282;fill-opacity:1;stroke:#333333;stroke-width:7;stroke-linecap:butt;stroke-linejoin:round;stroke-dasharray:none;stroke-opacity:1"
           d="m 261.8741,135.85707 c -0.0346,12.37575 0.5369,16.14348 4.23661,25.49464 l -40.43996,10.40828 c -3.29487,-11.19057 -5.01316,-18.66437 -4.60273,-28.43329 z"
           id="path4-8"
           sodipodi:nodetypes="ccccc" />
        <path
           style="fill:none;stroke:#333333;stroke-width:7;stroke-linecap:round;stroke-dasharray:none;stroke-opacity:0.4"
           d="m 248.97256,139.23965 c -0.49373,5.16314 -0.12523,13.32669 2.55036,17.60731"
           id="path5-4"
           sodipodi:nodetypes="cc" />
        <path
           style="fill:none;stroke:#333333;stroke-width:7;stroke-linecap:round;stroke-dasharray:none;stroke-opacity:0.4"
           d="m 233.65046,143.75448 c -0.50805,6.08869 -0.23884,11.46362 2.20907,17.0956"
           id="path5-4-6"
           sodipodi:nodetypes="cc" />
        <rect
           style="fill:#828282;fill-opacity:1;stroke:#333333;stroke-width:7;stroke-linecap:round;stroke-linejoin:round;stroke-dasharray:none;stroke-opacity:1"
           id="rect6-2"
           width="135.17682"
           height="15.726109"
           x="-271.81308"
           y="78.624222"
           ry="0"
           transform="scale(-1,1)" />
        <rect
           style="fill:#6c6c6c;fill-opacity:1;stroke:#333333;stroke-width:7;stroke-linecap:round;stroke-linejoin:round;stroke-dasharray:none;stroke-opacity:1"
           id="rect8-7"
           width="36.248764"
           height="15.725921"
           x="-235.56442"
           y="78.624222"
           transform="scale(-1,1)" />
        <path
           id="path5-7-9"
           style="fill:#828282;fill-opacity:1;stroke:#333333;stroke-width:7;stroke-linecap:round;stroke-linejoin:round;stroke-dasharray:none;stroke-opacity:1"
           d="m 169.00559,103.53817 14.34995,0.0451 -10.6176,9.3844 -0.003,-0.0115 a 5.4534297,5.4534297 0 0 1 -3.72782,1.4891 5.4534297,5.4534297 0 0 1 -5.45366,-5.45366 5.4534297,5.4534297 0 0 1 5.45366,-5.45366 z" />
        <circle
           style="fill:#828282;fill-opacity:1;stroke:#333333;stroke-width:7;stroke-linecap:round;stroke-linejoin:round;stroke-dasharray:none;stroke-opacity:1"
           id="path9-8"
           cx="-232.71225"
           cy="114.80193"
           r="6.0414605"
           transform="scale(-1,1)" />
        <rect
           style="fill:#828282;fill-opacity:1;stroke:#333333;stroke-width:7;stroke-linecap:round;stroke-linejoin:round;stroke-dasharray:none;stroke-opacity:1"
           id="rect9-7"
           width="8.3070078"
           height="28.696938"
           x="-280.12009"
           y="75.603317"
           transform="scale(-1,1)" />
        <rect
           style="fill:#828282;fill-opacity:1;stroke:#333333;stroke-width:7;stroke-linecap:round;stroke-linejoin:round;stroke-dasharray:none;stroke-opacity:1"
           id="rect10-5"
           width="9.062191"
           height="24.165842"
           x="-136.6362"
           y="78.624222"
           transform="scale(-1,1)" />
        <path
           id="path11-8"
           style="fill:#b89a80;fill-opacity:1;stroke:#333333;stroke-width:7;stroke-linecap:butt;stroke-linejoin:round;stroke-dasharray:none;stroke-opacity:1"
           d="m 127.57455,78.624217 v 24.165923 h -20.39141 v 10.57269 H 74.71111 l -18.88038,7.85342 v 7.53654 l -3.07517,1.22383 c -0.12475,0.17236 -23.41041,35.45512 -23.41041,35.45512 -1.25472,1.2762 -4.1123,0.72347 -4.49101,-0.91631 C 18.9171,139.0658 12.74536,87.633216 16.12969,78.624216 Z M 46.01357,111.19148 H 30.60488 c -2.09173,0 -3.77606,1.68433 -3.77606,3.77607 0,2.09174 1.68433,3.77607 3.77606,3.77607 h 15.40869 c 2.09176,0 3.77609,-1.68433 3.77609,-3.77607 0,-2.09174 -1.68433,-3.77607 -3.77609,-3.77607 z"
           sodipodi:nodetypes="ccccccccccccsssssss" />
        <path
           style="fill:none;stroke:#333333;stroke-width:7;stroke-linecap:square;stroke-linejoin:miter;stroke-dasharray:none;stroke-opacity:1"
           d="M 107.18335,102.7899 H 18.07181"
           id="path13-4"
           sodipodi:nodetypes="cc" />
        <path
           style="fill:#828282;fill-opacity:1;stroke:#333333;stroke-width:7;stroke-linecap:butt;stroke-linejoin:round;stroke-dasharray:none;stroke-opacity:1"
           d="M 107.18356,113.36283 H 74.71072 l -18.87957,7.8539 v 19.33268 L 79.0126,126.95612 h 28.17096 z"
           id="path14-2-2"
           sodipodi:nodetypes="ccccccc" />
        <path
           id="rect117-5"
           style="fill:#828282;fill-opacity:1;stroke:#333333;stroke-width:7;stroke-linecap:square;stroke-linejoin:round;stroke-dasharray:none"
           d="m 290.69263,74.848137 -10.57259,-3.02073 v 36.248773 l 10.57259,-3.02073 z"
           sodipodi:nodetypes="ccccc" />
        <rect
           style="fill:#b89a80;fill-opacity:1;stroke:#333333;stroke-width:7;stroke-linecap:square;stroke-linejoin:round;stroke-dasharray:none;stroke-opacity:1"
           id="rect118-0"
           width="90.621902"
           height="30.207302"
           x="-381.31467"
           y="74.848129"
           transform="scale(-1,1)" />
        <rect
           style="fill:#828282;fill-opacity:1;stroke:#333333;stroke-width:7;stroke-linecap:square;stroke-linejoin:round;stroke-dasharray:none;stroke-opacity:1"
           id="rect119-7"
           width="81.559715"
           height="9.666337"
           x="-381.31467"
           y="65.181808"
           transform="scale(-1,1)" />
        <rect
           style="fill:#828282;fill-opacity:1;stroke:#333333;stroke-width:7;stroke-linecap:square;stroke-linejoin:round;stroke-dasharray:none;stroke-opacity:1"
           id="rect120-2"
           width="54.373142"
           height="10.572556"
           x="-466.65024"
           y="84.665512"
           ry="0"
           transform="scale(-1,1)" />
        <rect
           style="fill:#828282;fill-opacity:1;stroke:#333333;stroke-width:7;stroke-linecap:square;stroke-linejoin:round;stroke-dasharray:none;stroke-opacity:1"
           id="rect121-3"
           width="24.165842"
           height="13.593286"
           x="-490.81613"
           y="83.155136"
           transform="scale(-1,1)" />
        <rect
           style="fill:#b89a80;fill-opacity:1;stroke:#333333;stroke-width:7;stroke-linecap:round;stroke-linejoin:round;stroke-dasharray:none;stroke-opacity:1"
           id="rect122-9"
           width="30.962484"
           height="20.389927"
           x="-412.27707"
           y="79.756821"
           transform="scale(-1,1)" />
        <path
           id="path122-1-0"
           style="color:#000000;fill:#828282;fill-opacity:1;stroke:#333333;stroke-width:7;stroke-linecap:round;stroke-linejoin:round;stroke-dasharray:none;stroke-opacity:1"
           d="m 406.69803,54.459166 c 0.3879,-0.007 0.7798,0.026 1.1723,0.10615 2.0938,0.42666 4.0419,2.70059 4.0665,4.98586 l 0.3403,20.20565 h -9.2897 l -0.1828,-9.83374 -7.4276,9.83374 h -11.1326 c 0.1203,-0.26984 0.2728,-0.52407 0.4543,-0.75709 l 17.5878,-22.34735 0.042,-0.0515 c 1.0981,-1.29823 2.6887,-2.11098 4.3693,-2.14171 z"
           sodipodi:nodetypes="sccccccccccss" />
        <path
           id="rect15-0-3"
           style="fill:#828282;fill-opacity:1;stroke:#333333;stroke-width:7;stroke-linecap:round;stroke-linejoin:round;stroke-dasharray:none;stroke-opacity:1"
           d="m 219.74818,24.460836 v 10.571131 h -0.039 c -1.59646,-1.4096 -3.69517,-2.26502 -6.00207,-2.26502 -2.30663,0 -4.40571,0.85575 -6.00207,2.26502 h -0.0405 v -10.57113 z" />
        <rect
           style="fill:#828282;fill-opacity:1;stroke:#333333;stroke-width:7;stroke-linecap:round;stroke-linejoin:round;stroke-dasharray:none"
           id="rect1-8"
           width="80.049347"
           height="8.8912382"
           x="-245.42416"
           y="60.067242"
           transform="scale(-1,1)" />
        <path
           id="path14-3"
           style="fill:#828282;fill-opacity:1;stroke:#333333;stroke-width:7;stroke-linecap:butt;stroke-linejoin:round;stroke-dasharray:none;stroke-opacity:1"
           d="m 281.29238,32.011416 -9.74068,19.63589 h -16.78861 v -3.02055 h -9.33949 v -13.59323 h 9.33949 v -3.02211 z m -116.71482,0 v 3.02211 h 17.41143 v 13.59323 h -17.41143 v 3.02055 h -30.96255 v -19.63589 z m 67.25278,3.02211 v 13.59323 h -12.12119 c 1.8778,-1.65805 3.05957,-4.08308 3.05957,-6.79661 0,-2.71274 -1.18116,-5.13861 -3.05803,-6.79662 z m -24.12844,0 c -1.87672,1.65801 -3.05801,4.084 -3.05801,6.79662 0,2.71383 1.18292,5.13855 3.06112,6.79661 h -12.12277 v -13.59323 z" />
        <rect
           style="fill:#6f6f6f;fill-opacity:1;stroke:#333333;stroke-width:7;stroke-linecap:round;stroke-linejoin:round;stroke-dasharray:none;stroke-opacity:1"
           id="rect14-1"
           width="13.593286"
           height="33.228031"
           x="-245.42416"
           y="26.839212"
           transform="scale(-1,1)" />
        <rect
           style="fill:#6f6f6f;fill-opacity:1;stroke:#333333;stroke-width:7;stroke-linecap:round;stroke-linejoin:round;stroke-dasharray:none;stroke-opacity:1"
           id="rect14-4-0"
           width="13.593286"
           height="33.228031"
           x="-195.58212"
           y="26.839212"
           transform="scale(-1,1)" />
        <rect
           style="fill:#6f6f6f;fill-opacity:1;stroke:#333333;stroke-width:7;stroke-linecap:round;stroke-linejoin:round;stroke-dasharray:none;stroke-opacity:1"
           id="rect15-08"
           width="18.124382"
           height="18.124382"
           x="-222.76871"
           y="32.767162"
           ry="9.062191"
           transform="scale(-1,1)" />
        <rect
           style="fill:#828282;fill-opacity:1;stroke:#333333;stroke-width:7;stroke-linecap:round;stroke-linejoin:round;stroke-dasharray:none;stroke-opacity:1"
           id="rect16-0"
           width="27.186571"
           height="10.572556"
           x="-351.10727"
           y="105.26482"
           transform="scale(-1,1)" />
        <path
           id="rect17-0-4"
           style="fill:#b89a80;fill-opacity:1;stroke:#333333;stroke-width:7;stroke-linecap:round;stroke-linejoin:round;stroke-dasharray:none"
           d="m 343.86963,116.21062 h -12.687 c -2.2805,13.4653 -2.2745,40.62007 0,54.37315 h 12.687 c 2.2416,-13.68554 2.2536,-41.06087 0,-54.37315 z"
           sodipodi:nodetypes="ccccc" />
        <path
           id="rect17-0-4-1"
           style="fill:#828282;fill-opacity:1;stroke:#333333;stroke-width:7.00008;stroke-linecap:round;stroke-linejoin:round;stroke-dasharray:none"
           d="m 330.10733,159.79944 c 0.2772,4.0607 0.6572,7.77474 1.1524,10.79831 h 12.6871 c 0.5021,-3.0362 0.8871,-6.74728 1.1679,-10.79831 z" />
        <circle
           style="fill:#828282;fill-opacity:1;stroke:#333333;stroke-width:7;stroke-linecap:round;stroke-linejoin:round;stroke-dasharray:none;stroke-opacity:1"
           id="path9-3-0"
           cx="-318.34647"
           cy="90.05648"
           r="6.0414605"
           transform="scale(-1,1)" />
        <rect
           style="opacity:0.8;fill:#333333;fill-opacity:0.15;stroke-width:4;stroke-linecap:round;stroke-dasharray:none"
           id="rect7"
           width="111.44315"
           height="24.166565"
           x="16.129665"
           y="78.624222" />
        <path
           style="fill:#333333;fill-opacity:0.1;stroke:none;stroke-width:0.264583px;stroke-linecap:butt;stroke-linejoin:miter;stroke-opacity:1"
           d="m 123.433,174.8878 37.28608,6.62391 -2.41392,14.80225 -38.14847,-12.39458 z"
           id="path7" />
        <rect
           style="opacity:0.8;fill:#333333;fill-opacity:0.1;stroke:none;stroke-width:4;stroke-linecap:round;stroke-dasharray:none;stroke-opacity:0.4"
           id="rect9"
           width="14.862675"
           height="24.180367"
           x="112.71017"
           y="78.624222" />
        <path
           style="fill:#333333;fill-opacity:0.1;stroke:none;stroke-width:0.264583px;stroke-linecap:butt;stroke-linejoin:miter;stroke-opacity:1"
           d="m 28.57233,78.624219 c -5.88254,32.608981 6.68454,77.982011 6.68454,77.982011 L 24.4724,170.74754 12.52908,75.124217 Z"
           id="path9"
           sodipodi:nodetypes="ccccc" />
        <rect
           style="opacity:0.8;fill:#333333;fill-opacity:0.1;stroke:none;stroke-width:4;stroke-linecap:round;stroke-dasharray:none;stroke-opacity:0.4"
           id="rect10"
           width="9.3629837"
           height="20.094995"
           x="55.907925"
           y="117.28979" />
        <rect
           style="opacity:0.8;fill:#333333;fill-opacity:0.1;stroke:none;stroke-width:4;stroke-linecap:round;stroke-dasharray:none;stroke-opacity:0.4"
           id="rect11"
           width="10.275352"
           height="24.532696"
           x="96.985008"
           y="102.80458" />
        <rect
           style="opacity:0.8;fill:#333333;fill-opacity:0.1;stroke:none;stroke-width:4;stroke-linecap:round;stroke-dasharray:none;stroke-opacity:1"
           id="rect12"
           width="15.116412"
           height="15.711673"
           x="136.71341"
           y="78.638657" />
        <rect
           style="opacity:0.8;fill:#333333;fill-opacity:0.1;stroke:none;stroke-width:4;stroke-linecap:round;stroke-dasharray:none;stroke-opacity:1"
           id="rect12-6"
           width="15.116412"
           height="15.711673"
           x="184.69449"
           y="78.39238" />
        <rect
           style="opacity:0.8;fill:#333333;fill-opacity:0.1;stroke:none;stroke-width:4;stroke-linecap:round;stroke-dasharray:none;stroke-opacity:1"
           id="rect12-3"
           width="15.116412"
           height="15.711673"
           x="257.59811"
           y="78.631348" />
        <rect
           style="opacity:0.8;fill:#333333;fill-opacity:0.1;stroke:none;stroke-width:4;stroke-linecap:round;stroke-dasharray:none;stroke-opacity:1"
           id="rect12-4"
           width="15.116412"
           height="15.711673"
           x="235.56442"
           y="78.631348" />
        <rect
           style="opacity:0.8;fill:#333333;fill-opacity:0.1;stroke:none;stroke-width:4;stroke-linecap:round;stroke-dasharray:none;stroke-opacity:1"
           id="rect12-0"
           width="15.116412"
           height="15.711673"
           x="198.978"
           y="78.631439" />
        <rect
           style="opacity:0.8;fill:#333333;fill-opacity:0.1;stroke:none;stroke-width:4;stroke-linecap:round;stroke-dasharray:none;stroke-opacity:1"
           id="rect12-37"
           width="15.116412"
           height="15.711673"
           x="220.77267"
           y="78.631348" />
        <rect
           style="opacity:0.8;fill:#333333;fill-opacity:0.1;stroke:none;stroke-width:4;stroke-linecap:round;stroke-dasharray:none;stroke-opacity:1"
           id="rect13"
           width="135.17664"
           height="9.9499083"
           x="136.63626"
           y="94.350334" />
        <path
           style="fill:#333333;fill-opacity:0.1;stroke:none;stroke-width:0.264583px;stroke-linecap:butt;stroke-linejoin:miter;stroke-opacity:1"
           d="m 216.43946,132.19627 47.15042,-8.57495 2.44861,11.21211 -50.00342,10.05223 -37.88379,-0.72913 0.0192,-12.56211 z"
           id="path13"
           sodipodi:nodetypes="ccccccc" />
        <path
           style="fill:#333333;fill-opacity:0.1;stroke:none;stroke-width:0.264583px;stroke-linecap:butt;stroke-linejoin:miter;stroke-opacity:1"
           d="m 214.67728,144.4312 50.52351,-8.79559 -0.8182,10.43198 -49.09166,9.40923 z"
           id="path14"
           sodipodi:nodetypes="ccccc" />
        <path
           style="fill:#333333;fill-opacity:0.1;stroke:none;stroke-width:0.264583px;stroke-linecap:butt;stroke-linejoin:miter;stroke-opacity:1"
           d="m 280.19618,73.730344 10.49645,2.882053 v 5.523133 l -11.99224,-3.443835 z"
           id="path17" />
        <path
           style="fill:#333333;fill-opacity:0.1;stroke:none;stroke-width:0.264583px;stroke-linecap:butt;stroke-linejoin:miter;stroke-opacity:1"
           d="m 281.61583,105.54047 10.49645,-2.88206 v -5.523129 l -11.99224,3.443839 z"
           id="path17-8" />
        <rect
           style="opacity:0.8;fill:#333333;fill-opacity:0.1;stroke:none;stroke-width:4;stroke-linecap:round;stroke-dasharray:none;stroke-opacity:1"
           id="rect17"
           width="5.9858861"
           height="4.2934823"
           x="272.71451"
           y="78.631348" />
        <rect
           style="opacity:0.8;fill:#333333;fill-opacity:0.1;stroke:none;stroke-width:4;stroke-linecap:round;stroke-dasharray:none;stroke-opacity:1"
           id="rect18"
           width="5.8069768"
           height="6.4499125"
           x="273.42227"
           y="97.850334" />
        <rect
           style="opacity:0.8;fill:#333333;fill-opacity:0.1;stroke:none;stroke-width:4;stroke-linecap:round;stroke-dasharray:none;stroke-opacity:1"
           id="rect19"
           width="10.887325"
           height="30.206757"
           x="290.76889"
           y="74.862831" />
        <rect
           style="opacity:0.8;fill:#333333;fill-opacity:0.1;stroke:none;stroke-width:4.49497;stroke-linecap:round;stroke-dasharray:none;stroke-opacity:1"
           id="rect20"
           width="12.005946"
           height="46.453876"
           x="369.3085"
           y="65.181664" />
        <rect
           style="opacity:0.8;fill:#333333;fill-opacity:0.1;stroke:none;stroke-width:4;stroke-linecap:round;stroke-dasharray:none;stroke-opacity:1"
           id="rect21"
           width="15.57903"
           height="9.6811647"
           x="299.75516"
           y="65.181664" />
        <rect
           style="opacity:0.8;fill:#333333;fill-opacity:0.1;stroke:none;stroke-width:4;stroke-linecap:round;stroke-dasharray:none;stroke-opacity:1"
           id="rect22"
           width="8.77458"
           height="6.4645495"
           x="323.99796"
           y="106.965" />
        <rect
           style="opacity:0.8;fill:#333333;fill-opacity:0.1;stroke:none;stroke-width:4;stroke-linecap:round;stroke-dasharray:none;stroke-opacity:1"
           id="rect22-1"
           width="8.77458"
           height="6.4645495"
           x="341.99344"
           y="107.31882" />
        <rect
           style="opacity:0.8;fill:#333333;fill-opacity:0.1;stroke:none;stroke-width:4;stroke-linecap:round;stroke-dasharray:none;stroke-opacity:1"
           id="rect23"
           width="15.718673"
           height="8.7337551"
           x="329.22159"
           y="115.85173" />
        <rect
           style="opacity:0.8;fill:#333333;fill-opacity:0.1;stroke:none;stroke-width:4;stroke-linecap:round;stroke-dasharray:none;stroke-opacity:1"
           id="rect24"
           width="15.555167"
           height="7.3886847"
           x="329.9747"
           y="150.72525" />
        <rect
           style="opacity:0.8;fill:#333333;fill-opacity:0.1;stroke:none;stroke-width:4;stroke-linecap:round;stroke-dasharray:none;stroke-opacity:1"
           id="rect25"
           width="31.039539"
           height="18.507135"
           x="381.31467"
           y="81.653107" />
        <rect
           style="opacity:0.8;fill:#333333;fill-opacity:0.1;stroke:none;stroke-width:4;stroke-linecap:round;stroke-dasharray:none;stroke-opacity:1"
           id="rect26"
           width="9.0927429"
           height="22.473593"
           x="381.31442"
           y="79.756805" />
        <rect
           style="opacity:0.8;fill:#333333;fill-opacity:0.1;stroke:none;stroke-width:4;stroke-linecap:round;stroke-dasharray:none;stroke-opacity:1"
           id="rect27"
           width="9.0316019"
           height="20.403704"
           x="403.24527"
           y="79.756538" />
        <rect
           style="opacity:0.8;fill:#333333;fill-opacity:0.1;stroke:none;stroke-width:4;stroke-linecap:round;stroke-dasharray:none;stroke-opacity:1"
           id="rect28"
           width="10.527987"
           height="13.027367"
           x="412.35422"
           y="82.225067" />
        <rect
           style="opacity:0.8;fill:#333333;fill-opacity:0.1;stroke:none;stroke-width:4;stroke-linecap:round;stroke-dasharray:none;stroke-opacity:1"
           id="rect29"
           width="11.001622"
           height="17.093563"
           x="455.64816"
           y="83.154861" />
        <rect
           style="opacity:0.8;fill:#333333;fill-opacity:0.2;stroke:#333333;stroke-width:4;stroke-linecap:round;stroke-dasharray:none;stroke-opacity:1"
           id="rect30"
           width="24.165932"
           height="13.593225"
           x="466.72714"
           y="83.168694" />
        <rect
           style="opacity:0.8;fill:#333333;fill-opacity:0.1;stroke:none;stroke-width:4;stroke-linecap:round;stroke-dasharray:none;stroke-opacity:1"
           id="rect31"
           width="7.1943574"
           height="12.06833"
           x="466.72714"
           y="84.679756" />
        <rect
           style="opacity:0.8;fill:#333333;fill-opacity:0.1;stroke:none;stroke-width:4;stroke-linecap:round;stroke-dasharray:none;stroke-opacity:1"
           id="rect31-8"
           width="7.1943574"
           height="12.06833"
           x="483.62143"
           y="83.917305" />
        <rect
           style="fill:#333333;fill-opacity:0.1;stroke:none;stroke-width:4;stroke-linecap:round;stroke-dasharray:none;stroke-opacity:1"
           id="rect32"
           width="11.049758"
           height="8.8770638"
           x="165.45151"
           y="60.081402" />
        <rect
           style="fill:#333333;fill-opacity:0.1;stroke:none;stroke-width:4;stroke-linecap:round;stroke-dasharray:none;stroke-opacity:1"
           id="rect32-7"
           width="11.049758"
           height="8.8770638"
           x="233.53952"
           y="60.697231" />
        <rect
           style="fill:#333333;fill-opacity:0.1;stroke:none;stroke-width:4;stroke-linecap:round;stroke-dasharray:none;stroke-opacity:1"
           id="rect32-4"
           width="11.049758"
           height="8.8770638"
           x="260.00778"
           y="69.746971" />
        <rect
           style="fill:#333333;fill-opacity:0.1;stroke:none;stroke-width:4;stroke-linecap:round;stroke-dasharray:none;stroke-opacity:1"
           id="rect32-6"
           width="11.049758"
           height="8.8770638"
           x="149.55795"
           y="69.761589" />
        <rect
           style="fill:#333333;fill-opacity:0.1;stroke:none;stroke-width:4;stroke-linecap:round;stroke-dasharray:none;stroke-opacity:1"
           id="rect33"
           width="10.657641"
           height="20.756203"
           x="133.61398"
           y="32.011539" />
        <rect
           style="fill:#333333;fill-opacity:0.1;stroke:none;stroke-width:4;stroke-linecap:round;stroke-dasharray:none;stroke-opacity:1"
           id="rect34"
           width="9.5089779"
           height="15.524862"
           x="171.26163"
           y="35.49633" />
        <rect
           style="fill:#333333;fill-opacity:0.1;stroke:none;stroke-width:4;stroke-linecap:round;stroke-dasharray:none;stroke-opacity:1"
           id="rect35"
           width="7.9564919"
           height="15.136741"
           x="246.94534"
           y="34.137905" />
        <path
           style="fill:#333333;fill-opacity:0.1;stroke:none;stroke-width:0.264583px;stroke-linecap:butt;stroke-linejoin:miter;stroke-opacity:1"
           d="m 263.05238,49.662767 9.70303,-20.182321 9.31492,0.776246 -10.67334,21.928867 z"
           id="path35" />
        <rect
           style="fill:#333333;fill-opacity:0.1;stroke:none;stroke-width:4;stroke-linecap:round;stroke-dasharray:none;stroke-opacity:1"
           id="rect36"
           width="11.449586"
           height="8.5386744"
           x="182.71121"
           y="27.345776" />
        <rect
           style="fill:#333333;fill-opacity:0.1;stroke:none;stroke-width:4;stroke-linecap:round;stroke-dasharray:none;stroke-opacity:1"
           id="rect37"
           width="12.031768"
           height="8.926796"
           x="182.71121"
           y="50.633072" />
        <rect
           style="fill:#333333;fill-opacity:0.1;stroke:none;stroke-width:4;stroke-linecap:round;stroke-dasharray:none;stroke-opacity:1"
           id="rect38"
           width="12.41989"
           height="7.5683703"
           x="232.7789"
           y="27.927959" />
        <rect
           style="fill:#333333;fill-opacity:0.1;stroke:none;stroke-width:4;stroke-linecap:round;stroke-dasharray:none;stroke-opacity:1"
           id="rect39"
           width="12.225829"
           height="6.7921271"
           x="232.7789"
           y="51.215256" />
        <path
           id="rect8607-4"
           style="fill:#333333;fill-opacity:0.15;fill-rule:evenodd;stroke:#333333;stroke-width:0;stroke-linecap:round;stroke-linejoin:round;stroke-dashoffset:188.976"
           d="m 162.54476,137.90692 4.54191,3.06705 c 1.69199,1.14255 2.14728,3.43318 1.02084,5.13594 l -17.35356,26.23198 c -1.12644,1.70274 -3.39543,2.15373 -5.08742,1.01117 l -4.54192,-3.06704 c -1.69198,-1.14256 -2.14728,-3.43318 -1.02083,-5.13594 l 17.35356,-26.23198 c 1.12645,-1.70274 3.39542,-2.15373 5.08742,-1.01118 z" />
      </g>
    </g>
    <circle
       style="fill:#5890e5;fill-opacity:1;stroke:#333333;stroke-width:3;stroke-linecap:round;stroke-linejoin:round;stroke-dasharray:none"
       id="path1-5-3-6"
       cx="64.090378"
       cy="-60.019604"
       r="5"
       transform="rotate(104.93886)" />
    <circle
       style="fill:#5890e5;fill-opacity:1;stroke:#333333;stroke-width:3;stroke-linecap:round;stroke-linejoin:round;stroke-dasharray:none"
       id="path1-5-3"
       cx="104.00571"
       cy="17.752659"
       r="5"
       transform="rotate(42.100587)" />
  </g>
</svg>
