<?xml version="1.0" encoding="UTF-8" standalone="no"?>
<!-- Created with Inkscape (http://www.inkscape.org/) -->

<svg
   width="100mm"
   height="100mm"
   viewBox="0 0 100 100"
   version="1.1"
   id="svg1"
   inkscape:version="1.3 (0e150ed, 2023-07-21)"
   sodipodi:docname="gear-icon.svg"
   xmlns:inkscape="http://www.inkscape.org/namespaces/inkscape"
   xmlns:sodipodi="http://sodipodi.sourceforge.net/DTD/sodipodi-0.dtd"
   xmlns="http://www.w3.org/2000/svg"
   xmlns:svg="http://www.w3.org/2000/svg">
  <sodipodi:namedview
     id="namedview1"
     pagecolor="#ffffff"
     bordercolor="#000000"
     borderopacity="0.25"
     inkscape:showpageshadow="2"
     inkscape:pageopacity="0.0"
     inkscape:pagecheckerboard="0"
     inkscape:deskcolor="#d1d1d1"
     inkscape:document-units="mm"
     inkscape:zoom="0.32340772"
     inkscape:cx="94.308202"
     inkscape:cy="1.5460361"
     inkscape:window-width="1440"
     inkscape:window-height="784"
     inkscape:window-x="0"
     inkscape:window-y="25"
     inkscape:window-maximized="1"
     inkscape:current-layer="layer1"
     showguides="false" />
  <defs
     id="defs1" />
  <g
     inkscape:label="Layer 1"
     inkscape:groupmode="layer"
     id="layer1">
    <path
       id="path1"
       style="fill:#ffffff;fill-opacity:1;stroke-width:22.053;stroke-linejoin:round"
       d="m 33.735987,10.734821 a 42.5,42.5 0 0 0 -5.53563,2.792984 l 2.803944,10.196561 a 32.5,32.5 0 0 0 -7.32076,7.268811 L 13.626552,28.227557 A 42.5,42.5 0 0 0 8.8847332,39.675321 l 9.0669538,5.155776 a 32.5,32.5 0 0 0 0.03673,10.316385 l -9.1927449,5.227369 a 42.5,42.5 0 0 0 1.9393439,5.88922 42.5,42.5 0 0 0 2.792787,5.535153 l 10.19656,-2.803944 a 32.5,32.5 0 0 0 7.269009,7.321238 l -2.766098,10.057186 a 42.5,42.5 0 0 0 11.447764,4.741819 l 5.156731,-9.06735 a 32.5,32.5 0 0 0 10.315907,-0.03654 l 5.227172,9.192268 a 42.5,42.5 0 0 0 5.88922,-1.939344 42.5,42.5 0 0 0 5.535631,-2.792985 L 68.995478,76.275692 a 32.5,32.5 0 0 0 7.32076,-7.268812 l 10.057944,2.765226 a 42.5,42.5 0 0 0 4.741539,-11.447088 l -9.06735,-5.156731 a 32.5,32.5 0 0 0 -0.03673,-10.316385 l 9.192466,-5.226694 A 42.5,42.5 0 0 0 89.26476,33.735987 42.5,42.5 0 0 0 86.480287,28.197949 l -10.13324,2.786666 a 32.5,32.5 0 0 0 -7.331714,-7.33218 l 2.786093,-10.13315 A 42.5,42.5 0 0 0 60.379319,8.7880937 L 55.184363,17.923855 A 32.5,32.5 0 0 0 44.815704,17.92351 L 39.621089,8.788234 a 42.5,42.5 0 0 0 -5.885102,1.946587 z m 9.567096,23.097011 a 17.5,17.5 0 0 1 22.864666,9.47125 17.5,17.5 0 0 1 -9.470773,22.864469 17.5,17.5 0 0 1 -22.864946,-9.470575 17.5,17.5 0 0 1 9.471053,-22.865144 z" />
  </g>
</svg>
