<?xml version="1.0" encoding="UTF-8" standalone="no"?>
<!-- Created with Inkscape (http://www.inkscape.org/) -->

<svg
   width="300mm"
   height="300mm"
   viewBox="0 0 299.99999 300"
   version="1.1"
   id="svg5"
   inkscape:version="1.3 (0e150ed, 2023-07-21)"
   sodipodi:docname="discord_icon.svg"
   xml:space="preserve"
   inkscape:export-filename="discord_icon.png"
   inkscape:export-xdpi="171.04401"
   inkscape:export-ydpi="171.04401"
   xmlns:inkscape="http://www.inkscape.org/namespaces/inkscape"
   xmlns:sodipodi="http://sodipodi.sourceforge.net/DTD/sodipodi-0.dtd"
   xmlns:xlink="http://www.w3.org/1999/xlink"
   xmlns="http://www.w3.org/2000/svg"
   xmlns:svg="http://www.w3.org/2000/svg"><sodipodi:namedview
     id="namedview7"
     pagecolor="#ffffff"
     bordercolor="#666666"
     borderopacity="1.0"
     inkscape:pageshadow="2"
     inkscape:pageopacity="0.0"
     inkscape:pagecheckerboard="0"
     inkscape:document-units="mm"
     showgrid="false"
     inkscape:zoom="0.36170694"
     inkscape:cx="422.99437"
     inkscape:cy="487.9641"
     inkscape:window-width="1440"
     inkscape:window-height="784"
     inkscape:window-x="0"
     inkscape:window-y="25"
     inkscape:window-maximized="1"
     inkscape:current-layer="layer1"
     inkscape:showpageshadow="2"
     inkscape:deskcolor="#d1d1d1"
     showguides="false" /><defs
     id="defs2"><linearGradient
       id="linearGradient21"
       inkscape:collect="always"><stop
         style="stop-color:#cc5e5e;stop-opacity:1;"
         offset="0"
         id="stop20" /><stop
         style="stop-color:#ab3a3a;stop-opacity:1;"
         offset="1"
         id="stop21" /></linearGradient><rect
       x="1783.0042"
       y="166.20152"
       width="1049.0552"
       height="1211.3486"
       id="rect20" /><rect
       x="1283.1631"
       y="481.82739"
       width="926.0528"
       height="418.74716"
       id="rect19" /><rect
       x="1250.9224"
       y="452.13235"
       width="771.67291"
       height="605.0589"
       id="rect18" /><rect
       x="1275.3193"
       y="1210.9402"
       width="787.87756"
       height="758.80786"
       id="rect17" /><rect
       x="1503.431"
       y="183.71101"
       width="1061.0249"
       height="330.10703"
       id="rect15" /><rect
       x="91.149284"
       y="-820.34357"
       width="2557.5417"
       height="546.89575"
       id="rect3" /><linearGradient
       id="linearGradient2"
       inkscape:collect="always"><stop
         style="stop-color:#5ea0cc;stop-opacity:1;"
         offset="0"
         id="stop2" /><stop
         style="stop-color:#3a7dab;stop-opacity:1;"
         offset="1"
         id="stop3" /></linearGradient><rect
       x="418.716"
       y="1322.8346"
       width="1911.4359"
       height="379.89041"
       id="rect2" /><rect
       x="446.43756"
       y="755.54834"
       width="1154.5051"
       height="437.73334"
       id="rect14" /><clipPath
       clipPathUnits="userSpaceOnUse"
       id="clipPath54"><path
         id="path54"
         style="stroke-width:0.0999999;stroke-linecap:square;paint-order:markers fill stroke;stop-color:#000000"
         d="m 1691.1994,-792.32001 h 1634.8919 v 92.82806 H 1691.1994 Z" /></clipPath><clipPath
       clipPathUnits="userSpaceOnUse"
       id="clipPath15"><rect
         style="fill:none;stroke:#000000;stroke-linecap:butt;stroke-linejoin:bevel;paint-order:stroke markers fill;stop-color:#000000"
         id="rect15-7"
         width="45.034248"
         height="38.955639"
         x="262.48285"
         y="121.00073" /></clipPath><inkscape:path-effect
       effect="fill_between_many"
       method="originald"
       linkedpaths="#path34,0,1"
       id="path-effect34"
       is_visible="true"
       lpeversion="0"
       join="true"
       close="true"
       autoreverse="true" /><clipPath
       clipPathUnits="userSpaceOnUse"
       id="clipPath18"><path
         id="path18"
         style="display:block;fill:#7c7c7c;fill-opacity:1;stroke:none;stroke-width:2;stroke-linecap:butt;stroke-linejoin:round;stroke-dasharray:none;stroke-opacity:1"
         d="m 153.59913,-83.812388 -3.61735,3.154844 -2.40761,-0.0088 c -1.34656,-0.204305 -2.29712,-1.317812 -3.31246,-2.14612 h -13.35319 v 2.200381 H 112.76803 81.208197 v -1.308962 l -3.028754,-1.804025 c -0.730348,-0.09707 -0.90537,0.08005 -0.971,0.866095 v 2.246892 h -2.300118 v 6.340697 l 4.014743,7.959204 h 7.185091 29.447811 c 1.76143,1.117558 3.44887,2.326802 4.88808,3.848346 1.66435,1.957232 2.16168,5.662877 1.11414,8.841838 0.23521,0.294005 0.40656,0.472813 0.79065,0.574641 h 10.53114 c 1.63957,0.0013 2.88577,-1.311839 4.5806,0.291454 1.89445,1.269701 3.39776,10.078691 3.99252,16.436724 0.12464,0.566679 -0.41557,1.525915 -0.59118,2.054138 l -0.96066,2.69286 c 1.47419,1.697225 23.54263,1.423702 24.28895,-0.243396 l 5.3e-4,-2.545582 c 0.008,-2.298944 0.28081,-4.561536 -0.81442,-6.179468 -3.04458,-4.470765 -4.09201,-9.834113 -5.53196,-14.965495 -0.63051,-2.868401 -0.22576,-4.766924 0.8108,-6.023404 2.02891,-2.459384 6.47909,-2.459281 10.32857,-2.459281 1.29315,0.0085 1.65041,0.129876 2.26911,-0.077 0.51498,-0.172194 0.86447,-0.634709 0.85576,-1.131197 -0.008,-0.447802 -0.32033,-0.93013 -0.83199,-1.131713 -0.34693,-0.136687 -1.80546,-0.164412 -2.31562,-0.178284 -3.15248,-0.12092 -4.91266,-0.383641 -5.98103,-1.396815 -0.44827,-0.445749 -0.61998,-0.905423 -0.79013,-1.488797 l -0.34468,-1.440739 c 0.60127,-2.004748 1.22422,-4.08211 2.81895,-5.553149 0.68691,-1.668251 -0.6656,-1.742456 -0.90279,-1.717725 -1.42483,0.545679 -2.85843,1.023125 -4.40955,1.033529 l -3.54294,-3.565158 -0.80046,-0.0031 v -3.173447 z"
         sodipodi:nodetypes="cccccccccccccccccccccccccccccscscsccccccccccc" /></clipPath><inkscape:path-effect
       effect="powerclip"
       id="path-effect18"
       is_visible="true"
       lpeversion="1"
       inverse="true"
       flatten="false"
       hide_clip="false"
       message="Use fill-rule evenodd on &lt;b&gt;fill and stroke&lt;/b&gt; dialogue if no flatten result after convert clip to paths." /><rect
       x="418.716"
       y="1322.8346"
       width="1911.4359"
       height="379.89041"
       id="rect2-1" /><radialGradient
       inkscape:collect="always"
       xlink:href="#linearGradient2"
       id="radialGradient3"
       cx="197.71016"
       cy="491.04166"
       fx="197.71016"
       fy="491.04166"
       r="300"
       gradientTransform="matrix(0.10926082,-0.50322279,0.27334594,0.17441475,-11.472934,167.61817)"
       gradientUnits="userSpaceOnUse" /><rect
       x="91.149284"
       y="-820.34357"
       width="2557.5417"
       height="546.89575"
       id="rect3-3" /><rect
       x="91.149284"
       y="-820.34357"
       width="2557.5417"
       height="546.89575"
       id="rect3-0" /><rect
       x="91.149284"
       y="-820.34357"
       width="2557.5417"
       height="546.89575"
       id="rect3-00" /><rect
       x="1503.431"
       y="183.71101"
       width="1061.0249"
       height="330.10703"
       id="rect15-6" /><rect
       x="1283.1631"
       y="481.82739"
       width="926.0528"
       height="418.74716"
       id="rect19-7" /><radialGradient
       inkscape:collect="always"
       xlink:href="#linearGradient21"
       id="radialGradient3-0"
       cx="197.71045"
       cy="491.04166"
       fx="197.71045"
       fy="491.04166"
       r="300"
       gradientTransform="matrix(0.10926082,-0.50322279,0.27334594,0.17441475,-11.472972,167.61831)"
       gradientUnits="userSpaceOnUse" /></defs><g
     inkscape:label="Layer 1"
     inkscape:groupmode="layer"
     id="layer1"><rect
       style="fill:url(#radialGradient3);fill-opacity:1;stroke-width:11.4564;stroke-linecap:round;stroke-linejoin:round;stroke-opacity:0.15"
       id="rect1"
       width="300"
       height="299.99997"
       x="0"
       y="0" /><path
       id="rect1-8"
       style="fill:url(#radialGradient3-0);fill-opacity:1;stroke-width:11.4564;stroke-linecap:round;stroke-linejoin:round;stroke-opacity:0.15"
       d="M 180.28625,0 113.47776,118.03456 175.2288,189.50707 113.38881,300 H 300 V 1.5e-4 Z"
       sodipodi:nodetypes="ccccccc" /><text
       xml:space="preserve"
       transform="scale(0.26458333)"
       id="text12"
       style="font-style:normal;font-weight:normal;font-size:40px;line-height:1.25;font-family:sans-serif;white-space:pre;shape-inside:url(#rect14);display:inline;fill:#000000;fill-opacity:1;stroke:none" /><text
       xml:space="preserve"
       transform="scale(0.26458333)"
       id="text16"
       style="font-style:normal;font-weight:normal;font-size:40px;line-height:1.25;font-family:sans-serif;white-space:pre;shape-inside:url(#rect17);display:inline;fill:#000000;fill-opacity:1;stroke:none" /><text
       xml:space="preserve"
       transform="matrix(0.26458333,0,-0.06596803,0.26458333,-333.2549,-42.141193)"
       id="text19"
       style="font-style:normal;font-variant:normal;font-weight:normal;font-stretch:normal;font-size:1066.67px;line-height:1.25;font-family:'Bebas Neue';-inkscape-font-specification:'Bebas Neue';white-space:pre;shape-inside:url(#rect20);display:inline;fill:#f0f0f0;fill-opacity:1;stroke:none"><tspan
         x="1783.0039"
         y="1099.5375"
         id="tspan1">R</tspan></text></g></svg>
