<?xml version="1.0" encoding="UTF-8" standalone="no"?>
<!-- Created with Inkscape (http://www.inkscape.org/) -->

<svg
   width="100mm"
   height="100mm"
   viewBox="0 0 100 100"
   version="1.1"
   id="svg5"
   inkscape:version="1.3 (0e150ed, 2023-07-21)"
   sodipodi:docname="smokeparticle.svg"
   xmlns:inkscape="http://www.inkscape.org/namespaces/inkscape"
   xmlns:sodipodi="http://sodipodi.sourceforge.net/DTD/sodipodi-0.dtd"
   xmlns="http://www.w3.org/2000/svg"
   xmlns:svg="http://www.w3.org/2000/svg">
  <sodipodi:namedview
     id="namedview7"
     pagecolor="#ffffff"
     bordercolor="#666666"
     borderopacity="1.0"
     inkscape:pageshadow="2"
     inkscape:pageopacity="0.0"
     inkscape:pagecheckerboard="0"
     inkscape:document-units="mm"
     showgrid="false"
     inkscape:zoom="0.88447702"
     inkscape:cx="105.14688"
     inkscape:cy="204.6407"
     inkscape:window-width="1440"
     inkscape:window-height="777"
     inkscape:window-x="0"
     inkscape:window-y="25"
     inkscape:window-maximized="1"
     inkscape:current-layer="layer1"
     inkscape:showpageshadow="2"
     inkscape:deskcolor="#d1d1d1" />
  <defs
     id="defs2" />
  <g
     inkscape:label="Layer 1"
     inkscape:groupmode="layer"
     id="layer1">
    <path
       id="path1-1"
       style="fill:#cccccc;stroke:#333333;stroke-width:17;stroke-linecap:round;stroke-linejoin:round;stroke-dasharray:none"
       d="m 48.571664,39.715873 a 8.5714283,8.5714283 0 0 0 -8.57157,8.57157 8.5714283,8.5714283 0 0 0 8.57157,8.571053 8.5714283,8.5714283 0 0 0 0.471806,-0.03359 5.7142854,5.7142854 0 0 0 5.242574,3.459221 5.7142854,5.7142854 0 0 0 5.713863,-5.71438 5.7142854,5.7142854 0 0 0 -2.956925,-5.003312 8.5714283,8.5714283 0 0 0 0.09973,-1.278992 8.5714283,8.5714283 0 0 0 -8.571053,-8.57157 z" />
    <g
       id="g1"
       transform="matrix(0.57142856,0,0,0.57142856,24.008892,30.627932)">
      <circle
         style="fill:#cccccc;stroke:#333333;stroke-width:0;stroke-linecap:round;stroke-linejoin:round;stroke-dasharray:none"
         id="path1"
         cx="42.98444"
         cy="30.903847"
         r="15" />
      <circle
         style="fill:#bababa;fill-opacity:1;stroke:#333333;stroke-width:0;stroke-linecap:round;stroke-linejoin:round;stroke-dasharray:none"
         id="path1-4"
         cx="52.98444"
         cy="41.898392"
         r="10" />
    </g>
  </g>
</svg>
