<?xml version="1.0" encoding="UTF-8" standalone="no"?>
<!-- Created with Inkscape (http://www.inkscape.org/) -->

<svg
   width="2000mm"
   height="2000mm"
   viewBox="0 0 2000 2000"
   version="1.1"
   id="svg5"
   inkscape:version="1.3 (0e150ed, 2023-07-21)"
   sodipodi:docname="vision-cone.svg"
   xmlns:inkscape="http://www.inkscape.org/namespaces/inkscape"
   xmlns:sodipodi="http://sodipodi.sourceforge.net/DTD/sodipodi-0.dtd"
   xmlns="http://www.w3.org/2000/svg"
   xmlns:svg="http://www.w3.org/2000/svg">
  <sodipodi:namedview
     id="namedview7"
     pagecolor="#ffffff"
     bordercolor="#666666"
     borderopacity="1.0"
     inkscape:pageshadow="2"
     inkscape:pageopacity="0.0"
     inkscape:pagecheckerboard="0"
     inkscape:document-units="mm"
     showgrid="false"
     inkscape:zoom="0.041518122"
     inkscape:cx="1083.8641"
     inkscape:cy="3913.9535"
     inkscape:window-width="1440"
     inkscape:window-height="784"
     inkscape:window-x="0"
     inkscape:window-y="25"
     inkscape:window-maximized="1"
     inkscape:current-layer="layer1"
     inkscape:showpageshadow="2"
     inkscape:deskcolor="#d1d1d1" />
  <defs
     id="defs2" />
  <g
     inkscape:label="Layer 1"
     inkscape:groupmode="layer"
     id="layer1">
    <path
       id="path1"
       style="fill:#ffffff;fill-opacity:1;stroke-width:15;stroke-linecap:round"
       d="M 292.89311,292.89337 A 1000,1000 0 0 0 76.120344,1382.6832 1000,1000 0 0 0 999.9999,2000 1000,1000 0 0 0 1923.8794,1382.6832 1000,1000 0 0 0 1707.1066,292.89337 l -583.3634,583.36284 a 175,175 0 0 1 0,5.2e-4 175,175 0 0 1 51.2563,123.74337 175,175 0 0 1 -174.9996,174.9996 175,175 0 0 1 -175.0002,-174.9996 175,175 0 0 1 51.5715,-123.42866 z" />
  </g>
</svg>
