<?xml version="1.0" encoding="UTF-8" standalone="no"?>
<!-- Created with Inkscape (http://www.inkscape.org/) -->

<svg
   width="334.59698mm"
   height="250mm"
   viewBox="0 0 334.59698 250"
   version="1.1"
   id="svg5"
   inkscape:version="1.3 (0e150ed, 2023-07-21)"
   sodipodi:docname="509_loot.svg"
   xml:space="preserve"
   xmlns:inkscape="http://www.inkscape.org/namespaces/inkscape"
   xmlns:sodipodi="http://sodipodi.sourceforge.net/DTD/sodipodi-0.dtd"
   xmlns="http://www.w3.org/2000/svg"
   xmlns:svg="http://www.w3.org/2000/svg"><sodipodi:namedview
     id="namedview7"
     pagecolor="#ffffff"
     bordercolor="#666666"
     borderopacity="1.0"
     inkscape:pageshadow="2"
     inkscape:pageopacity="0.0"
     inkscape:pagecheckerboard="0"
     inkscape:document-units="mm"
     showgrid="false"
     inkscape:zoom="0.23796103"
     inkscape:cx="579.9269"
     inkscape:cy="899.30693"
     inkscape:window-width="1440"
     inkscape:window-height="765"
     inkscape:window-x="0"
     inkscape:window-y="25"
     inkscape:window-maximized="1"
     inkscape:current-layer="layer1"
     inkscape:showpageshadow="2"
     inkscape:deskcolor="#d1d1d1" /><defs
     id="defs2"><rect
       x="0"
       y="-177.97613"
       width="882.465"
       height="177.97613"
       id="rect1" /><clipPath
       clipPathUnits="userSpaceOnUse"
       id="clipPath54"><path
         id="path54"
         style="stroke-width:0.0999999;stroke-linecap:square;paint-order:markers fill stroke;stop-color:#000000"
         d="m 1691.1994,-792.32001 h 1634.8919 v 92.82806 H 1691.1994 Z" /></clipPath><clipPath
       clipPathUnits="userSpaceOnUse"
       id="clipPath15"><rect
         style="fill:none;stroke:#000000;stroke-linecap:butt;stroke-linejoin:bevel;paint-order:stroke markers fill;stop-color:#000000"
         id="rect15-7"
         width="45.034248"
         height="38.955639"
         x="262.48285"
         y="121.00073" /></clipPath><inkscape:path-effect
       effect="fill_between_many"
       method="originald"
       linkedpaths="#path34,0,1|"
       id="path-effect34" /><rect
       x="0"
       y="-177.97614"
       width="882.46503"
       height="177.97614"
       id="rect1-8" /></defs><g
     inkscape:label="Layer 1"
     inkscape:groupmode="layer"
     id="layer1"><g
       id="g2"><path
         id="path1441-9-4"
         style="fill:#c7a588;fill-opacity:1;stroke:#333333;stroke-width:7;stroke-linecap:butt;stroke-linejoin:round;stroke-miterlimit:4;stroke-dasharray:none;stroke-opacity:1"
         d="m 18.239119,94.147026 -2.80913,7.069854 c 0.6301,1.05017 1.12394,1.75671 2.44636,1.99368 4.10074,-0.0911 8.63798,-0.0268 11.23756,1.90324 4.44792,3.72893 5.51614,7.86731 4.71238,15.31483 -0.16594,0.9602 -0.2185,2.17648 -1.69499,4.16873 0,0 -6.50189,9.46321 -9.90482,17.30903 -3.79862,8.81774 -10.48135,23.27712 -4.89376,35.16168 l 6.73861,2.42362 1.7818,-6.50037 37.84937,-0.38603 c 0,0 2.70294,1.49272 3.85919,-1.35082 l 6.75907,-23.3777 h 38.380811 c 0.0215,1.4e-4 0.0431,1.4e-4 0.0646,0 3.25873,-0.0417 7.37403,-0.1614 12.3162,-3.62083 5.16997,-3.61889 4.98121,-9.78992 5.00759,-13.13874 5e-5,-0.0131 5e-5,-0.0262 0,-0.0393 v -20.76669 l 55.37462,0.0658 1.49499,-2.55643 5.2e-4,-13.673594 z m 76.24186,16.230024 h 21.392491 v 20.72793 c -0.0114,1.44923 -0.13187,1.21717 -0.17363,1.25005 -0.0416,0.0328 -0.94261,0.491 -3.05098,0.52142 H 78.055109 l 3.37809,-12.35584 c 1.26823,-3.22146 1.99766,-4.85095 4.34185,-6.85022 1.99546,-1.52251 4.58984,-3.20574 8.70593,-3.29334 z"
         sodipodi:nodetypes="cccccccccccccccsccccccccccsccccc" /><path
         style="fill:#a98e77;fill-opacity:1;stroke:#333333;stroke-width:7;stroke-linecap:butt;stroke-linejoin:round;stroke-miterlimit:4;stroke-dasharray:none;stroke-opacity:1"
         d="m 24.071529,179.49169 33.90578,11.57496 c 3.00621,0.70729 5.37663,0.94131 7.60231,-0.33052 l 0.11018,-0.22037 -2.31375,-3.63588 4.18577,-15.62542 c -1.15183,1.59404 -2.21903,1.43133 -3.85935,1.35078 l -37.84944,0.38595 z"
         id="path4942-4-8"
         sodipodi:nodetypes="ccccccccc" /><path
         style="fill:#7d7d7d;fill-opacity:1;stroke:#333333;stroke-width:7;stroke-linecap:butt;stroke-linejoin:round;stroke-miterlimit:4;stroke-dasharray:none;stroke-opacity:1"
         d="m 88.475609,72.877006 h 30.000001 v 15.00001 H 88.475609 Z"
         id="path29773-1-5"
         sodipodi:nodetypes="ccccc" /><rect
         style="fill:#717171;fill-opacity:1;stroke:#333333;stroke-width:7;stroke-linecap:round;stroke-linejoin:round;stroke-miterlimit:4;stroke-dasharray:none;stroke-dashoffset:831.496;stroke-opacity:1"
         id="rect44415-3-5"
         width="18.534014"
         height="14.356841"
         x="185.97562"
         y="74.646996" /><path
         style="fill:#a98e77;fill-opacity:1;stroke:#333333;stroke-width:7;stroke-linecap:butt;stroke-linejoin:round;stroke-miterlimit:4;stroke-dasharray:none;stroke-opacity:1"
         d="m 18.239089,94.146996 10.23652,-24.76999 h 60 v 12.5 h 30.000001 v -12.5 h 68.4834 v 24.76999 z"
         id="path5480-7-5"
         sodipodi:nodetypes="ccccccccc" /><path
         style="fill:#333333;fill-opacity:0.1;stroke:#000000;stroke-width:0;stroke-linecap:butt;stroke-linejoin:miter;stroke-miterlimit:4;stroke-dasharray:none;stroke-opacity:1"
         d="m 146.73117,94.253436 10.59145,-25.62885 28.76934,-0.31768 0.86765,25.80804 z"
         id="path16411-8-8-4"
         sodipodi:nodetypes="ccccc" /><path
         style="fill:#333333;fill-opacity:0.1;stroke:#000000;stroke-width:0;stroke-linecap:butt;stroke-linejoin:miter;stroke-miterlimit:4;stroke-dasharray:none;stroke-opacity:1"
         d="m 18.239089,94.146996 10.23652,-24.77 36.31552,-0.30703 -8.63104,25.6534 z"
         id="path16411-83-2"
         sodipodi:nodetypes="ccccc" /><path
         style="fill:#333333;fill-opacity:0.1;stroke:#000000;stroke-width:0;stroke-linecap:butt;stroke-linejoin:miter;stroke-miterlimit:4;stroke-dasharray:none;stroke-opacity:1"
         d="m 17.332889,177.06789 -0.18289,-23.33469 16.67618,-33.30437 -5.72553,-16.78141 -12.67085,-2.43057 2.80929,-7.069854 10.23652,-24.77 17.35799,1.80079 -9.27916,24.76224 c 6.48695,2.00467 11.02281,4.581974 13.33982,11.849834 1.33709,6.39817 1.6906,14.25771 -2.20656,23.99094 -4.2057,8.37554 -9.34848,11.45797 -12.44783,21.80324 -2.48914,6.13001 -2.63997,11.16612 -1.00602,17.01379 l -13.93277,8.45467 z"
         id="path7420-8-1"
         sodipodi:nodetypes="ccccccccccccccc" /><path
         style="fill:#333333;fill-opacity:0.1;stroke:#000000;stroke-width:0;stroke-linecap:butt;stroke-linejoin:miter;stroke-miterlimit:4;stroke-dasharray:none;stroke-opacity:1"
         d="m 164.92505,94.127076 9.99106,-24.17604 13.3721,-0.29967 0.001,24.17604 z"
         id="path16411-8-2-1-9"
         sodipodi:nodetypes="ccccc" /><path
         style="fill:#c7a588;fill-opacity:1;stroke:#333333;stroke-width:7;stroke-linecap:butt;stroke-linejoin:round;stroke-miterlimit:4;stroke-dasharray:none;stroke-opacity:1"
         d="m 28.475609,69.376996 4.5,-10.99999 h 8.40086 l 9.85114,11 z"
         id="path33029-5-2"
         sodipodi:nodetypes="ccccc" /><path
         style="fill:#c7a588;fill-opacity:1;stroke:#333333;stroke-width:7;stroke-linecap:butt;stroke-linejoin:round;stroke-miterlimit:4;stroke-dasharray:none;stroke-opacity:1"
         d="m 169.9587,69.376996 4.49982,-10.99999 h 12.50009 l 4e-4,11 z"
         id="path33029-3-3-4"
         sodipodi:nodetypes="ccccc" /><ellipse
         style="fill:#333333;fill-opacity:0.2;stroke:#333333;stroke-width:0;stroke-linecap:round;stroke-linejoin:round;stroke-miterlimit:4;stroke-dasharray:none;stroke-dashoffset:831.496;stroke-opacity:1"
         id="path34331-54-5"
         cx="58.665394"
         cy="161.35379"
         rx="3.4999998"
         ry="3.5" /><rect
         style="fill:#7d7d7d;fill-opacity:1;stroke:#333333;stroke-width:7;stroke-linecap:round;stroke-linejoin:round;stroke-miterlimit:4;stroke-dasharray:none;stroke-dashoffset:831.496;stroke-opacity:1"
         id="rect34880-3-8"
         width="120"
         height="24.77"
         x="199.47562"
         y="69.377007"
         ry="0" /><path
         style="fill:#333333;fill-opacity:0.1;stroke:#000000;stroke-width:0;stroke-linecap:butt;stroke-linejoin:miter;stroke-miterlimit:4;stroke-dasharray:none;stroke-opacity:1"
         d="m 278.79764,96.191826 10.94589,-26.48651 29.73208,-0.32831 0.89669,26.67169 z"
         id="path16411-8-9-6-6"
         sodipodi:nodetypes="ccccc" /><path
         style="fill:#333333;fill-opacity:0.1;stroke:#000000;stroke-width:0;stroke-linecap:butt;stroke-linejoin:miter;stroke-miterlimit:4;stroke-dasharray:none;stroke-opacity:1"
         d="m 294.77501,96.377006 10.94589,-26.48651 14.65005,-0.32831 0.001,26.48651 z"
         id="path16411-8-2-5-5-2"
         sodipodi:nodetypes="ccccc" /><path
         style="fill:#333333;fill-opacity:0.1;stroke:#000000;stroke-width:0;stroke-linecap:butt;stroke-linejoin:miter;stroke-miterlimit:4;stroke-dasharray:none;stroke-opacity:1"
         d="m 241.04992,69.233876 -10.94589,26.48651 -29.73208,0.32831 -0.89669,-26.67169 z"
         id="path16411-8-9-8-9-5"
         sodipodi:nodetypes="ccccc" /><path
         style="fill:#333333;fill-opacity:0.1;stroke:#000000;stroke-width:0;stroke-linecap:butt;stroke-linejoin:miter;stroke-miterlimit:4;stroke-dasharray:none;stroke-opacity:1"
         d="m 225.07255,69.048696 -10.94589,26.48651 -14.65005,0.32831 -0.001,-26.48651 z"
         id="path16411-8-2-5-2-5-1"
         sodipodi:nodetypes="ccccc" /><ellipse
         style="fill:#333333;fill-opacity:1;stroke:#333333;stroke-width:0;stroke-linecap:round;stroke-linejoin:round;stroke-miterlimit:4;stroke-dasharray:none;stroke-dashoffset:831.496;stroke-opacity:1"
         id="path34331-5-4-3"
         cx="213.47562"
         cy="91.377007"
         rx="4.999999"
         ry="4.9999995" /><ellipse
         style="fill:#333333;fill-opacity:1;stroke:#333333;stroke-width:0;stroke-linecap:round;stroke-linejoin:round;stroke-miterlimit:4;stroke-dasharray:none;stroke-dashoffset:831.496;stroke-opacity:1"
         id="path34331-2-9-9"
         cx="305.79849"
         cy="91.377007"
         rx="4.999999"
         ry="4.9999995" /><ellipse
         style="fill:#333333;fill-opacity:1;stroke:#333333;stroke-width:0;stroke-linecap:round;stroke-linejoin:round;stroke-miterlimit:4;stroke-dasharray:none;stroke-dashoffset:831.496;stroke-opacity:1"
         id="path34331-5-5-1-7"
         cx="213.47562"
         cy="72.377007"
         rx="4.999999"
         ry="4.9999995" /><ellipse
         style="fill:#333333;fill-opacity:1;stroke:#333333;stroke-width:0;stroke-linecap:round;stroke-linejoin:round;stroke-miterlimit:4;stroke-dasharray:none;stroke-dashoffset:831.496;stroke-opacity:1"
         id="path34331-2-2-7-3"
         cx="305.79849"
         cy="72.377007"
         rx="4.999999"
         ry="4.9999995" /><rect
         style="fill:#7d7d7d;fill-opacity:1;stroke:#333333;stroke-width:7;stroke-linecap:round;stroke-linejoin:round;stroke-miterlimit:4;stroke-dasharray:none;stroke-dashoffset:831.496;stroke-opacity:1"
         id="rect47612-5-7"
         width="12"
         height="10"
         x="90.051323"
         y="97.405296"
         transform="rotate(15.867656)" /><path
         style="fill:none;stroke:#333333;stroke-width:7;stroke-linecap:butt;stroke-linejoin:miter;stroke-miterlimit:4;stroke-dasharray:none;stroke-opacity:1"
         d="M 140.79849,110.37701 V 92.942186"
         id="path55640-4-5"
         sodipodi:nodetypes="cc" /><rect
         style="fill:#a98e77;fill-opacity:1;stroke:#333333;stroke-width:0;stroke-linecap:round;stroke-linejoin:round;stroke-miterlimit:4;stroke-dasharray:none;stroke-dashoffset:831.496;stroke-opacity:1"
         id="rect57148-1-0"
         width="44.66621"
         height="17.43482"
         x="140.79849"
         y="92.942184" /><path
         style="fill:none;stroke:#333333;stroke-width:7;stroke-linecap:butt;stroke-linejoin:round;stroke-miterlimit:4;stroke-dasharray:none;stroke-opacity:1"
         d="m 140.79849,94.115186 v 16.261824 h 44.66619 l 1.49492,-2.5565 V 94.114946 Z"
         id="path57296-8-2"
         sodipodi:nodetypes="cccccc" /><rect
         style="fill:#333333;fill-opacity:0.1;stroke:#333333;stroke-width:0;stroke-linecap:round;stroke-linejoin:round;stroke-miterlimit:4;stroke-dasharray:none;stroke-dashoffset:831.496;stroke-opacity:1"
         id="rect57557-8-1"
         width="11.849079"
         height="16.196053"
         x="140.79849"
         y="94.115181" /><rect
         style="fill:#333333;fill-opacity:0.1;stroke:#333333;stroke-width:0;stroke-linecap:round;stroke-linejoin:round;stroke-miterlimit:4;stroke-dasharray:none;stroke-dashoffset:831.496;stroke-opacity:1"
         id="rect57557-9-3-8"
         width="11.849079"
         height="16.196053"
         x="175.72018"
         y="94.120987" /><rect
         style="fill:#333333;fill-opacity:0.1;stroke:#333333;stroke-width:0;stroke-linecap:round;stroke-linejoin:round;stroke-miterlimit:4;stroke-dasharray:none;stroke-dashoffset:831.496;stroke-opacity:1"
         id="rect57557-9-5-5-7"
         width="11.849079"
         height="16.196053"
         x="128.94942"
         y="94.115181" /><path
         style="fill:#333333;fill-opacity:0.1;stroke:#000000;stroke-width:0;stroke-linecap:butt;stroke-linejoin:miter;stroke-miterlimit:4;stroke-dasharray:none;stroke-opacity:1"
         d="m 67.561819,171.25447 -13.39712,0.5813 -4.66788,14.92232 12.91958,3.61858 z"
         id="path57898-2-1"
         sodipodi:nodetypes="ccccc" /><ellipse
         style="fill:#333333;fill-opacity:0.2;stroke:#333333;stroke-width:0;stroke-linecap:round;stroke-linejoin:round;stroke-miterlimit:4;stroke-dasharray:none;stroke-dashoffset:831.496;stroke-opacity:1"
         id="path34331-9-2-5"
         cx="120.79849"
         cy="102.19218"
         rx="3.4999998"
         ry="3.5" /><path
         id="path1441-9-4-6-2"
         style="color:#000000;fill:#333333;stroke-linejoin:round;-inkscape-stroke:none"
         d="m 33.097732,43.409672 a 15.0015,15.0015 0 0 0 -13.88494,9.32036 l -4.49998,10.99985 a 15.0015,15.0015 0 0 0 -0.0041,0.0134 L 4.4979322,88.450332 a 15.0015,15.0015 0 0 0 -0.02171,0.0925 15.0015,15.0015 0 0 0 -0.05633,0.0972 l -2.80861,7.07036 a 15.0015,15.0015 0 0 0 1.07849,13.255528 c 0.44098,0.73498 1.34278,2.48744 3.67936,4.63331 2.33658,2.14585 6.0925898,3.89016 8.9823998,4.408 a 15.0015,15.0015 0 0 0 2.97863,0.23254 c 0.0786,-0.002 0.08719,0.0232 0.16433,0.0232 -1.74782,2.54832 -6.25527,9.28414 -9.9084398,17.70693 a 15.0015,15.0015 0 0 0 -0.01344,0.0331 c -3.62689,8.41911 -14.23389,27.18732 -4.69377,47.47875 a 15.0015,15.0015 0 0 0 8.4981898,7.73235 l 6.73809,2.42362 a 15.0015,15.0015 0 0 0 0.0894,0.0165 15.0015,15.0015 0 0 0 0.14108,0.0656 l 33.906456,11.57448 a 15.0015,15.0015 0 0 0 1.410249,0.40618 c 3.999322,0.94095 11.58331,2.03289 18.480526,-1.90841 a 15.0015,15.0015 0 0 0 5.974312,-6.31641 L 79.2267,197.255 a 15.0015,15.0015 0 0 0 -0.761711,-14.75982 l 1.228349,1.92805 2.457214,-9.17515 3.568258,-12.33879 h 27.10377 c 0.054,9e-5 0.10751,3.6e-4 0.16175,0 a 15.0015,15.0015 0 0 0 0.0956,-0.002 c 3.46439,-0.0443 12.71105,-0.72034 20.72483,-6.32985 11.87343,-8.3112 11.38523,-22.67055 11.40603,-25.3106 a 15.0015,15.0015 0 0 0 0,-0.0605 c 1.2e-4,-0.0318 3e-5,-0.0638 0,-0.0956 v -0.0589 -5.69113 l 40.35774,0.0486 a 15.0015,15.0015 0 0 0 12.96458,-7.42797 l 1.49604,-2.55644 a 15.0015,15.0015 0 0 0 1.99161,-6.24613 h 117.5768 A 15.0015,15.0015 0 0 0 334.59767,94.179172 V 69.409632 A 15.0015,15.0015 0 0 0 319.59756,54.409522 H 201.47815 a 15.0015,15.0015 0 0 0 -14.39808,-10.99985 h -12.50002 a 15.0015,15.0015 0 0 0 -13.88287,9.32036 l -0.6873,1.67949 h -41.41194 a 15.0015,15.0015 0 0 0 -8.96689,3.50004 H 97.564598 a 15.0015,15.0015 0 0 0 -8.966894,-3.50004 H 58.052798 l -5.38055,-6.00791 a 15.0015,15.0015 0 0 0 -11.173995,-4.99194 z m -0.121956,14.96705 h 8.401037 l 9.851079,10.99984 h 37.247855 v 3.50005 h 30.000233 v -3.50005 h 51.48317 l 4.49946,-10.99984 h 12.50053 v 10.99984 5.26996 h 12.51655 v -5.26996 h 120.00043 v 24.77007 H 199.47569 v -5.14336 h -12.51655 v 5.14336 H 18.239212 l 168.720448,0.001 -5.2e-4,13.673578 -1.495,2.55644 -55.3744,-0.0661 v 20.76669 c 5e-5,0.013 5e-5,0.0258 0,0.0388 -0.0264,3.3488 0.16252,9.51984 -5.00744,13.13873 -4.94216,3.4594 -9.05784,3.57897 -12.31656,3.62097 -0.0215,10e-5 -0.0431,10e-5 -0.0646,0 H 74.320539 l -6.759277,23.37738 c 2.56e-4,1e-4 7.57e-4,4e-4 0.001,0 l -4.185791,15.62541 2.313554,3.63595 -0.110071,0.22014 c -2.225676,1.2719 -4.595916,1.03855 -7.60212,0.33125 l -33.905945,-11.57552 1.781291,-6.49986 -1.781801,6.49986 -6.73861,-2.42363 c -5.58757,-11.88459 1.09514,-26.34398 4.89376,-35.16168 3.402936,-7.84569 9.904821,-17.30902 9.904821,-17.30902 1.476488,-1.99229 1.529047,-3.20853 1.694987,-4.16873 0.803759,-7.44748 -0.264468,-11.58591 -4.712374,-15.31483 -2.599577,-1.93004 -7.136834,-1.99434 -11.237554,-1.90324 -1.32242,-0.23697 -1.81627,-0.94351 -2.44637,-1.99368 l 2.80914,-7.069848 10.23658,-24.77007 z M 49.121044,190.38623 a 15.0015,15.0015 0 0 0 1.720825,4.58008 l -2.245858,-3.5295 z" /><text
         xml:space="preserve"
         transform="matrix(0.18414389,0,-0.0538996,0.18414389,65.11492,131.51382)"
         id="text1"
         style="font-style:normal;font-weight:normal;font-size:33.3333px;line-height:1.25;font-family:sans-serif;white-space:pre;shape-inside:url(#rect1);display:inline;fill:#333333;fill-opacity:0.2;stroke:none"><tspan
           x="0"
           y="-147.56558"
           id="tspan4"><tspan
             style="font-family:'Bebas Neue';-inkscape-font-specification:'Bebas Neue'"
             id="tspan1">RkT 509         9mm</tspan></tspan></text></g></g></svg>
