<?xml version="1.0" encoding="UTF-8" standalone="no"?>
<!-- Created with Inkscape (http://www.inkscape.org/) -->

<svg
   width="50mm"
   height="50mm"
   viewBox="0 0 50 50"
   version="1.1"
   id="svg8079"
   sodipodi:docname="bullet.svg"
   inkscape:version="1.3 (0e150ed, 2023-07-21)"
   xml:space="preserve"
   xmlns:inkscape="http://www.inkscape.org/namespaces/inkscape"
   xmlns:sodipodi="http://sodipodi.sourceforge.net/DTD/sodipodi-0.dtd"
   xmlns="http://www.w3.org/2000/svg"
   xmlns:svg="http://www.w3.org/2000/svg"><sodipodi:namedview
     id="namedview8081"
     pagecolor="#ffffff"
     bordercolor="#666666"
     borderopacity="1.0"
     inkscape:pageshadow="2"
     inkscape:pageopacity="0.0"
     inkscape:pagecheckerboard="0"
     inkscape:document-units="mm"
     showgrid="false"
     inkscape:zoom="3.6594074"
     inkscape:cx="69.000242"
     inkscape:cy="96.600339"
     inkscape:window-width="1440"
     inkscape:window-height="784"
     inkscape:window-x="0"
     inkscape:window-y="25"
     inkscape:window-maximized="1"
     inkscape:current-layer="layer1"
     inkscape:showpageshadow="2"
     inkscape:deskcolor="#d1d1d1"
     showguides="false" /><defs
     id="defs8076"><clipPath
       clipPathUnits="userSpaceOnUse"
       id="clipath_lpe_path-effect7-2"><circle
         style="display:none;fill:#333333;fill-opacity:0.15;stroke:#333333;stroke-width:0;stroke-linecap:butt;stroke-linejoin:bevel;stroke-dasharray:none;stroke-opacity:1"
         id="circle1"
         cx="1043.5747"
         cy="447.42966"
         r="17.5" /></clipPath><inkscape:path-effect
       effect="powerclip"
       id="path-effect7-2"
       is_visible="true"
       lpeversion="1"
       inverse="true"
       flatten="false"
       hide_clip="false"
       message="Use fill-rule evenodd on &lt;b&gt;fill and stroke&lt;/b&gt; dialogue if no flatten result after convert clip to paths." /><clipPath
       clipPathUnits="userSpaceOnUse"
       id="clipPath39"><g
         inkscape:label="Clip"
         id="use39"><path
           id="path49"
           style="color:#000000;fill:#856858;fill-opacity:1;stroke-linejoin:round;-inkscape-stroke:none"
           d="m 1121.3522,22.75416 c -22.0734,0 -40.0001,17.92669 -40.0001,40.00014 v 150.00012 c 0,13.6254 6.8425,25.6549 17.2625,32.8792 v -13.2359 c -4.5249,-5.2457 -7.2626,-12.0869 -7.2626,-19.6433 V 62.7543 c 0,-16.70643 13.2938,-30.00024 30.0002,-30.00024 h 340.8319 c 8.0595,0 15.3054,3.11459 20.667,8.19279 h 12.8302 c -7.142,-10.94011 -19.4717,-18.19269 -33.4972,-18.19269 z" /></g></clipPath><clipPath
       clipPathUnits="userSpaceOnUse"
       id="clipPath40"><rect
         style="fill:#333333;fill-opacity:1;stroke:#333333;stroke-width:0;stroke-linecap:round;stroke-linejoin:miter;stroke-dasharray:none;stroke-opacity:0.1"
         id="rect40"
         width="269.67844"
         height="352.67978"
         x="1152.9198"
         y="-42.146" /></clipPath><clipPath
       clipPathUnits="userSpaceOnUse"
       id="clipPath40-1"><rect
         style="fill:#333333;fill-opacity:1;stroke:#333333;stroke-width:0;stroke-linecap:round;stroke-linejoin:miter;stroke-dasharray:none;stroke-opacity:0.1"
         id="rect40-7"
         width="269.67844"
         height="352.67978"
         x="1152.9198"
         y="-42.146" /></clipPath><clipPath
       clipPathUnits="userSpaceOnUse"
       id="clipPath43"><path
         style="fill:#876242;fill-opacity:1;stroke:#333333;stroke-width:0;stroke-linecap:round;stroke-linejoin:miter;stroke-dasharray:none;stroke-opacity:1"
         d="M 1673.4516,-28.310419 C 1567.2958,64.189589 1432.2958,31.700171 1432.2958,31.700171 1321.2796,-2.44403 1308.343,42.87375 1249.6271,101.72236 h 424.5784 z"
         id="path44"
         sodipodi:nodetypes="ccccc" /></clipPath><clipPath
       clipPathUnits="userSpaceOnUse"
       id="clipPath48"><path
         id="path48"
         style="fill:#958575;stroke:#333333;stroke-width:15;stroke-linecap:round"
         d="m -609.24326,-961.12917 h 26.42825 c 14.83937,0 26.78586,11.94649 26.78586,26.78591 v 146.42825 c 0,14.83939 -11.94649,26.78589 -26.78586,26.78589 h -26.42825 c -14.83937,0 -26.78589,-11.9465 -26.78589,-26.78589 v -146.42825 c 0,-14.83942 11.94652,-26.78591 26.78589,-26.78591 z m -80.00003,0 h 26.42825 c 14.83937,0 26.78586,11.94649 26.78586,26.78591 v 146.42825 c 0,14.83939 -11.94649,26.78589 -26.78586,26.78589 h -26.42825 c -14.83937,0 -26.78588,-11.9465 -26.78588,-26.78589 v -146.42825 c 0,-14.83942 11.94651,-26.78591 26.78588,-26.78591 z m -80,0 h 26.42823 c 14.83939,0 26.78589,11.94649 26.78589,26.78591 v 146.42825 c 0,14.83939 -11.9465,26.78589 -26.78589,26.78589 h -26.42823 c -14.83936,0 -26.78588,-11.9465 -26.78588,-26.78589 v -146.42825 c 0,-14.83942 11.94652,-26.78591 26.78588,-26.78591 z" /></clipPath><clipPath
       clipPathUnits="userSpaceOnUse"
       id="clipPath48-7"><path
         id="path48-4"
         style="fill:#958575;stroke:#333333;stroke-width:15;stroke-linecap:round"
         d="m -609.24326,-961.12917 h 26.42825 c 14.83937,0 26.78586,11.94649 26.78586,26.78591 v 146.42825 c 0,14.83939 -11.94649,26.78589 -26.78586,26.78589 h -26.42825 c -14.83937,0 -26.78589,-11.9465 -26.78589,-26.78589 v -146.42825 c 0,-14.83942 11.94652,-26.78591 26.78589,-26.78591 z m -80.00003,0 h 26.42825 c 14.83937,0 26.78586,11.94649 26.78586,26.78591 v 146.42825 c 0,14.83939 -11.94649,26.78589 -26.78586,26.78589 h -26.42825 c -14.83937,0 -26.78588,-11.9465 -26.78588,-26.78589 v -146.42825 c 0,-14.83942 11.94651,-26.78591 26.78588,-26.78591 z m -80,0 h 26.42823 c 14.83939,0 26.78589,11.94649 26.78589,26.78591 v 146.42825 c 0,14.83939 -11.9465,26.78589 -26.78589,26.78589 h -26.42823 c -14.83936,0 -26.78588,-11.9465 -26.78588,-26.78589 v -146.42825 c 0,-14.83942 11.94652,-26.78591 26.78588,-26.78591 z" /></clipPath><clipPath
       clipPathUnits="userSpaceOnUse"
       id="clipPath27"><g
         id="g27"
         transform="translate(3.9623471e-4,-117.94971)"><path
           id="path27"
           style="color:#000000;fill:#b1aca8;stroke-linejoin:round;-inkscape-stroke:none"
           d="m 897.50956,1197.5036 c -4.99477,0 -9.24957,4.2553 -9.24957,9.2501 v 271.5003 c 0,4.9948 4.2548,9.25 9.24957,9.25 h 421.50034 c 4.9947,0 9.2501,-4.2552 9.2501,-9.25 v -271.5003 c 0,-4.9948 -4.2554,-9.2501 -9.2501,-9.2501 z" /></g></clipPath><clipPath
       clipPathUnits="userSpaceOnUse"
       id="clipPath2-7"><rect
         style="fill:#958575;fill-opacity:1;stroke:#333333;stroke-width:15;stroke-linecap:round;stroke-linejoin:round"
         id="rect2-3"
         width="120"
         height="90"
         x="-309.76544"
         y="160"
         ry="0" /></clipPath><clipPath
       clipPathUnits="userSpaceOnUse"
       id="clipPath2-7-5"><rect
         style="fill:#958575;fill-opacity:1;stroke:#333333;stroke-width:15;stroke-linecap:round;stroke-linejoin:round"
         id="rect2-3-9"
         width="120"
         height="90"
         x="-309.76544"
         y="160"
         ry="0" /></clipPath><clipPath
       clipPathUnits="userSpaceOnUse"
       id="clipPath48-71"><path
         id="path48-48"
         style="fill:#958575;stroke:#333333;stroke-width:15;stroke-linecap:round"
         d="m -609.24326,-961.12917 h 26.42825 c 14.83937,0 26.78586,11.94649 26.78586,26.78591 v 146.42825 c 0,14.83939 -11.94649,26.78589 -26.78586,26.78589 h -26.42825 c -14.83937,0 -26.78589,-11.9465 -26.78589,-26.78589 v -146.42825 c 0,-14.83942 11.94652,-26.78591 26.78589,-26.78591 z m -80.00003,0 h 26.42825 c 14.83937,0 26.78586,11.94649 26.78586,26.78591 v 146.42825 c 0,14.83939 -11.94649,26.78589 -26.78586,26.78589 h -26.42825 c -14.83937,0 -26.78588,-11.9465 -26.78588,-26.78589 v -146.42825 c 0,-14.83942 11.94651,-26.78591 26.78588,-26.78591 z m -80,0 h 26.42823 c 14.83939,0 26.78589,11.94649 26.78589,26.78591 v 146.42825 c 0,14.83939 -11.9465,26.78589 -26.78589,26.78589 h -26.42823 c -14.83936,0 -26.78588,-11.9465 -26.78588,-26.78589 v -146.42825 c 0,-14.83942 11.94652,-26.78591 26.78588,-26.78591 z" /></clipPath><clipPath
       clipPathUnits="userSpaceOnUse"
       id="clipPath2010"><rect
         style="fill:#dabb7f;stroke:#333333;stroke-width:0;stroke-linecap:round;stroke-linejoin:round;stroke-miterlimit:4;stroke-dasharray:none;stroke-dashoffset:188.976"
         id="rect2012"
         width="50"
         height="20.158905"
         x="87"
         y="18.226004"
         rx="0" /></clipPath></defs><g
     inkscape:label="Layer 1"
     inkscape:groupmode="layer"
     id="layer1"><path
       id="rect1-3"
       style="fill:#9e988c;fill-opacity:1;stroke:#333333;stroke-width:15;stroke-linecap:square;stroke-linejoin:round;stroke-opacity:1"
       d="m 25.00026,9.70584 c -5.50318,0 -9.93376,4.43058 -9.93376,9.93376 v 9.81026 0.91054 9.93376 h 9.93376 9.93324 V 30.3604 29.44986 19.6396 c 0,-5.50318 -4.43007,-9.93376 -9.93324,-9.93376 z" /><path
       style="fill:none;stroke:#333333;stroke-width:5;stroke-linecap:butt;stroke-linejoin:miter;stroke-dasharray:none;stroke-opacity:1"
       d="m 15.0665,27.266316 h 19.867"
       id="path1" /><rect
       style="fill:#333333;fill-opacity:0.25;stroke:none;stroke-width:4.99999;stroke-linecap:square;stroke-linejoin:round;stroke-dasharray:none;stroke-opacity:1"
       id="rect1"
       width="19.867001"
       height="13.027843"
       x="15.0665"
       y="15.059221" /></g></svg>
