<?xml version="1.0" encoding="UTF-8" standalone="no"?>
<!-- Created with Inkscape (http://www.inkscape.org/) -->

<svg
   width="306.29199mm"
   height="250mm"
   viewBox="0 0 306.29198 250"
   version="1.1"
   id="svg5"
   inkscape:version="1.3 (0e150ed, 2023-07-21)"
   sodipodi:docname="deagle_loot.svg"
   xml:space="preserve"
   xmlns:inkscape="http://www.inkscape.org/namespaces/inkscape"
   xmlns:sodipodi="http://sodipodi.sourceforge.net/DTD/sodipodi-0.dtd"
   xmlns="http://www.w3.org/2000/svg"
   xmlns:svg="http://www.w3.org/2000/svg"><sodipodi:namedview
     id="namedview7"
     pagecolor="#ffffff"
     bordercolor="#666666"
     borderopacity="1.0"
     inkscape:pageshadow="2"
     inkscape:pageopacity="0.0"
     inkscape:pagecheckerboard="0"
     inkscape:document-units="mm"
     showgrid="false"
     inkscape:zoom="0.064917706"
     inkscape:cx="1386.3706"
     inkscape:cy="-61.616471"
     inkscape:window-width="1312"
     inkscape:window-height="431"
     inkscape:window-x="0"
     inkscape:window-y="25"
     inkscape:window-maximized="0"
     inkscape:current-layer="layer1"
     inkscape:showpageshadow="2"
     inkscape:deskcolor="#d1d1d1"
     showguides="false" /><defs
     id="defs2"><clipPath
       clipPathUnits="userSpaceOnUse"
       id="clipPath54"><path
         id="path54"
         style="stroke-width:0.0999999;stroke-linecap:square;paint-order:markers fill stroke;stop-color:#000000"
         d="m 1691.1994,-792.32001 h 1634.8919 v 92.82806 H 1691.1994 Z" /></clipPath><clipPath
       clipPathUnits="userSpaceOnUse"
       id="clipPath15"><rect
         style="fill:none;stroke:#000000;stroke-linecap:butt;stroke-linejoin:bevel;paint-order:stroke markers fill;stop-color:#000000"
         id="rect15-7"
         width="45.034248"
         height="38.955639"
         x="262.48285"
         y="121.00073" /></clipPath><inkscape:path-effect
       effect="fill_between_many"
       method="originald"
       linkedpaths="#path34,0,1"
       id="path-effect34"
       is_visible="true"
       lpeversion="0"
       join="true"
       close="true"
       autoreverse="true" /><clipPath
       clipPathUnits="userSpaceOnUse"
       id="clipPath18"><path
         id="path18"
         style="display:block;fill:#7c7c7c;fill-opacity:1;stroke:none;stroke-width:2;stroke-linecap:butt;stroke-linejoin:round;stroke-dasharray:none;stroke-opacity:1"
         d="m 153.59913,-83.812388 -3.61735,3.154844 -2.40761,-0.0088 c -1.34656,-0.204305 -2.29712,-1.317812 -3.31246,-2.14612 h -13.35319 v 2.200381 H 112.76803 81.208197 v -1.308962 l -3.028754,-1.804025 c -0.730348,-0.09707 -0.90537,0.08005 -0.971,0.866095 v 2.246892 h -2.300118 v 6.340697 l 4.014743,7.959204 h 7.185091 29.447811 c 1.76143,1.117558 3.44887,2.326802 4.88808,3.848346 1.66435,1.957232 2.16168,5.662877 1.11414,8.841838 0.23521,0.294005 0.40656,0.472813 0.79065,0.574641 h 10.53114 c 1.63957,0.0013 2.88577,-1.311839 4.5806,0.291454 1.89445,1.269701 3.39776,10.078691 3.99252,16.436724 0.12464,0.566679 -0.41557,1.525915 -0.59118,2.054138 l -0.96066,2.69286 c 1.47419,1.697225 23.54263,1.423702 24.28895,-0.243396 l 5.3e-4,-2.545582 c 0.008,-2.298944 0.28081,-4.561536 -0.81442,-6.179468 -3.04458,-4.470765 -4.09201,-9.834113 -5.53196,-14.965495 -0.63051,-2.868401 -0.22576,-4.766924 0.8108,-6.023404 2.02891,-2.459384 6.47909,-2.459281 10.32857,-2.459281 1.29315,0.0085 1.65041,0.129876 2.26911,-0.077 0.51498,-0.172194 0.86447,-0.634709 0.85576,-1.131197 -0.008,-0.447802 -0.32033,-0.93013 -0.83199,-1.131713 -0.34693,-0.136687 -1.80546,-0.164412 -2.31562,-0.178284 -3.15248,-0.12092 -4.91266,-0.383641 -5.98103,-1.396815 -0.44827,-0.445749 -0.61998,-0.905423 -0.79013,-1.488797 l -0.34468,-1.440739 c 0.60127,-2.004748 1.22422,-4.08211 2.81895,-5.553149 0.68691,-1.668251 -0.6656,-1.742456 -0.90279,-1.717725 -1.42483,0.545679 -2.85843,1.023125 -4.40955,1.033529 l -3.54294,-3.565158 -0.80046,-0.0031 v -3.173447 z"
         sodipodi:nodetypes="cccccccccccccccccccccccccccccscscsccccccccccc" /></clipPath><inkscape:path-effect
       effect="powerclip"
       id="path-effect18"
       is_visible="true"
       lpeversion="1"
       inverse="true"
       flatten="false"
       hide_clip="false"
       message="Use fill-rule evenodd on &lt;b&gt;fill and stroke&lt;/b&gt; dialogue if no flatten result after convert clip to paths." /><rect
       x="0"
       y="-177.97614"
       width="882.46503"
       height="177.97614"
       id="rect1-0" /></defs><g
     inkscape:label="Layer 1"
     inkscape:groupmode="layer"
     id="layer1"><path
       id="path1-2"
       style="color:#000000;fill:#333333;stroke-linejoin:round;-inkscape-stroke:none"
       d="m 64.002836,31.915433 a 15.0015,15.0015 0 0 0 -14.999602,14.9996 v 5.34128 l -1.585432,1.59525 c -1.670914,-0.46138 -3.537598,-1.08664 -5.682341,-1.89342 a 15.0015,15.0015 0 0 0 -3.753776,-0.88264 c -1.205394,-0.12339 -2.080635,-0.15689 -2.921786,-0.10748 -0.841149,0.0494 -1.648033,0.18281 -2.718697,0.39067 -2.141326,0.41572 -4.966468,1.20069 -8.080127,3.63079 -3.113659,2.43011 -6.039477,7.07166 -6.685896,11.59154 -0.64642,4.51989 0.359742,8.30604 1.691369,11.4825 a 15.0015,15.0015 0 0 0 3.764112,5.31647 c 0.635727,0.57598 1.23942,1.37942 1.833996,2.37505 -0.381961,0.022 -0.567412,0.0573 -1.010274,0.0744 -0.422819,0.009 -1.897055,0.0195 -3.571875,0.0992 -0.872205,0.0415 -1.799823,0.0962 -2.937805,0.23255 -1.137982,0.13633 -2.078223,-0.0455 -5.390369,1.36736 -7.0991484,3.02842 -12.00899835,10.11332 -11.9532754,18.011817 0.05571994,7.8985 6.7070251,16.03369 14.0410034,18.23196 v -0.002 c 2.34656,0.70336 5.298382,0.96218 6.94738,0.94723 1.616759,-0.0147 2.419269,-0.0843 3.820438,-0.0961 6.20876,-9e-4 11.679512,-0.31343 15.015621,-0.0155 1.262863,0.11277 1.632113,0.22514 2.027267,0.31471 -0.0025,0.57891 -0.04617,1.50854 -0.511597,3.68608 -4.211995,15.0842 -7.173643,28.18645 -13.482381,37.45043 a 15.0015,15.0015 0 0 0 -0.02377,0.0351 c -7.395076,10.92437 -4.90728,20.62326 -4.88859,25.99428 l 0.0021,7.17372 a 15.0015,15.0015 0 0 0 1.308447,6.12882 c 2.337564,5.22155 5.461919,6.79807 7.441407,7.87704 1.979487,1.07898 3.480625,1.55589 4.929931,1.97456 2.898612,0.83734 5.596031,1.26233 8.628931,1.63711 6.065798,0.74955 13.251074,1.10373 20.86901,1.1777 15.235876,0.14794 30.409197,-0.15042 42.343665,-3.74447 a 15.0015,15.0015 0 0 0 10.67377,-14.36243 v -7.91425 a 15.0015,15.0015 0 0 0 -0.0284,-0.25115 15.0015,15.0015 0 0 0 -0.32504,-2.88716 15.0015,15.0015 0 0 0 -0.13488,-0.51935 15.0015,15.0015 0 0 0 -0.2775,-1.0728 c -0.43418,-1.306 -0.4593,-1.18984 -0.68885,-1.68878 a 15.0015,15.0015 0 0 0 -0.0108,-0.032 c 0.82683,-8.04278 2.11684,-17.2621 3.72484,-24.64863 0.65685,-3.01739 1.3271,-5.11299 1.96473,-7.12876 1.03626,0.10771 2.12311,0.20767 3.42408,0.20722 h 29.88242 a 15.0015,15.0015 0 0 0 3.84421,-0.50229 c 4.22583,-1.12036 9.07883,-5.46646 10.11308,-6.75928 a 15.0015,15.0015 0 0 0 2.74195,-13.37903 c -2.13011,-7.67916 -0.99574,-12.19352 4.05918,-17 h 82.07768 20.38893 a 15.0015,15.0015 0 0 0 13.39247,-8.24445 l 11.39258,-22.585707 a 15.0015,15.0015 0 0 0 1.60714,-6.75411 v -17.99218 a 15.0015,15.0015 0 0 0 -6.66781,-12.15791 c -0.15575,-2.44081 -0.67673,-6.38289 -5.43739,-10.71304 -4.24454,-3.8607 -8.75014,-4.39348 -11.7383,-4.28501 -0.99605,0.0362 -1.82291,0.1439 -2.41588,0.22272 a 15.0015,15.0015 0 0 0 -1.78335,0.34727 l -14.39861,3.72897 a 15.0015,15.0015 0 0 0 -8.96069,7.8574 H 144.23049 A 15.0015,15.0015 0 0 0 132.3878,39.551663 H 94.497098 a 15.0015,15.0015 0 0 0 -7.713224,2.38022 l -6.80837,-6.1495 a 15.0015,15.0015 0 0 0 -10.054683,-3.86695 z m -5.17e-4,15.00736 h 5.919018 l 15.194422,13.72422 c 3.811352,-0.58698 6.504304,-3.73927 9.380823,-6.08593 H 132.3878 v 6.24303 h 135.22379 v -8.33489 l 14.39757,-3.72897 c 2.07241,-0.27546 2.56977,0.22675 2.75591,2.45721 v 9.60665 h 6.52673 v 17.99218 l -11.39259,22.584667 h -20.38842 -87.54556 c -11.76586,8.87786 -17.10711,21.36941 -13.04623,36.00917 -0.66741,0.83428 -1.15339,1.34196 -2.24327,1.63091 H 126.7928 c -4.65239,0.003 -8.18849,-3.72264 -12.99766,0.82682 -5.37562,3.60286 -9.64134,28.59871 -11.32902,46.64005 -0.35367,1.60798 1.1791,4.05739 1.67741,5.55625 l 5.2e-4,7.91425 c -14.849545,4.47192 -64.078226,4.04062 -66.195955,-0.68988 l -0.001,-7.22385 66.196465,-5.2e-4 H 37.946545 c -0.0227,-6.52342 -0.796813,-12.94336 2.31097,-17.53433 8.639185,-12.6861 11.611282,-27.90501 15.697233,-42.46562 1.789111,-8.13928 0.641185,-13.52613 -2.300118,-17.09147 -5.757159,-6.97867 -17.943833,-5.32267 -28.866972,-5.32267 -3.669393,0.0241 -4.676029,0.31001 -6.43785,-0.21808 -4.589339,-1.37559 -4.173892,-6.51363 -0.509013,-8.07702 1.100687,-0.46952 5.123047,-0.46703 6.570659,-0.50643 8.945357,-0.34311 13.939491,-1.088637 16.971057,-3.963577 1.271995,-1.26485 1.759429,-2.5697 2.24224,-4.22507 l 4.310848,-18.0206 -4.364074,17.91673 c -2.233666,-7.31487 -4.546397,-14.89483 -10.470679,-20.26233 -2.551811,-6.08707 2.471627,-6.357 3.352767,-6.2668 5.26748,1.98143 10.567038,3.71301 16.297196,3.76721 l 8.980847,-9.03665 23.366533,-0.0863 c 0.0044,-10e-4 0.0084,-0.002 0.01292,-0.003 l -21.108789,0.0806 z M 116.90761,183.71392 c -0.0231,-0.0575 0.35257,0.25993 0.54054,1.32033 -0.13763,-0.27186 -0.52491,-1.28136 -0.54054,-1.32033 z" /><g
       id="g1"><path
         style="fill:#9c9c9c;fill-opacity:1;stroke:#333333;stroke-width:7;stroke-linecap:butt;stroke-linejoin:round;stroke-dasharray:none;stroke-opacity:1"
         d="m 291.29194,78.795036 v -17.99228 h -6.52641 v -9.606271 c -0.18614,-2.230468 -0.68371,-2.7327 -2.75613,-2.457246 l -14.39731,3.728623 v 8.334894 H 132.38814 v 11.51636 l 2.12778,6.360317 h 124.99526 v 22.700547 h 20.38812 z"
         id="path1"
         sodipodi:nodetypes="cccccccccccccc" /><path
         id="path1-7"
         style="fill:#333333;fill-opacity:0.15;stroke:none;stroke-width:7;stroke-linecap:butt;stroke-linejoin:round;stroke-dasharray:none;stroke-opacity:1"
         d="m 275.05873,60.801769 v 15.019755 l -10.05314,19.929533 -2.84013,5.629113 h 17.73399 L 291.29204,78.794986 V 60.802803 h -6.52674 v -10e-4 z"
         sodipodi:nodetypes="cccccccccc" /><path
         style="fill:#8b8b8b;fill-opacity:1;stroke:#333333;stroke-width:7;stroke-linecap:butt;stroke-linejoin:round;stroke-dasharray:none;stroke-opacity:1"
         d="m 259.51118,101.37997 -188.981018,1e-5 -9.222181,31.625 -5.352845,-0.96202 c 1.789115,-8.13929 0.641234,-13.52625 -2.300075,-17.0916 -5.75717,-6.97868 -17.943774,-5.32227 -28.866935,-5.32227 -3.669401,0.0241 -4.67639,0.30985 -6.438214,-0.21824 -4.589349,-1.3756 -4.173733,-6.51361 -0.508846,-8.077 1.100689,-0.46954 5.123257,-0.46729 6.570871,-0.50665 8.945376,-0.34312 13.939496,-1.088461 16.971068,-3.963411 1.271997,-1.264849 1.759009,-2.569577 2.241821,-4.224946 L 47.936,74.618125 61.731772,60.736141 85.098321,60.649907 c 3.820984,-0.579738 6.517411,-3.739418 9.398507,-6.089801 h 37.891312 l 1.4e-4,6.24265 v 11.516357 l 2.12778,6.360318 h 124.99512 z"
         id="path2"
         sodipodi:nodetypes="ccccscssccccccccccccc" /><path
         d="m 258.14735,89.007026 a 10.001,10.001 0 0 0 -5.2e-4,0 H 133.15239 a 10.001,10.001 0 0 1 -4.04058,-0.85267 10.001,10.001 0 0 1 -3.35225,-2.41225 10.001,10.001 0 0 1 -2.09134,-3.56102 l -2.127,-6.36137 a 10.001,10.001 0 0 1 -0.5178,-3.1719 v -11.51558 -6.24251 a 10.001,10.001 0 0 1 0,-0.001 H 93.133131 c -0.72027,0.5876 -1.42899,1.22559 -2.14664,1.86139 -0.71764,0.6358 -1.44445,1.26934 -2.20038,1.84743 -0.37797,0.28905 -0.76338,0.56431 -1.15859,0.81907 -0.39521,0.25476 -0.80044,0.48885 -1.21801,0.69609 -0.41757,0.20723 -0.84739,0.38786 -1.29243,0.53433 -0.44503,0.14647 -0.90524,0.25878 -1.38286,0.33125 l -23.366531,0.0863 -13.79554,13.88235 -4.311365,18.02061 c -0.241406,0.82768 -0.483652,1.56756 -0.824756,2.25877 -0.170552,0.34561 -0.36582,0.67906 -0.597896,1.00511 -0.232076,0.32605 -0.501073,0.64497 -0.819071,0.96118 -0.378947,0.35937 -0.788324,0.68515 -1.232483,0.98134 -0.44416,0.29619 -0.923081,0.56277 -1.440223,0.80253 -0.517142,0.23977 -1.072806,0.45278 -1.670699,0.64286 -0.597892,0.19008 -1.238019,0.35721 -1.92443,0.504364 -0.686411,0.14715 -1.419234,0.27454 -2.201933,0.38551 -0.782698,0.11096 -1.615418,0.20528 -2.502173,0.2868 -1.773508,0.16305 -3.762775,0.27389 -5.999117,0.35967 -0.723806,0.0197 -2.091116,0.0289 -3.415295,0.092 -0.662089,0.0315 -1.313585,0.0767 -1.868103,0.14315 -0.554519,0.0664 -1.012088,0.15443 -1.28726,0.27181 -0.45811,0.19543 -0.865905,0.44669 -1.219047,0.73949 -0.353142,0.29279 -0.651654,0.62705 -0.892969,0.98856 -0.241315,0.36152 -0.42514,0.7503 -0.54777,1.15187 -0.12263,0.40157 -0.184298,0.8159 -0.181384,1.22887 0.0029,0.41297 0.07036,0.82437 0.205672,1.22008 0.135315,0.3957 0.338308,0.77573 0.612882,1.12551 0.274575,0.34978 0.620588,0.66945 1.041281,0.94465 0.420692,0.27519 0.916163,0.50604 1.489831,0.67799 0.440456,0.13202 0.834021,0.21284 1.233517,0.25993 0.399495,0.0471 0.804882,0.06 1.270206,0.0558 0.93065,-0.008 2.099945,-0.0856 3.934644,-0.0977 2.730787,0 5.540537,-0.10361 8.309053,-0.14986 1.384259,-0.0231 2.758111,-0.0318 4.106726,-0.006 1.348616,0.0256 2.671876,0.0854 3.954798,0.19999 1.282922,0.11456 2.525773,0.28392 3.712951,0.52762 0.59359,0.12185 1.173343,0.26207 1.737362,0.42374 0.564019,0.16168 1.112102,0.34487 1.642794,0.55139 0.530692,0.20652 1.043765,0.43659 1.537374,0.69298 0.493609,0.2564 0.967815,0.53878 1.420585,0.85008 0.45277,0.31129 0.884253,0.65146 1.292427,1.02268 0.408175,0.37121 0.793079,0.77357 1.152902,1.20974 0.367663,0.44567 0.70709,0.91979 1.016475,1.4242 0.309385,0.50441 0.588451,1.03932 0.835091,1.60611 0.24664,0.56679 0.460843,1.16553 0.640271,1.79834 0.179428,0.6328 0.324267,1.29949 0.432015,2.00194 0.107749,0.70246 0.178721,1.44066 0.210323,2.2164 0.0316,0.77574 0.02369,1.58905 -0.02532,2.44172 -0.04901,0.85266 -0.139277,1.74465 -0.273369,2.67787 -0.134091,0.93322 -0.311728,1.90747 -0.535367,2.92488 l 5.352644,0.96222 9.222177,-31.62493 H 258.14735 Z"
         style="fill:#333333;fill-opacity:0.15;stroke:none;stroke-width:7;stroke-linejoin:round;stroke-opacity:1"
         id="path10" /><path
         id="path5"
         style="fill:#717171;fill-opacity:1;stroke:#333333;stroke-width:7;stroke-linecap:round;stroke-linejoin:round;stroke-dasharray:none;stroke-opacity:1"
         d="m 65.961213,72.223584 18.666685,0.05865 -13.811578,12.207396 -0.0057,-0.01476 a 7.0939198,7.0939198 0 0 1 -4.849233,1.937054 7.0939198,7.0939198 0 0 1 -7.094204,-7.094221 7.0939198,7.0939198 0 0 1 7.094204,-7.09422 z" /><path
         style="fill:none;stroke:#333333;stroke-width:7;stroke-linecap:butt;stroke-linejoin:miter;stroke-dasharray:none;stroke-opacity:1"
         d="M 284.76553,60.802756 H 267.61209"
         id="path6"
         sodipodi:nodetypes="cc" /><path
         style="fill:#8b8b8b;fill-opacity:1;stroke:#333333;stroke-width:7;stroke-linecap:butt;stroke-linejoin:round;stroke-dasharray:none;stroke-opacity:1"
         d="M 85.117081,60.647036 69.921675,46.921875 h -5.918884 v 13.805818 z"
         id="path4"
         sodipodi:nodetypes="ccccc" /><path
         style="fill:#8b8b8b;fill-opacity:1;stroke:#333333;stroke-width:6.99999;stroke-linecap:butt;stroke-linejoin:round;stroke-dasharray:none;stroke-opacity:1"
         d="m 52.836386,69.77493 c -5.763028,-0.03759 -11.088997,-1.778061 -16.38272,-3.769353 -0.881142,-0.09023 -5.904308,0.179811 -3.352492,6.266898 5.924294,5.367508 8.237165,12.947562 10.470835,20.262448 L 47.936,74.618125 Z"
         id="path7"
         sodipodi:nodetypes="cccccc" /><path
         id="rect10"
         style="fill:#333333;fill-opacity:0.15;stroke:#333333;stroke-width:7;stroke-linecap:round;stroke-linejoin:round;stroke-dasharray:none"
         d="m 183.86312,60.802753 h -51.47498 v 11.516363 l 2.12778,6.360317 49.3472,-2e-6 z"
         sodipodi:nodetypes="cccccc" /><path
         style="fill:#9c9c9c;fill-opacity:1;stroke:#333333;stroke-width:7;stroke-linecap:butt;stroke-linejoin:round;stroke-dasharray:none;stroke-opacity:1"
         d="m 104.14394,192.04286 1.5e-4,7.91428 c -14.849579,4.47193 -64.078142,4.04084 -66.195875,-0.68967 l -6.53e-4,-7.22391 z"
         id="path9"
         sodipodi:nodetypes="ccccc" /><path
         id="rect12"
         style="fill:none;stroke:#333333;stroke-width:7;stroke-linecap:round;stroke-linejoin:round;stroke-dasharray:none"
         d="M 110.32098,101.38036 H 70.529935 l -3.487541,12.26074 43.278586,-4.7e-4 z"
         sodipodi:nodetypes="ccccc" /><path
         id="path3"
         style="fill:#c7a588;fill-opacity:1;stroke:#333333;stroke-width:7;stroke-linecap:butt;stroke-linejoin:round;stroke-dasharray:none;stroke-opacity:1"
         d="m 171.9655,101.37957 c -11.76589,8.87788 -17.10698,21.36986 -13.04608,36.00965 -0.66742,0.83428 -1.15364,1.34163 -2.24352,1.63058 h -29.88282 c -4.65239,0.003 -8.18857,-3.72243 -12.99775,0.82704 -5.37563,3.60286 -9.64129,28.5988 -11.32897,46.64017 -0.35367,1.60799 1.17927,4.05699 1.67758,5.55585 l -66.197091,3.6e-4 c -0.0227,-6.52343 -0.796818,-12.94368 2.310972,-17.53466 8.639202,-12.68612 11.611356,-27.90496 15.697315,-42.4656 l 5.35219,0.96191 9.2219,-31.62484 z m -25.79859,12.08829 h -25.31352 c -0.11662,6.90983 0.0332,12.88011 6.93996,12.88011 h 15.46866 c 0.005,-5.04108 1.13494,-9.20687 2.9049,-12.88011 z"
         sodipodi:nodetypes="cccccccccccccccscc" /><path
         id="path3-37"
         style="fill:#333333;fill-opacity:0.15;stroke:none;stroke-width:7;stroke-linecap:butt;stroke-linejoin:round;stroke-dasharray:none;stroke-opacity:1"
         d="m 171.96509,101.37984 -101.435155,5.2e-4 -7.14892,24.51427 9.60148,2.79982 5.04879,-17.31418 h 84.462535 c 2.38135,-3.69366 5.56239,-7.04979 9.47127,-9.99939 z" /><path
         id="path3-3"
         style="fill:#333333;fill-opacity:0.1;stroke:#333333;stroke-width:7;stroke-linecap:butt;stroke-linejoin:round;stroke-dasharray:none;stroke-opacity:1"
         d="m 63.381239,125.8943 -2.073258,7.11068 -5.352128,-0.96221 c -4.085955,14.56062 -7.05804,29.77951 -15.697233,42.46562 -3.107787,4.59098 -2.33367,11.01142 -2.31097,17.53485 l 47.429146,-5.2e-4 c 4.009719,-29.0702 9.5008,-51.16312 14.735294,-66.14842 z"
         sodipodi:nodetypes="cccccccc" /><path
         id="path3-3-1"
         style="fill:#333333;fill-opacity:0.1;stroke:none;stroke-width:7;stroke-linecap:butt;stroke-linejoin:round;stroke-dasharray:none;stroke-opacity:1"
         d="m 63.381402,125.89443 -2.073259,7.11068 -5.352128,-0.96221 c -4.085951,14.5606 -7.058049,29.77952 -15.697233,42.46562 -3.107784,4.59098 -2.33367,11.01143 -2.31097,17.53485 h 9.746175 c 0.008,-6.70905 0.344953,-10.67804 0.583427,-11.03034 8.422658,-12.3788 11.899911,-25.78736 15.099853,-38.04729 a 10.001,10.001 0 0 0 7.269324,-6.2637 l 2.072225,-7.10912 1.079004,-3.69849 z" /><rect
         style="fill:#333333;fill-opacity:0.15;stroke:none;stroke-width:30;stroke-linecap:round;stroke-linejoin:round;stroke-dasharray:none;stroke-opacity:1"
         id="rect13"
         width="15"
         height="17.87668"
         x="168.86313"
         y="60.802753" /><rect
         style="fill:#333333;fill-opacity:0.15;stroke:none;stroke-width:30;stroke-linecap:round;stroke-linejoin:round;stroke-dasharray:none;stroke-opacity:1"
         id="rect13-9"
         width="15"
         height="17.87668"
         x="132.38814"
         y="60.802753" /><rect
         style="fill:#333333;fill-opacity:0.15;stroke:none;stroke-width:30;stroke-linecap:round;stroke-linejoin:round;stroke-dasharray:none;stroke-opacity:1"
         id="rect13-3"
         width="15"
         height="17.87668"
         x="183.86313"
         y="60.80275" /><circle
         style="fill:#333333;fill-opacity:0.2;stroke:#333333;stroke-width:7;stroke-linecap:square;stroke-linejoin:round;stroke-dasharray:none;stroke-opacity:1"
         id="path8"
         cx="71.956337"
         cy="175.59309"
         r="6" /><path
         style="fill:none;stroke:#333333;stroke-width:8;stroke-linecap:round;stroke-linejoin:miter;stroke-dasharray:none;stroke-opacity:1"
         d="m 101.21284,88.627165 7.31457,-18.618922"
         id="path11" /><path
         style="fill:none;stroke:#333333;stroke-width:8;stroke-linecap:round;stroke-linejoin:miter;stroke-dasharray:none;stroke-opacity:1"
         d="m 114.284,88.627165 7.31457,-18.618922"
         id="path11-5" /><path
         style="fill:none;stroke:#333333;stroke-width:8;stroke-linecap:round;stroke-linejoin:miter;stroke-dasharray:none;stroke-opacity:1"
         d="M 88.141675,88.627165 95.456249,70.008243"
         id="path11-56" /></g><text
       xml:space="preserve"
       transform="matrix(0.27992336,0,-0.08193459,0.27926203,189.56919,114.38132)"
       id="text1"
       style="font-style:normal;font-weight:normal;font-size:33.3333px;line-height:1.25;font-family:sans-serif;white-space:pre;shape-inside:url(#rect1-0);display:inline;fill:#333333;fill-opacity:0.15;stroke:none"><tspan
         x="0"
         y="-147.56558"
         id="tspan4"><tspan
           style="font-family:'Bebas Neue';-inkscape-font-specification:'Bebas Neue'"
           id="tspan1">RkT HP                 .50ae&#10;</tspan></tspan></text></g></svg>
