<?xml version="1.0" encoding="UTF-8" standalone="no"?>
<!-- Created with Inkscape (http://www.inkscape.org/) -->

<svg
   width="219.631mm"
   height="250mm"
   viewBox="0 0 219.63099 250"
   version="1.1"
   id="svg5"
   inkscape:version="1.3 (0e150ed, 2023-07-21)"
   sodipodi:docname="fnx_loot.svg"
   xml:space="preserve"
   xmlns:inkscape="http://www.inkscape.org/namespaces/inkscape"
   xmlns:sodipodi="http://sodipodi.sourceforge.net/DTD/sodipodi-0.dtd"
   xmlns="http://www.w3.org/2000/svg"
   xmlns:svg="http://www.w3.org/2000/svg"><sodipodi:namedview
     id="namedview7"
     pagecolor="#ffffff"
     bordercolor="#666666"
     borderopacity="1.0"
     inkscape:pageshadow="2"
     inkscape:pageopacity="0.0"
     inkscape:pagecheckerboard="0"
     inkscape:document-units="mm"
     showgrid="false"
     inkscape:zoom="0.37465342"
     inkscape:cx="775.38328"
     inkscape:cy="629.9155"
     inkscape:window-width="1440"
     inkscape:window-height="783"
     inkscape:window-x="0"
     inkscape:window-y="25"
     inkscape:window-maximized="1"
     inkscape:current-layer="layer1"
     inkscape:showpageshadow="2"
     inkscape:deskcolor="#d1d1d1" /><defs
     id="defs2"><clipPath
       clipPathUnits="userSpaceOnUse"
       id="clipPath54"><path
         id="path54"
         style="stroke-width:0.0999999;stroke-linecap:square;paint-order:markers fill stroke;stop-color:#000000"
         d="m 1691.1994,-792.32001 h 1634.8919 v 92.82806 H 1691.1994 Z" /></clipPath><clipPath
       clipPathUnits="userSpaceOnUse"
       id="clipPath15"><rect
         style="fill:none;stroke:#000000;stroke-linecap:butt;stroke-linejoin:bevel;paint-order:stroke markers fill;stop-color:#000000"
         id="rect15-7"
         width="45.034248"
         height="38.955639"
         x="262.48285"
         y="121.00073" /></clipPath><inkscape:path-effect
       effect="fill_between_many"
       method="originald"
       linkedpaths="#path34,0,1"
       id="path-effect34"
       is_visible="true"
       lpeversion="0"
       join="true"
       close="true"
       autoreverse="true" /></defs><g
     inkscape:label="Layer 1"
     inkscape:groupmode="layer"
     id="layer1"><g
       id="g1"
       transform="translate(-199.39475,-20.496693)"><path
         id="path1441-9-4-7"
         style="fill:none;fill-opacity:1;stroke:#333333;stroke-width:30;stroke-linecap:butt;stroke-linejoin:round;stroke-miterlimit:4;stroke-dasharray:none;stroke-opacity:1"
         d="m 217.7554,114.67627 -2.80913,7.06985 c 0.6301,1.05017 1.12394,1.75671 2.44636,1.99368 4.10074,-0.0911 8.63798,-0.0268 11.23756,1.90324 4.44792,3.72893 5.51614,7.86731 4.71238,15.31483 -0.16594,0.9602 -0.2185,2.17648 -1.69499,4.16873 0,0 -6.50189,9.46321 -9.90482,17.30903 -3.79862,8.81774 -10.48135,23.27712 -4.89376,35.16168 l 6.73861,2.42362 1.7818,-6.50037 37.84937,-0.38603 c 0,0 2.70294,1.49272 3.85919,-1.35082 l 6.75907,-23.3777 h 38.38081 c 0.0215,1.4e-4 0.0431,1.4e-4 0.0646,0 3.25873,-0.0417 7.37403,-0.1614 12.3162,-3.62083 5.16997,-3.61889 4.98121,-9.78992 5.00759,-13.13874 5e-5,-0.0131 5e-5,-0.0262 0,-0.0393 v -20.76669 l 55.37462,0.0658 1.49499,-2.55643 5.2e-4,-13.67359 z m 76.24186,16.23002 h 21.39249 v 20.72793 c -0.0114,1.44923 -0.13187,1.21717 -0.17363,1.25005 -0.0416,0.0328 -0.94261,0.491 -3.05098,0.52142 h -34.59375 l 3.37809,-12.35584 c 1.26823,-3.22146 1.99766,-4.85095 4.34185,-6.85022 1.99546,-1.52251 4.58984,-3.20574 8.70593,-3.29334 z"
         sodipodi:nodetypes="cccccccccccccccsccccccccccsccccc" /><path
         style="fill:none;fill-opacity:1;stroke:#333333;stroke-width:30;stroke-linecap:butt;stroke-linejoin:round;stroke-miterlimit:4;stroke-dasharray:none;stroke-opacity:1"
         d="m 223.58781,200.02093 33.90578,11.57496 c 3.00621,0.70729 5.37663,0.94131 7.60231,-0.33052 l 0.11018,-0.22037 -2.31375,-3.63588 4.18577,-15.62542 c -1.15183,1.59404 -2.21903,1.43133 -3.85935,1.35078 l -37.84944,0.38595 z"
         id="path4942-4-8-6"
         sodipodi:nodetypes="ccccccccc" /><path
         style="fill:none;fill-opacity:1;stroke:#333333;stroke-width:30;stroke-linecap:butt;stroke-linejoin:round;stroke-miterlimit:4;stroke-dasharray:none;stroke-opacity:1"
         d="m 287.99189,93.406249 h 30 v 15.000011 h -30 z"
         id="path29773-1-5-0"
         sodipodi:nodetypes="ccccc" /><rect
         style="fill:none;fill-opacity:1;stroke:#333333;stroke-width:30;stroke-linecap:round;stroke-linejoin:round;stroke-miterlimit:4;stroke-dasharray:none;stroke-dashoffset:831.496;stroke-opacity:1"
         id="rect44415-3-5-0"
         width="18.534014"
         height="14.356841"
         x="385.49188"
         y="95.176239" /><path
         style="fill:none;fill-opacity:1;stroke:#333333;stroke-width:30;stroke-linecap:butt;stroke-linejoin:round;stroke-miterlimit:4;stroke-dasharray:none;stroke-opacity:1"
         d="m 217.75537,114.67624 10.23652,-24.769991 h 60 v 12.500001 h 30 V 89.906249 h 68.4834 v 24.769991 z"
         id="path5480-7-5-9"
         sodipodi:nodetypes="ccccccccc" /><path
         style="fill:none;fill-opacity:1;stroke:#333333;stroke-width:30;stroke-linecap:butt;stroke-linejoin:round;stroke-miterlimit:4;stroke-dasharray:none;stroke-opacity:1"
         d="m 227.99189,89.906239 4.5,-10.99999 h 8.40086 l 9.85114,11 z"
         id="path33029-5-2-5"
         sodipodi:nodetypes="ccccc" /><path
         style="fill:none;fill-opacity:1;stroke:#333333;stroke-width:30;stroke-linecap:butt;stroke-linejoin:round;stroke-miterlimit:4;stroke-dasharray:none;stroke-opacity:1"
         d="m 369.47498,89.906239 4.49982,-10.99999 h 12.50009 l 4e-4,11 z"
         id="path33029-3-3-4-6"
         sodipodi:nodetypes="ccccc" /><path
         style="fill:none;stroke:#333333;stroke-width:30;stroke-linecap:butt;stroke-linejoin:round;stroke-miterlimit:4;stroke-dasharray:none;stroke-opacity:1"
         d="m 340.31477,114.64443 v 16.26182 h 44.66619 l 1.49492,-2.5565 v -13.70556 z"
         id="path57296-8-2-2"
         sodipodi:nodetypes="cccccc" /></g><g
       id="g2"
       transform="translate(7.1054803e-5)"><path
         id="path1441-9-4"
         style="fill:#c7a588;fill-opacity:1;stroke:#333333;stroke-width:7;stroke-linecap:butt;stroke-linejoin:round;stroke-miterlimit:4;stroke-dasharray:none;stroke-opacity:1"
         d="m 18.239119,94.147026 -2.80913,7.069854 c 0.6301,1.05017 1.12394,1.75671 2.44636,1.99368 4.10074,-0.0911 8.63798,-0.0268 11.23756,1.90324 4.44792,3.72893 5.51614,7.86731 4.71238,15.31483 -0.16594,0.9602 -0.2185,2.17648 -1.69499,4.16873 0,0 -6.50189,9.46321 -9.90482,17.30903 -3.79862,8.81774 -10.48135,23.27712 -4.89376,35.16168 l 6.73861,2.42362 1.7818,-6.50037 37.84937,-0.38603 c 0,0 2.70294,1.49272 3.85919,-1.35082 l 6.75907,-23.3777 h 38.380811 c 0.0215,1.4e-4 0.0431,1.4e-4 0.0646,0 3.25873,-0.0417 7.37403,-0.1614 12.3162,-3.62083 5.16997,-3.61889 4.98121,-9.78992 5.00759,-13.13874 5e-5,-0.0131 5e-5,-0.0262 0,-0.0393 v -20.76669 l 55.37462,0.0658 1.49499,-2.55643 5.2e-4,-13.673594 z m 76.24186,16.230024 h 21.392491 v 20.72793 c -0.0114,1.44923 -0.13187,1.21717 -0.17363,1.25005 -0.0416,0.0328 -0.94261,0.491 -3.05098,0.52142 H 78.055109 l 3.37809,-12.35584 c 1.26823,-3.22146 1.99766,-4.85095 4.34185,-6.85022 1.99546,-1.52251 4.58984,-3.20574 8.70593,-3.29334 z"
         sodipodi:nodetypes="cccccccccccccccsccccccccccsccccc" /><path
         style="fill:#a98e77;fill-opacity:1;stroke:#333333;stroke-width:7;stroke-linecap:butt;stroke-linejoin:round;stroke-miterlimit:4;stroke-dasharray:none;stroke-opacity:1"
         d="m 24.071529,179.49169 33.90578,11.57496 c 3.00621,0.70729 5.37663,0.94131 7.60231,-0.33052 l 0.11018,-0.22037 -2.31375,-3.63588 4.18577,-15.62542 c -1.15183,1.59404 -2.21903,1.43133 -3.85935,1.35078 l -37.84944,0.38595 z"
         id="path4942-4-8"
         sodipodi:nodetypes="ccccccccc" /><path
         style="fill:#7d7d7d;fill-opacity:1;stroke:#333333;stroke-width:7;stroke-linecap:butt;stroke-linejoin:round;stroke-miterlimit:4;stroke-dasharray:none;stroke-opacity:1"
         d="m 88.475609,72.877006 h 30.000001 v 15.00001 H 88.475609 Z"
         id="path29773-1-5"
         sodipodi:nodetypes="ccccc" /><rect
         style="fill:#717171;fill-opacity:1;stroke:#333333;stroke-width:7;stroke-linecap:round;stroke-linejoin:round;stroke-miterlimit:4;stroke-dasharray:none;stroke-dashoffset:831.496;stroke-opacity:1"
         id="rect44415-3-5"
         width="18.534014"
         height="14.356841"
         x="185.97562"
         y="74.646996" /><path
         style="fill:#a98e77;fill-opacity:1;stroke:#333333;stroke-width:7;stroke-linecap:butt;stroke-linejoin:round;stroke-miterlimit:4;stroke-dasharray:none;stroke-opacity:1"
         d="m 18.239089,94.146996 10.23652,-24.76999 h 60 v 12.5 h 30.000001 v -12.5 h 68.4834 v 24.76999 z"
         id="path5480-7-5"
         sodipodi:nodetypes="ccccccccc" /><path
         style="fill:#333333;fill-opacity:0.1;stroke:#000000;stroke-width:0;stroke-linecap:butt;stroke-linejoin:miter;stroke-miterlimit:4;stroke-dasharray:none;stroke-opacity:1"
         d="m 146.73117,94.253436 10.59145,-25.62885 28.76934,-0.31768 0.86765,25.80804 z"
         id="path16411-8-8-4"
         sodipodi:nodetypes="ccccc" /><path
         style="fill:#333333;fill-opacity:0.1;stroke:#000000;stroke-width:0;stroke-linecap:butt;stroke-linejoin:miter;stroke-miterlimit:4;stroke-dasharray:none;stroke-opacity:1"
         d="m 18.239089,94.146996 10.23652,-24.77 36.31552,-0.30703 -8.63104,25.6534 z"
         id="path16411-83-2"
         sodipodi:nodetypes="ccccc" /><path
         style="fill:#333333;fill-opacity:0.1;stroke:#000000;stroke-width:0;stroke-linecap:butt;stroke-linejoin:miter;stroke-miterlimit:4;stroke-dasharray:none;stroke-opacity:1"
         d="m 17.332889,177.06789 -0.18289,-23.33469 16.67618,-33.30437 -5.72553,-16.78141 -12.67085,-2.43057 2.80929,-7.069854 10.23652,-24.77 17.35799,1.80079 -9.27916,24.76224 c 6.48695,2.00467 11.02281,4.581974 13.33982,11.849834 1.33709,6.39817 1.6906,14.25771 -2.20656,23.99094 -4.2057,8.37554 -9.34848,11.45797 -12.44783,21.80324 -2.48914,6.13001 -2.63997,11.16612 -1.00602,17.01379 l -13.93277,8.45467 z"
         id="path7420-8-1"
         sodipodi:nodetypes="ccccccccccccccc" /><path
         style="fill:#333333;fill-opacity:0.1;stroke:#000000;stroke-width:0;stroke-linecap:butt;stroke-linejoin:miter;stroke-miterlimit:4;stroke-dasharray:none;stroke-opacity:1"
         d="m 164.92505,94.127076 9.99106,-24.17604 13.3721,-0.29967 0.001,24.17604 z"
         id="path16411-8-2-1-9"
         sodipodi:nodetypes="ccccc" /><path
         style="fill:#c7a588;fill-opacity:1;stroke:#333333;stroke-width:7;stroke-linecap:butt;stroke-linejoin:round;stroke-miterlimit:4;stroke-dasharray:none;stroke-opacity:1"
         d="m 28.475609,69.376996 4.5,-10.99999 h 8.40086 l 9.85114,11 z"
         id="path33029-5-2"
         sodipodi:nodetypes="ccccc" /><path
         style="fill:#c7a588;fill-opacity:1;stroke:#333333;stroke-width:7;stroke-linecap:butt;stroke-linejoin:round;stroke-miterlimit:4;stroke-dasharray:none;stroke-opacity:1"
         d="m 169.9587,69.376996 4.49982,-10.99999 h 12.50009 l 4e-4,11 z"
         id="path33029-3-3-4"
         sodipodi:nodetypes="ccccc" /><ellipse
         style="fill:#333333;fill-opacity:0.2;stroke:#333333;stroke-width:0;stroke-linecap:round;stroke-linejoin:round;stroke-miterlimit:4;stroke-dasharray:none;stroke-dashoffset:831.496;stroke-opacity:1"
         id="path34331-54-5"
         cx="58.665394"
         cy="161.35379"
         rx="3.4999998"
         ry="3.5" /><rect
         style="fill:#7d7d7d;fill-opacity:1;stroke:#333333;stroke-width:7;stroke-linecap:round;stroke-linejoin:round;stroke-miterlimit:4;stroke-dasharray:none;stroke-dashoffset:831.496;stroke-opacity:1"
         id="rect47612-5-7"
         width="12"
         height="10"
         x="90.051323"
         y="97.405296"
         transform="rotate(15.867656)" /><path
         style="fill:none;stroke:#333333;stroke-width:7;stroke-linecap:butt;stroke-linejoin:miter;stroke-miterlimit:4;stroke-dasharray:none;stroke-opacity:1"
         d="M 140.79849,110.37701 V 92.942186"
         id="path55640-4-5"
         sodipodi:nodetypes="cc" /><rect
         style="fill:#a98e77;fill-opacity:1;stroke:#333333;stroke-width:0;stroke-linecap:round;stroke-linejoin:round;stroke-miterlimit:4;stroke-dasharray:none;stroke-dashoffset:831.496;stroke-opacity:1"
         id="rect57148-1-0"
         width="44.66621"
         height="17.43482"
         x="140.79849"
         y="92.942184" /><path
         style="fill:none;stroke:#333333;stroke-width:7;stroke-linecap:butt;stroke-linejoin:round;stroke-miterlimit:4;stroke-dasharray:none;stroke-opacity:1"
         d="m 140.79849,94.115186 v 16.261824 h 44.66619 l 1.49492,-2.5565 V 94.114946 Z"
         id="path57296-8-2"
         sodipodi:nodetypes="cccccc" /><rect
         style="fill:#333333;fill-opacity:0.1;stroke:#333333;stroke-width:0;stroke-linecap:round;stroke-linejoin:round;stroke-miterlimit:4;stroke-dasharray:none;stroke-dashoffset:831.496;stroke-opacity:1"
         id="rect57557-8-1"
         width="11.849079"
         height="16.196053"
         x="140.79849"
         y="94.115181" /><rect
         style="fill:#333333;fill-opacity:0.1;stroke:#333333;stroke-width:0;stroke-linecap:round;stroke-linejoin:round;stroke-miterlimit:4;stroke-dasharray:none;stroke-dashoffset:831.496;stroke-opacity:1"
         id="rect57557-9-3-8"
         width="11.849079"
         height="16.196053"
         x="175.72018"
         y="94.120987" /><rect
         style="fill:#333333;fill-opacity:0.1;stroke:#333333;stroke-width:0;stroke-linecap:round;stroke-linejoin:round;stroke-miterlimit:4;stroke-dasharray:none;stroke-dashoffset:831.496;stroke-opacity:1"
         id="rect57557-9-5-5-7"
         width="11.849079"
         height="16.196053"
         x="128.94942"
         y="94.115181" /><path
         style="fill:#333333;fill-opacity:0.1;stroke:#000000;stroke-width:0;stroke-linecap:butt;stroke-linejoin:miter;stroke-miterlimit:4;stroke-dasharray:none;stroke-opacity:1"
         d="m 67.561819,171.25447 -13.39712,0.5813 -4.66788,14.92232 12.91958,3.61858 z"
         id="path57898-2-1"
         sodipodi:nodetypes="ccccc" /><ellipse
         style="fill:#333333;fill-opacity:0.2;stroke:#333333;stroke-width:0;stroke-linecap:round;stroke-linejoin:round;stroke-miterlimit:4;stroke-dasharray:none;stroke-dashoffset:831.496;stroke-opacity:1"
         id="path34331-9-2-5"
         cx="120.79849"
         cy="102.19218"
         rx="3.4999998"
         ry="3.5" /></g></g></svg>
