<?xml version="1.0" encoding="UTF-8" standalone="no"?>
<!-- Created with Inkscape (http://www.inkscape.org/) -->

<svg
   width="261.99399mm"
   height="250mm"
   viewBox="0 0 261.99398 250"
   version="1.1"
   id="svg5"
   inkscape:version="1.3 (0e150ed, 2023-07-21)"
   sodipodi:docname="fnx_loot.svg"
   xml:space="preserve"
   xmlns:inkscape="http://www.inkscape.org/namespaces/inkscape"
   xmlns:sodipodi="http://sodipodi.sourceforge.net/DTD/sodipodi-0.dtd"
   xmlns="http://www.w3.org/2000/svg"
   xmlns:svg="http://www.w3.org/2000/svg"><sodipodi:namedview
     id="namedview7"
     pagecolor="#ffffff"
     bordercolor="#666666"
     borderopacity="1.0"
     inkscape:pageshadow="2"
     inkscape:pageopacity="0.0"
     inkscape:pagecheckerboard="0"
     inkscape:document-units="mm"
     showgrid="false"
     inkscape:zoom="0.1659502"
     inkscape:cx="-30.129522"
     inkscape:cy="1138.8959"
     inkscape:window-width="1440"
     inkscape:window-height="765"
     inkscape:window-x="0"
     inkscape:window-y="25"
     inkscape:window-maximized="1"
     inkscape:current-layer="layer1"
     inkscape:showpageshadow="2"
     inkscape:deskcolor="#d1d1d1" /><defs
     id="defs2"><clipPath
       clipPathUnits="userSpaceOnUse"
       id="clipPath54"><path
         id="path54"
         style="stroke-width:0.0999999;stroke-linecap:square;paint-order:markers fill stroke;stop-color:#000000"
         d="m 1691.1994,-792.32001 h 1634.8919 v 92.82806 H 1691.1994 Z" /></clipPath><clipPath
       clipPathUnits="userSpaceOnUse"
       id="clipPath15"><rect
         style="fill:none;stroke:#000000;stroke-linecap:butt;stroke-linejoin:bevel;paint-order:stroke markers fill;stop-color:#000000"
         id="rect15-7"
         width="45.034248"
         height="38.955639"
         x="262.48285"
         y="121.00073" /></clipPath><inkscape:path-effect
       effect="fill_between_many"
       method="originald"
       linkedpaths="#path34,0,1"
       id="path-effect34"
       is_visible="true"
       lpeversion="0"
       join="true"
       close="true"
       autoreverse="true" /><rect
       x="0"
       y="-177.97614"
       width="882.46503"
       height="177.97614"
       id="rect1-0" /><rect
       x="0"
       y="-177.97614"
       width="882.46503"
       height="177.97614"
       id="rect1-0-5" /></defs><g
     inkscape:label="Layer 1"
     inkscape:groupmode="layer"
     id="layer1"><g
       id="g10"
       transform="translate(-280.1649,5.7642379)"><rect
         style="fill:#7a7a7a;fill-opacity:1;stroke:#333333;stroke-width:7;stroke-linecap:round;stroke-linejoin:round;stroke-dasharray:none;stroke-opacity:1"
         id="rect9"
         width="45.324673"
         height="33.219322"
         x="304.60431"
         y="165.25206"
         ry="7.362556" /><path
         id="path1"
         style="fill:#c7a588;fill-opacity:1;stroke:#333333;stroke-width:7;stroke-linecap:butt;stroke-linejoin:round;stroke-dasharray:none;stroke-opacity:1"
         d="m 308.87624,65.000167 c -1.62096,4.6629 -0.82269,7.967149 4.2292,9.353951 37.01798,9.390918 -6.88092,54.382742 -17.84181,99.517442 -0.62892,4.36227 2.68127,10.19551 8.22224,10.12858 h 49.47915 c 3.85018,-1.04131 6.10666,-6.03572 8.50232,-9.22993 -4.44217,-9.67893 -2.93453,-16.57758 8.02116,-19.40448 -3.62899,-7.96727 -2.72834,-16.01854 7.38541,-18.91553 -3.74904,-6.8247 -0.25891,-11.4502 1.62082,-15.76144 h 51.88882 c 0.006,1e-5 0.0117,1e-5 0.0176,0 4.82379,-0.0147 8.86625,-2.37409 11.56053,-5.32629 2.6943,-2.95221 4.41301,-6.53225 4.42196,-10.65982 v -0.002 -0.002 -0.002 -0.002 -5.1e-4 -0.002 -0.002 -0.002 -0.002 -10e-4 V 82.7764 H 527.1446 L 527.02675,65.000167 Z M 405.2781,82.77996 h 27.1058 l -3e-4,19.89698 c -5e-4,0.23099 -0.41485,1.64205 -1.28519,2.59571 -0.87034,0.95366 -1.82507,1.41316 -2.73421,1.41593 l -44.1993,1.8e-4 c 2.78629,-6.00349 4.87646,-9.895132 7.45616,-15.489159 3.73011,-5.9367 7.73425,-8.420578 13.65704,-8.419641 z"
         sodipodi:nodetypes="cccccccccccsscccccccccccccccccscccc" /><path
         id="path1-5"
         style="fill:#333333;fill-opacity:0.1;stroke:none;stroke-width:7;stroke-linecap:butt;stroke-linejoin:round;stroke-dasharray:none;stroke-opacity:1"
         d="m 308.87624,65.00017 c -1.62096,4.6629 -0.82269,7.96716 4.2292,9.35396 37.01794,9.39091 -6.88093,54.38278 -17.84181,99.51744 -0.62891,4.36226 2.68128,10.19551 8.22224,10.12858 h 49.47915 c 3.85018,-1.04131 6.10667,-6.03572 8.50233,-9.22993 -4.44217,-9.67892 -2.93447,-16.5776 8.02121,-19.4045 -3.62899,-7.96726 -2.72814,-16.01866 7.3856,-18.91564 -3.74904,-6.8247 -0.25916,-11.45008 1.62057,-15.76132 h 51.88882 c 0.006,1e-5 0.0117,1e-5 0.0176,0 4.82379,-0.0147 8.86626,-2.37409 11.56054,-5.32629 2.69429,-2.9522 4.413,-6.53224 4.42195,-10.65981 v -0.002 -0.002 -0.002 -0.002 -5.1e-4 -0.002 -0.002 -0.002 -0.002 -0.001 -21.90874 h 80.76096 l -0.11782,-17.77618 z m 23.85901,10.00043 h 63.30828 c -5.18344,2.26006 -9.8466,6.04639 -12.88293,10.87892 -0.22842,0.36402 -0.43314,0.74239 -0.61289,1.13275 -2.34121,5.07686 -5.65023,10.99735 -8.6527,17.46663 -0.98961,2.43079 -0.98405,5.15318 0.0155,7.5799 -1.99865,0.99092 -3.60862,2.62162 -4.57388,4.63279 -0.55729,1.27818 -2.34794,4.0861 -3.45508,8.50233 -0.45726,1.82394 -0.58031,3.99577 -0.45321,6.2575 -3.24672,2.60013 -5.80067,5.8738 -6.95099,9.6175 -0.93847,3.0542 -1.06708,6.02368 -0.76585,8.88266 -3.30375,2.30749 -6.01409,5.309 -7.40213,9.14053 -1.80076,4.97077 -1.35112,9.77255 0.008,14.30093 -0.0999,0.14591 -0.32477,0.48336 -0.41599,0.6072 h -44.26965 c 5.32148,-19.70845 17.8272,-40.82333 25.7483,-59.3633 4.10944,-9.6185 7.4532,-18.68628 5.99808,-28.57397 -0.56305,-3.82597 -2.14548,-7.7399 -4.64261,-11.06237 z m 72.54286,7.77937 h 29.10571 v 21.89737 c -5e-4,0.23099 -0.41484,1.64205 -1.28519,2.59571 -0.87034,0.95366 -1.82506,1.41316 -2.7342,1.41593 h -47.40589 c 2.78629,-6.00348 6.08282,-11.89535 8.66252,-17.48937 3.73011,-5.9367 7.73425,-8.42058 13.65705,-8.41964 z"
         sodipodi:nodetypes="cccccccccccsscccccccccccccccccccccscscscccssccccscccc" /><rect
         style="fill:#333333;fill-opacity:0.15;stroke:#333333;stroke-width:7;stroke-linecap:round;stroke-linejoin:round;stroke-dasharray:none;stroke-opacity:1"
         id="rect1"
         width="72.032661"
         height="17.779999"
         x="455.11197"
         y="65" /><path
         style="fill:none;stroke:#333333;stroke-width:7;stroke-linecap:butt;stroke-linejoin:miter;stroke-dasharray:none;stroke-opacity:1"
         d="m 324.75916,104.1605 c 2.30371,-8.09307 30.24085,-5.166222 15.45964,23.57079 -10.25349,18.04097 -16.16789,31.50396 -23.0207,56.26885"
         id="path4"
         sodipodi:nodetypes="ccc" /><path
         style="fill:#333333;fill-opacity:0.15;stroke:none;stroke-width:0.264583px;stroke-linecap:butt;stroke-linejoin:miter;stroke-opacity:1"
         d="m 298.51164,182.17653 18.68647,1.82361 10.87522,-32.17947 12.14546,-24.08938 3.54941,-16.13604 -9.64875,-8.52059 -9.36029,1.08584 -28.14254,64.68029 z"
         id="path5" /><path
         id="rect5"
         style="fill:#aa8a70;fill-opacity:1;stroke:#333333;stroke-width:7;stroke-linecap:round;stroke-linejoin:round;stroke-dasharray:none;stroke-opacity:1"
         d="m 312.14477,40.000142 v 25.000025 h 214.9998 V 40.000142 h -90.6446 v 3.500045 h -40.00014 v -3.500045 z" /><rect
         style="fill:#7a7a7a;fill-opacity:1;stroke:#333333;stroke-width:7;stroke-linecap:round;stroke-linejoin:round;stroke-dasharray:none;stroke-opacity:1"
         id="rect6"
         width="40"
         height="12"
         x="396.49982"
         y="43.500187" /><rect
         style="fill:none;fill-opacity:1;stroke:#333333;stroke-width:7;stroke-linecap:round;stroke-linejoin:round;stroke-dasharray:none;stroke-opacity:1"
         id="rect7"
         width="10"
         height="24.999981"
         x="338.5"
         y="40.000187" /><rect
         style="fill:none;fill-opacity:1;stroke:#333333;stroke-width:7;stroke-linecap:round;stroke-linejoin:round;stroke-dasharray:none;stroke-opacity:1"
         id="rect7-0"
         width="10"
         height="24.999981"
         x="328.5"
         y="40.000187" /><rect
         style="fill:none;fill-opacity:1;stroke:#333333;stroke-width:7;stroke-linecap:round;stroke-linejoin:round;stroke-dasharray:none;stroke-opacity:1"
         id="rect7-3"
         width="10"
         height="24.999981"
         x="348.5"
         y="40.000187" /><rect
         style="fill:none;fill-opacity:1;stroke:#333333;stroke-width:7;stroke-linecap:round;stroke-linejoin:round;stroke-dasharray:none;stroke-opacity:1"
         id="rect7-4"
         width="10"
         height="24.999981"
         x="358.5"
         y="40.000187" /><rect
         style="fill:#333333;fill-opacity:0.15;stroke:#333333;stroke-width:0;stroke-linecap:round;stroke-linejoin:round;stroke-dasharray:none;stroke-opacity:1"
         id="rect8"
         width="12"
         height="12"
         x="396.49982"
         y="43.500187" /><rect
         style="fill:#333333;fill-opacity:0.15;stroke:#333333;stroke-width:0;stroke-linecap:round;stroke-linejoin:round;stroke-dasharray:none;stroke-opacity:1"
         id="rect8-2"
         width="12"
         height="12"
         x="304.60431"
         y="186.47137" /><rect
         style="fill:#333333;fill-opacity:0.15;stroke:#333333;stroke-width:0;stroke-linecap:round;stroke-linejoin:round;stroke-dasharray:none;stroke-opacity:1"
         id="rect8-2-2"
         width="12"
         height="12"
         x="337.92899"
         y="186.47137" /><rect
         style="fill:#333333;fill-opacity:0.15;stroke:#333333;stroke-width:0;stroke-linecap:round;stroke-linejoin:round;stroke-dasharray:none;stroke-opacity:1"
         id="rect8-1"
         width="16.095268"
         height="24.500011"
         x="312.14478"
         y="40.500156" /><rect
         style="fill:#333333;fill-opacity:0.15;stroke:#333333;stroke-width:0;stroke-linecap:round;stroke-linejoin:round;stroke-dasharray:none;stroke-opacity:1"
         id="rect8-1-3"
         width="16.095268"
         height="24.500011"
         x="511.04929"
         y="40.250149" /><rect
         style="fill:#333333;fill-opacity:0.15;stroke:#333333;stroke-width:0;stroke-linecap:round;stroke-linejoin:round;stroke-dasharray:none;stroke-opacity:1"
         id="rect8-1-3-1"
         width="16.095268"
         height="18.029842"
         x="511.04938"
         y="64.75016" /><rect
         style="fill:#333333;fill-opacity:0.15;stroke:#333333;stroke-width:0;stroke-linecap:round;stroke-linejoin:round;stroke-dasharray:none;stroke-opacity:1"
         id="rect8-1-3-1-0"
         width="16.095268"
         height="18.029842"
         x="455.11197"
         y="64.875076" /><rect
         style="fill:#333333;fill-opacity:0.15;stroke:#333333;stroke-width:0;stroke-linecap:round;stroke-linejoin:round;stroke-dasharray:none;stroke-opacity:1"
         id="rect8-0"
         width="12"
         height="12"
         x="424.49982"
         y="43.500187" /><rect
         style="fill:#7d7d7d;fill-opacity:1;stroke:#333333;stroke-width:7;stroke-linecap:round;stroke-linejoin:round;stroke-miterlimit:4;stroke-dasharray:none;stroke-dashoffset:831.496;stroke-opacity:1"
         id="rect47612-5-7-4"
         width="12"
         height="10"
         x="370.96509"
         y="-59.581116"
         transform="rotate(24.301195)" /></g><text
       xml:space="preserve"
       transform="matrix(0.34298322,0,-0.10039245,0.34217291,150.23613,112.69232)"
       id="text1"
       style="font-style:normal;font-weight:normal;font-size:33.3333px;line-height:1.25;font-family:sans-serif;white-space:pre;shape-inside:url(#rect1-0);display:inline;fill:#333333;fill-opacity:0.2;stroke:none"><tspan
         x="0"
         y="-147.56558"
         id="tspan4"><tspan
           style="font-family:'Bebas Neue';-inkscape-font-specification:'Bebas Neue'"
           id="tspan1">RkT x   .45&#10;</tspan></tspan></text><path
       id="rect9-2-0"
       style="color:#000000;fill:#333333;stroke-linecap:round;stroke-linejoin:round;-inkscape-stroke:none"
       d="M 31.993813,30.7648 A 15.0015,15.0015 0 0 0 16.993695,45.7649 v 15.7397 a 15.0015,15.0015 0 0 0 -2.43551,4.3346 c -1.422065,4.0907 -2.797087,9.7277 -0.160197,16.3669 2.636888,6.6392 9.322101,10.932 14.586189,12.3771 a 15.0015,15.0015 0 0 0 0.283187,0.074 c 1.9106,0.4847 2.720029,0.8898 3.162081,1.1523 0.03925,1.1198 -0.839357,6.9105 -4.19716,14.7697 -6.965589,16.3036 -21.4010483,39.5963 -27.69546697,65.5154 a 15.0015,15.0015 0 0 0 -0.26975098,1.4004 c -0.97961802,6.7947 0.78417545,12.5291 4.48448075,17.6506 1.2785798,1.7697 2.9725961,3.4603 4.9464681,4.932 1.6072081,10.6737 11.0745591,19.158 22.1180301,19.158 h 30.599682 c 10.94851,0 20.349898,-8.3391 22.077206,-18.8831 2.305148,-1.8147 3.913108,-3.8056 5.080827,-5.3495 2.176498,-2.8776 3.441874,-5.0675 3.744474,-5.471 a 15.0015,15.0015 0 0 0 1.843815,-14.703 15.0015,15.0015 0 0 0 8.0486,-19.2128 15.0015,15.0015 0 0 0 8.40208,-14.166 h 38.62141 0.0176 a 15.0015,15.0015 0 0 0 0.047,0 c 9.68818,-0.03 17.54325,-4.6835 22.59138,-10.2149 4.62354,-5.0661 8.32626,-12.4656 8.3442,-20.7383 a 15.0015,15.0015 0 0 0 0,-0.033 v -6.9081 h 65.75981 a 15.0015,15.0015 0 0 0 14.9996,-15.1004 l -0.11162,-16.9866 a 15.0015,15.0015 0 0 0 0.11162,-0.7043 V 45.7645 A 15.0015,15.0015 0 0 0 246.99361,30.7644 h -90.64408 a 15.0015,15.0015 0 0 0 -8.99067,3.5001 h -22.01932 a 15.0015,15.0015 0 0 0 -8.99015,-3.5001 z m -0.01809,15.0001 84.355057,0.016 v 3.5 h 39.99963 5.2e-4 v -3.5 h 90.64459 v 25 h -0.11782 l 0.11782,17.7762 h -80.76096 v 21.9087 0 6e-4 c -0.009,4.1276 -1.72765,7.7071 -4.42195,10.6593 -2.69428,2.9522 -6.73675,5.3112 -11.56054,5.3262 h -0.0176 -51.888822 c -1.879728,4.3113 -5.370126,8.9367 -1.621089,15.7614 -10.11373,2.897 -11.014056,10.9488 -7.385079,18.9161 -10.955669,2.8269 -12.463382,9.7256 -8.021216,19.4045 -2.395658,3.1942 -4.652147,8.1886 -8.502324,9.2299 h -3.03599 v 7.1087 c 0,4.0788 -3.284002,7.3623 -7.362858,7.3623 h -30.59965 c -4.078846,0 -7.362341,-3.2835 -7.362341,-7.3623 v -7.1087 h -1.118278 c -5.540954,0.067 -8.851156,-5.7668 -8.222237,-10.1291 10.960859,-45.1345 54.859708,-90.126 17.841805,-99.5169 -5.051875,-1.3868 -5.850158,-4.6915 -4.229199,-9.3544 h 3.268534 z" /></g></svg>
