<?xml version="1.0" encoding="UTF-8" standalone="no"?>
<!-- Created with Inkscape (http://www.inkscape.org/) -->

<svg
   width="424.716mm"
   height="250mm"
   viewBox="0 0 424.716 250"
   version="1.1"
   id="svg5"
   inkscape:version="1.3 (0e150ed, 2023-07-21)"
   sodipodi:docname="knife_default_loot.svg"
   xmlns:inkscape="http://www.inkscape.org/namespaces/inkscape"
   xmlns:sodipodi="http://sodipodi.sourceforge.net/DTD/sodipodi-0.dtd"
   xmlns="http://www.w3.org/2000/svg"
   xmlns:svg="http://www.w3.org/2000/svg">
  <sodipodi:namedview
     id="namedview7"
     pagecolor="#ffffff"
     bordercolor="#666666"
     borderopacity="1.0"
     inkscape:pageshadow="2"
     inkscape:pageopacity="0.0"
     inkscape:pagecheckerboard="0"
     inkscape:document-units="mm"
     showgrid="false"
     inkscape:zoom="0.11385358"
     inkscape:cx="623.60796"
     inkscape:cy="307.41237"
     inkscape:window-width="1312"
     inkscape:window-height="719"
     inkscape:window-x="0"
     inkscape:window-y="25"
     inkscape:window-maximized="0"
     inkscape:current-layer="layer1"
     inkscape:showpageshadow="2"
     inkscape:deskcolor="#d1d1d1" />
  <defs
     id="defs2" />
  <g
     inkscape:label="Layer 1"
     inkscape:groupmode="layer"
     id="layer1">
    <g
       id="g21075"
       transform="translate(-40.675463,-340.18955)">
      <path
         style="fill:#7d7d7d;fill-opacity:1;stroke:#333333;stroke-width:7;stroke-linecap:butt;stroke-linejoin:miter;stroke-miterlimit:4;stroke-dasharray:none;stroke-opacity:1"
         d="m 215.92701,472.54895 c 10.14998,1.59205 11.76395,3.40702 19.6414,9.37138 l 12.00177,-3.3e-4 -1.8e-4,-3.2663 c 34.47706,-2.84764 57.59331,-2.37219 89.88064,3.25933 6.69083,1.32983 24.78034,4.93534 37.75789,6.34336 12.70596,1.88514 59.09846,-7.93996 82.2285,-28.8521 -27.15314,-3.61009 -49.60441,-5.24174 -71.86797,-18.75388 -17.59058,2.50177 -40.51081,2.08259 -40.51081,2.08259 l -7.20235,-3.033 1.6369,3.033 h -13.54973 l -7.20235,-3.033 1.6369,3.033 h -14.03964 l -7.20235,-3.033 1.6369,3.033 h -14.82835 l -7.20235,-3.033 1.6369,3.033 H 266.6497 l -7.20235,-3.033 1.6369,3.0334 -42.83109,-4e-4 z"
         id="path2371"
         sodipodi:nodetypes="ccccccccccccccccccccccccc" />
      <path
         style="fill:#333333;fill-opacity:1;stroke:#333333;stroke-width:7;stroke-linecap:butt;stroke-linejoin:round;stroke-miterlimit:4;stroke-dasharray:none;stroke-opacity:1"
         d="m 211.80107,443.53278 c 6.29394,-3.12716 13.55368,-14.4228 13.61173,-18.87008 -0.15123,2.60636 -1.63435,5.22012 -2.45157,7.3307 l -2.40987,3.95219 -3.80221,51.12915 c -6.10257,7.52497 -10.96429,11.15149 -12.37222,18.63372 0.34699,-4.426 0.55828,-4.8679 1.40793,-7.48223 1.15676,-3.00465 2.0615,-6.08819 2.98626,-9.16879 z"
         id="path993"
         sodipodi:nodetypes="ccccccccc" />
      <path
         style="fill:#c7a588;fill-opacity:1;stroke:#333333;stroke-width:7;stroke-linecap:butt;stroke-linejoin:round;stroke-miterlimit:4;stroke-dasharray:none;stroke-opacity:1"
         d="m 70.155077,472.67275 c 11.202733,-1.66439 20.460598,0.52065 31.697973,2.56381 17.47041,3.95762 29.8858,6.29447 46.14852,6.75913 16.99542,-0.78392 18.43209,-4.78697 28.20188,-9.32294 14.3563,-6.94391 23.03026,5.76351 32.56766,16.38471 2.20438,-7.28169 4.21897,-14.18364 4.79366,-21.89036 0.60442,-8.10547 -0.11436,-13.90322 -1.7637,-23.63431 -11.89053,5.42902 -29.0298,-0.63899 -42.35675,-1.15957 -27.33208,-1.90274 -47.82053,-1.6752 -74.117322,-0.46617 l -25.171921,1.63153 z"
         id="path997"
         sodipodi:nodetypes="cccccsccccc" />
      <path
         style="fill:#a98e77;fill-opacity:1;stroke:#333333;stroke-width:7;stroke-linecap:butt;stroke-linejoin:round;stroke-miterlimit:4;stroke-dasharray:none;stroke-opacity:1"
         d="m 70.155077,443.53858 c -5.105089,0.22876 -9.983413,-0.44098 -14.951689,-1.41304 0,0 -1.834941,-1.17007 -3.987604,1.12152 -5.569291,12.03659 -11.398236,37.74748 -2.118415,46.3559 4.629552,2.8806 8.534619,0.18632 10.592072,-3.98762 2.818181,-7.62801 3.891194,-8.83405 10.465636,-12.94259 z"
         id="path2442"
         sodipodi:nodetypes="ccccccc" />
      <path
         style="fill:#333333;fill-opacity:0.1;stroke:#000000;stroke-width:0;stroke-linecap:butt;stroke-linejoin:miter;stroke-miterlimit:4;stroke-dasharray:none;stroke-opacity:1"
         d="m 70.123054,460.0526 c 12.255297,-1.66764 25.285105,1.21487 35.723066,3.59119 15.36571,4.48537 41.53032,5.85796 46.31534,5.06988 0,0 3.55469,-0.63557 6.27048,-1.63215 8.25775,-3.03026 20.54526,-9.42098 29.63393,-9.86409 9.23865,1.35963 17.1985,7.78445 25.25929,12.43457 l -4.55405,19.40544 -23.35658,-18.82479 -37.41296,11.76304 -77.846493,-9.32294 z"
         id="path3668"
         sodipodi:nodetypes="cccsccccccc" />
      <path
         style="fill:#333333;fill-opacity:0.1;stroke:#000000;stroke-width:0;stroke-linecap:butt;stroke-linejoin:miter;stroke-miterlimit:4;stroke-dasharray:none;stroke-opacity:1"
         d="m 247.57,479.22083 v -13.83958 c 29.03731,-2.44893 48.43484,-1.56164 76.6543,0.0709 19.74318,2.14365 33.81406,5.75887 51.48718,8.47778 21.32106,0.84582 32.83777,-4.0717 48.99201,-9.92531 -19.09187,-3.86457 -24.17988,-5.97718 -40.49746,-14.00644 -10.32701,1.58128 -19.00688,4.56345 -21.5959,-5.35713 l 22.95893,-3.99063 20.73508,9.51516 51.13289,9.23872 -35.22892,19.89063 -39.00654,8.70533 -33.31462,-4.35266 -66.7966,-8.20309 z"
         id="path14044"
         sodipodi:nodetypes="ccccccccccccccc" />
      <path
         style="fill:#333333;fill-opacity:0.1;stroke:#000000;stroke-width:0;stroke-linecap:butt;stroke-linejoin:miter;stroke-miterlimit:4;stroke-dasharray:none;stroke-opacity:1"
         d="m 62.082695,445.05745 c -4.301769,15.97582 -9.36862,28.8797 -2.393254,40.55789 l -8.42333,6.76466 -7.887095,-18.92903 7.836768,-30.20391 z"
         id="path15087"
         sodipodi:nodetypes="cccccc" />
      <circle
         style="fill:#333333;fill-opacity:0.1;stroke:#333333;stroke-width:0;stroke-linecap:round;stroke-linejoin:round;stroke-miterlimit:4;stroke-dasharray:none;stroke-dashoffset:831.496;stroke-opacity:1"
         id="path15521"
         cx="89.363182"
         cy="452.5"
         r="3.9999995" />
      <circle
         style="fill:#333333;fill-opacity:0.1;stroke:#333333;stroke-width:0;stroke-linecap:round;stroke-linejoin:round;stroke-miterlimit:4;stroke-dasharray:none;stroke-dashoffset:831.496;stroke-opacity:1"
         id="path15521-5"
         cx="164.69789"
         cy="452.5"
         r="3.9999995" />
      <circle
         style="fill:#333333;fill-opacity:0.1;stroke:#333333;stroke-width:0;stroke-linecap:round;stroke-linejoin:round;stroke-miterlimit:4;stroke-dasharray:none;stroke-dashoffset:831.496;stroke-opacity:1"
         id="path15521-5-5"
         cx="387.30536"
         cy="463.07343"
         r="3.9999995" />
    </g>
  </g>
</svg>
