<?xml version="1.0" encoding="UTF-8" standalone="no"?>
<!-- Created with Inkscape (http://www.inkscape.org/) -->

<svg
   width="194.8185mm"
   height="214.39127mm"
   viewBox="0 0 194.8185 214.39126"
   version="1.1"
   id="svg5"
   inkscape:version="1.1.1 (c3084ef, 2021-09-22)"
   sodipodi:docname="knife_default_topdown.svg"
   xmlns:inkscape="http://www.inkscape.org/namespaces/inkscape"
   xmlns:sodipodi="http://sodipodi.sourceforge.net/DTD/sodipodi-0.dtd"
   xmlns="http://www.w3.org/2000/svg"
   xmlns:svg="http://www.w3.org/2000/svg">
  <sodipodi:namedview
     id="namedview7"
     pagecolor="#ffffff"
     bordercolor="#666666"
     borderopacity="1.0"
     inkscape:pageshadow="2"
     inkscape:pageopacity="0.0"
     inkscape:pagecheckerboard="0"
     inkscape:document-units="mm"
     showgrid="false"
     inkscape:zoom="0.56772312"
     inkscape:cx="641.15761"
     inkscape:cy="502.00527"
     inkscape:window-width="1440"
     inkscape:window-height="784"
     inkscape:window-x="0"
     inkscape:window-y="25"
     inkscape:window-maximized="1"
     inkscape:current-layer="layer1"
     height="214.39127mm" />
  <defs
     id="defs2" />
  <g
     inkscape:label="Layer 1"
     inkscape:groupmode="layer"
     id="layer1">
    <g
       id="g2928"
       transform="translate(-8.2529153,106.15416)">
      <path
         style="fill:#7d7d7d;fill-opacity:1;stroke:#333333;stroke-width:17.5;stroke-linecap:butt;stroke-linejoin:round;stroke-miterlimit:4;stroke-dasharray:none;stroke-opacity:1"
         d="m 111.10542,4.856893 c -1.28318,-2.128352 -1.19781,-2.709625 -1.31744,-5.096708 l -1.86617,-2.223895 -0.60522,0.507901 c -5.8884,-5.945891 -9.394565,-10.303296 -13.371281,-17.161819 -0.793912,-1.446591 -2.938482,-5.359217 -4.695407,-7.982906 -3.405043,-5.128226 -10.660305,-9.716486 -18.131768,-10.750964 3.552984,5.592839 6.741517,10.006801 7.69938,16.233231 l 6.68479,7.182905 19.716436,23.497173 z"
         id="path2371-7"
         sodipodi:nodetypes="ccccccccccc" />
      <path
         style="fill:#333333;fill-opacity:1;stroke:#333333;stroke-width:17.5;stroke-linecap:butt;stroke-linejoin:round;stroke-miterlimit:4;stroke-dasharray:none;stroke-opacity:1"
         d="m 106.3702,10.133059 c -1.55809,-0.680051 -4.77998,-0.268965 -5.61309,0.41177 0.50648,-0.377229 1.22141,-0.508811 1.73957,-0.685546 l 1.10705,-0.16796 10.06551,-7.245339 c 2.34326,-0.03922 3.77119,0.297792 5.37657,-0.604702 -0.87409,0.623887 -0.98883,0.653445 -1.60538,0.902494 -0.73662,0.252838 -1.44869,0.564634 -2.16331,0.872268 z"
         id="path993-0"
         sodipodi:nodetypes="ccccccccc" />
      <path
         style="fill:#c7a588;fill-opacity:1;stroke:#333333;stroke-width:17.5;stroke-linecap:butt;stroke-linejoin:round;stroke-miterlimit:4;stroke-dasharray:none;stroke-opacity:1"
         d="m 133.79393,31.849425 c -2.05029,-1.817098 -3.08487,-3.872338 -4.45353,-6.272327 -1.98305,-3.85265 -3.48046,-6.516592 -5.92299,-9.60235 -2.78782,-3.027391 -3.75298,-2.671188 -6.11258,-3.776267 -3.51892,-1.580555 -2.5129,-5.163692 -2.02771,-8.582437 -1.69206,0.723726 -3.28425,1.42358 -4.80167,2.51538 -1.59594,1.148292 -2.55851,2.182955 -4.10525,4.001632 2.85483,1.359201 4.39534,5.478627 6.37104,8.029077 3.89719,5.360532 7.12503,9.121693 11.43786,13.806544 l 4.21623,4.410721 z"
         id="path997-8"
         sodipodi:nodetypes="cccccsccccc" />
      <path
         style="fill:#a98e77;fill-opacity:1;stroke:#333333;stroke-width:17.5;stroke-linecap:butt;stroke-linejoin:round;stroke-miterlimit:4;stroke-dasharray:none;stroke-opacity:1"
         d="m 128.39533,36.379398 c 0.83616,0.910412 1.47056,1.918507 2.06294,2.990279 0,0 0.0685,0.521949 0.82784,0.564528 3.09635,-0.839529 8.76695,-3.757109 8.91921,-6.815174 -0.18606,-1.305756 -1.29249,-1.610443 -2.38584,-1.342706 -1.85167,0.663839 -2.24199,0.652533 -4.02555,0.0731 z"
         id="path2442-0"
         sodipodi:nodetypes="ccccccc" />
    </g>
    <g
       id="g2940"
       transform="translate(53.767473,59.29285)">
      <path
         style="fill:#7d7d7d;fill-opacity:1;stroke:#333333;stroke-width:4.25113;stroke-linecap:butt;stroke-linejoin:miter;stroke-miterlimit:4;stroke-dasharray:none;stroke-opacity:1"
         d="m 50.150556,52.02308 c -1.283179,-2.128352 -1.19781,-2.709625 -1.317442,-5.096708 l -1.866173,-2.223895 -0.60522,0.507901 C 40.473324,39.264487 36.96716,34.907082 32.990444,28.048559 32.196532,26.601968 30.051962,22.689342 28.295037,20.065653 24.889994,14.937427 17.634732,10.349167 10.163269,9.3146894 13.716253,14.907528 16.904786,19.32149 17.862649,25.54792 l 6.68479,7.182905 19.71644,23.497173 z"
         id="path2371"
         sodipodi:nodetypes="ccccccccccc" />
      <path
         style="fill:#333333;fill-opacity:1;stroke:#333333;stroke-width:4.25113;stroke-linecap:butt;stroke-linejoin:round;stroke-miterlimit:4;stroke-dasharray:none;stroke-opacity:1"
         d="m 45.415334,57.299246 c -1.558087,-0.680051 -4.779975,-0.268965 -5.613092,0.41177 0.506479,-0.377229 1.221416,-0.508811 1.739577,-0.685546 l 1.107046,-0.16796 10.065509,-7.245339 c 2.34326,-0.03922 3.771188,0.297792 5.376573,-0.604702 -0.874096,0.623887 -0.98883,0.653445 -1.605385,0.902494 -0.736619,0.252838 -1.448684,0.564634 -2.163311,0.872268 z"
         id="path993"
         sodipodi:nodetypes="ccccccccc" />
      <path
         style="fill:#c7a588;fill-opacity:1;stroke:#333333;stroke-width:4.25113;stroke-linecap:butt;stroke-linejoin:round;stroke-miterlimit:4;stroke-dasharray:none;stroke-opacity:1"
         d="m 72.839069,79.015612 c -2.050294,-1.817098 -3.084873,-3.872338 -4.453532,-6.272327 -1.983056,-3.85265 -3.480461,-6.516592 -5.922995,-9.60235 -2.78782,-3.027391 -3.752975,-2.671188 -6.112577,-3.776267 -3.518918,-1.580555 -2.512901,-5.163692 -2.027705,-8.582437 -1.692068,0.723726 -3.284251,1.42358 -4.801676,2.51538 -1.595937,1.148292 -2.55851,2.182955 -4.105249,4.001632 2.854832,1.359201 4.395343,5.478627 6.371043,8.029077 3.89719,5.360532 7.125025,9.121693 11.437858,13.806544 l 4.216227,4.410721 z"
         id="path997"
         sodipodi:nodetypes="cccccsccccc" />
      <path
         style="fill:#a98e77;fill-opacity:1;stroke:#333333;stroke-width:4.25113;stroke-linecap:butt;stroke-linejoin:round;stroke-miterlimit:4;stroke-dasharray:none;stroke-opacity:1"
         d="m 67.440463,83.545585 c 0.836161,0.910412 1.470565,1.918507 2.062941,2.990279 0,0 0.0685,0.521949 0.827837,0.564528 3.096353,-0.839529 8.766954,-3.757109 8.91921,-6.815174 -0.186051,-1.305756 -1.292481,-1.610443 -2.385835,-1.342706 -1.851672,0.663839 -2.241988,0.652533 -4.025547,0.0731 z"
         id="path2442"
         sodipodi:nodetypes="ccccccc" />
      <path
         style="fill:#333333;fill-opacity:0.1;stroke:#000000;stroke-width:0;stroke-linecap:butt;stroke-linejoin:miter;stroke-miterlimit:4;stroke-dasharray:none;stroke-opacity:1"
         d="m 70.505517,80.983812 c -2.214551,-2.011633 -3.70638,-4.87427 -4.889004,-7.177927 -1.558019,-3.544709 -5.371913,-8.606471 -6.261959,-9.370608 0,0 -0.670481,-0.55987 -1.277417,-0.908155 C 56.231655,62.468111 53.136903,61.18489 51.641635,59.569643 50.457088,57.6463 50.409962,55.17235 50.018296,52.955642 l 4.303955,-2.173411 0.143365,7.255013 7.996926,5.103691 10.376527,15.874677 z"
         id="path3668"
         sodipodi:nodetypes="cccsccccccc" />
      <path
         style="fill:#333333;fill-opacity:0.1;stroke:#000000;stroke-width:0;stroke-linecap:butt;stroke-linejoin:miter;stroke-miterlimit:4;stroke-dasharray:none;stroke-opacity:1"
         d="M 46.466804,45.122193 43.90231,47.274062 C 38.933611,42.274177 36.081966,38.541818 31.996736,33.05887 29.324157,29.067115 27.806228,25.897639 25.562118,22.200028 c -3.158407,-4.082342 -3.858749,-4.05123 -7.455194,-6.134478 2.252412,4.138641 2.147765,4.326072 3.197097,8.598189 1.898729,1.667746 2.303645,2.495752 0.8679,4.518017 L 17.862649,25.547919 16.401788,20.22619 10.16327,9.3146876 l 9.163389,3.4352514 7.678097,5.874411 4.373427,6.850039 8.86593,13.652993 z"
         id="path14044"
         sodipodi:nodetypes="ccccccccccccccc" />
      <path
         style="fill:#333333;fill-opacity:0.1;stroke:#000000;stroke-width:0;stroke-linecap:butt;stroke-linejoin:miter;stroke-miterlimit:4;stroke-dasharray:none;stroke-opacity:1"
         d="m 68.977054,84.805245 c 3.629214,-1.6869 6.808149,-2.754385 7.887562,-5.862733 l 2.563219,0.509044 -2.281243,4.404703 -6.815351,3.244133 z"
         id="path15087"
         sodipodi:nodetypes="cccccc" />
      <circle
         style="fill:#333333;fill-opacity:0.1;stroke:#333333;stroke-width:0;stroke-linecap:round;stroke-linejoin:round;stroke-miterlimit:4;stroke-dasharray:none;stroke-dashoffset:831.496;stroke-opacity:1"
         id="path15521"
         cx="-98.70459"
         cy="1.0012619"
         r="0.96757638"
         transform="rotate(-130)" />
      <circle
         style="fill:#333333;fill-opacity:0.1;stroke:#333333;stroke-width:0;stroke-linecap:round;stroke-linejoin:round;stroke-miterlimit:4;stroke-dasharray:none;stroke-dashoffset:831.496;stroke-opacity:1"
         id="path15521-5"
         cx="-84.779961"
         cy="1.0399284"
         r="0.96757638"
         transform="rotate(-130)" />
      <circle
         style="fill:#333333;fill-opacity:0.1;stroke:#333333;stroke-width:0;stroke-linecap:round;stroke-linejoin:round;stroke-miterlimit:4;stroke-dasharray:none;stroke-dashoffset:831.496;stroke-opacity:1"
         id="path15521-5-5"
         cx="-31.036835"
         cy="3.3500943"
         r="0.96757638"
         transform="rotate(-130)" />
    </g>
  </g>
</svg>
