<?xml version="1.0" encoding="UTF-8" standalone="no"?>
<!-- Created with Inkscape (http://www.inkscape.org/) -->

<svg
   width="214.631mm"
   height="250mm"
   viewBox="0 0 214.63099 250"
   version="1.1"
   id="svg5"
   inkscape:version="1.3 (0e150ed6c4, 2023-07-21)"
   sodipodi:docname="m18_loot.svg"
   xml:space="preserve"
   xmlns:inkscape="http://www.inkscape.org/namespaces/inkscape"
   xmlns:sodipodi="http://sodipodi.sourceforge.net/DTD/sodipodi-0.dtd"
   xmlns="http://www.w3.org/2000/svg"
   xmlns:svg="http://www.w3.org/2000/svg"><sodipodi:namedview
     id="namedview7"
     pagecolor="#ffffff"
     bordercolor="#666666"
     borderopacity="1.0"
     inkscape:pageshadow="2"
     inkscape:pageopacity="0.0"
     inkscape:pagecheckerboard="0"
     inkscape:document-units="mm"
     showgrid="false"
     inkscape:zoom="0.4269958"
     inkscape:cx="966.05166"
     inkscape:cy="333.72694"
     inkscape:window-width="1920"
     inkscape:window-height="1009"
     inkscape:window-x="-8"
     inkscape:window-y="-8"
     inkscape:window-maximized="1"
     inkscape:current-layer="layer1"
     inkscape:showpageshadow="2"
     inkscape:deskcolor="#d1d1d1"
     showguides="false" /><defs
     id="defs2"><rect
       x="-298.08072"
       y="49.680122"
       width="586.22546"
       height="308.01675"
       id="rect5" /><rect
       x="94.752312"
       y="83.438599"
       width="466.69046"
       height="236.17366"
       id="rect9" /><clipPath
       clipPathUnits="userSpaceOnUse"
       id="clipPath1"><rect
         style="fill:#7d7d7d;fill-opacity:1;stroke:#333333;stroke-width:7;stroke-linecap:round;stroke-linejoin:round;stroke-dasharray:none;stroke-opacity:1"
         id="rect4"
         width="30.000002"
         height="40"
         x="102.57823"
         y="23"
         ry="13.096207" /></clipPath><clipPath
       clipPathUnits="userSpaceOnUse"
       id="clipPath1-6"><rect
         style="fill:#7d7d7d;fill-opacity:1;stroke:#333333;stroke-width:7;stroke-linecap:round;stroke-linejoin:round;stroke-dasharray:none;stroke-opacity:1"
         id="rect4-9"
         width="30.000002"
         height="40"
         x="102.57823"
         y="23"
         ry="13.096207" /></clipPath><clipPath
       clipPathUnits="userSpaceOnUse"
       id="clipPath2"><path
         id="path2"
         style="fill:#979797;fill-opacity:1;stroke:#333333;stroke-width:0;stroke-linecap:round;stroke-linejoin:round;stroke-dasharray:none;stroke-opacity:0.1"
         d="M 181.63232,53.749837 V 183.75014 c -3e-5,6.90356 15.66998,12.50001 34.99994,12.50002 19.33016,9e-5 35.00047,-5.59639 35.00044,-12.50002 V 53.749837 c 2e-5,6.903622 -15.67029,12.500102 -35.00044,12.500012 -19.32996,-1.1e-5 -34.99996,-5.596451 -34.99994,-12.500012 z"
         sodipodi:nodetypes="ccccccc" /></clipPath><filter
       id="mask-powermask-path-effect3_inverse"
       inkscape:label="filtermask-powermask-path-effect3"
       style="color-interpolation-filters:sRGB"
       height="100"
       width="100"
       x="-50"
       y="-50"><feColorMatrix
         id="mask-powermask-path-effect3_primitive1"
         values="1"
         type="saturate"
         result="fbSourceGraphic" /><feColorMatrix
         id="mask-powermask-path-effect3_primitive2"
         values="-1 0 0 0 1 0 -1 0 0 1 0 0 -1 0 1 0 0 0 1 0 "
         in="fbSourceGraphic" /></filter><clipPath
       clipPathUnits="userSpaceOnUse"
       id="clipPath3"><ellipse
         style="fill:#7d7d7d;stroke:none;stroke-width:7;stroke-linecap:round;stroke-linejoin:round;stroke-dasharray:none"
         id="ellipse3"
         ry="12.5"
         rx="35"
         cy="9.5852337"
         cx="89.130547" /></clipPath><clipPath
       clipPathUnits="userSpaceOnUse"
       id="clipPath3-4"><ellipse
         style="fill:#7d7d7d;stroke:none;stroke-width:7;stroke-linecap:round;stroke-linejoin:round;stroke-dasharray:none"
         id="ellipse3-2"
         ry="12.5"
         rx="35"
         cy="9.5852337"
         cx="89.130547" /></clipPath><clipPath
       clipPathUnits="userSpaceOnUse"
       id="clipPath10"><path
         style="fill:#8d8d8d;fill-opacity:1;stroke:none;stroke-width:7;stroke-linecap:round;stroke-linejoin:round;stroke-dasharray:none;stroke-opacity:1"
         d="m 149.51849,15 h 20 V 0 h 25 v -20 l -15.00001,-10.000001 h -29.99999 z"
         id="path10" /></clipPath><clipPath
       clipPathUnits="userSpaceOnUse"
       id="clipPath11"><path
         style="fill:#8d8d8d;fill-opacity:1;stroke:none;stroke-width:7;stroke-linecap:round;stroke-linejoin:round;stroke-dasharray:none;stroke-opacity:1"
         d="m 195.85208,-36.69583 h 20 v -14.999999 h 30.00049 v -20 l -20.0005,-10.000001 h -29.99999 z"
         id="path11"
         sodipodi:nodetypes="cccccccc" /></clipPath><clipPath
       clipPathUnits="userSpaceOnUse"
       id="clipPath11-3"><path
         style="fill:#8d8d8d;fill-opacity:1;stroke:none;stroke-width:7;stroke-linecap:round;stroke-linejoin:round;stroke-dasharray:none;stroke-opacity:1"
         d="m 195.85208,-36.69583 h 20 v -14.999999 h 30.00049 v -20 l -20.0005,-10.000001 h -29.99999 z"
         id="path11-5"
         sodipodi:nodetypes="cccccccc" /></clipPath></defs><g
     inkscape:label="Layer 1"
     inkscape:groupmode="layer"
     id="layer1"><g
       id="g21"
       transform="matrix(0,-1,-1,0,-46.619822,405.91202)"><g
         id="rect10-2-0"
         style="fill:none;stroke:#333333;stroke-width:30;stroke-dasharray:none;stroke-opacity:1"
         transform="translate(38.276788,-45.551531)"><path
           style="color:#000000;fill:none;stroke:#333333;stroke-width:30;stroke-linecap:round;stroke-linejoin:round;stroke-dasharray:none;stroke-opacity:1"
           d="m 270.52465,-182.45195 -14.48904,3.88245 19.66548,73.3914 -11.90108,44.414339 14.48903,3.88194 12.94081,-48.296269 z"
           id="path12" /><path
           style="color:#000000;fill:none;stroke:#333333;stroke-width:30;stroke-linecap:round;stroke-linejoin:round;stroke-dasharray:none;stroke-opacity:1"
           d="m 270.44336,-182.75586 -14.49024,3.88281 a 0.3150315,0.3150315 0 0 0 -0.22265,0.38477 l 19.64453,73.31055 -11.87891,44.332027 a 0.3150315,0.3150315 0 0 0 0.22266,0.386719 l 14.48828,3.880859 a 0.3150315,0.3150315 0 0 0 0.38672,-0.222656 L 291.5332,-105.0957 a 0.3150315,0.3150315 0 0 0 0,-0.16407 l -20.70508,-77.27343 a 0.3150315,0.3150315 0 0 0 -0.38476,-0.22266 z m -0.14063,0.68945 20.60157,76.88868 -12.83789,47.910152 -13.88086,-3.71875 11.82031,-44.109372 a 0.3150315,0.3150315 0 0 0 0,-0.16407 l -19.58399,-73.08789 z"
           id="path13" /></g><g
         id="rect1-4-9"
         style="fill:none;stroke:#333333;stroke-width:30;stroke-dasharray:none;stroke-opacity:1"
         transform="translate(38.276788,-45.551531)"><path
           style="color:#000000;fill:none;stroke:#333333;stroke-width:30;stroke-linecap:round;stroke-linejoin:round;stroke-dasharray:none;stroke-opacity:1"
           d="m 194.04243,-138.88425 v 110.000369 c -3e-5,6.90356 15.66998,12.50001 34.99994,12.50002 19.33016,9e-5 35.00047,-5.59639 35.00044,-12.50002 V -138.88425 c 2e-5,6.90362 -15.67029,12.5001 -35.00044,12.50001 -19.32996,-10e-6 -34.99996,-5.59645 -34.99994,-12.50001 z"
           id="path14" /><path
           style="color:#000000;fill:none;stroke:#333333;stroke-width:30;stroke-linecap:round;stroke-linejoin:round;stroke-dasharray:none;stroke-opacity:1"
           d="m 194.04297,-139.19531 a 0.3150315,0.3150315 0 0 0 -0.31641,0.31054 v 110.000004 c -1e-5,1.845056 1.04897,3.575448 2.86328,5.107422 1.81431,1.531974 4.40689,2.889734 7.59766,4.029297 6.38153,2.279126 15.1601,3.679683 24.85547,3.679688 9.69547,4.5e-5 18.47188,-1.400559 24.85351,-3.679688 3.19082,-1.139564 5.78527,-2.497312 7.59961,-4.029297 1.81434,-1.531985 2.86134,-3.262348 2.86133,-5.107422 V -138.88477 a 0.3150315,0.3150315 0 0 0 -0.6289,0 c 0,1.60674 -0.91078,3.16601 -2.63868,4.625 -1.7279,1.459 -4.26127,2.79548 -7.40429,3.91797 -6.28605,2.24499 -15.00792,3.64263 -24.64258,3.64258 -9.63457,0 -18.35664,-1.39759 -24.64258,-3.64258 -3.14297,-1.12249 -5.67643,-2.45898 -7.4043,-3.91797 -1.72786,-1.45898 -2.63867,-3.01827 -2.63867,-4.625 a 0.3150315,0.3150315 0 0 0 -0.31445,-0.31054 z m 69.68555,2.55078 v 107.759764 c 0,1.606738 -0.91078,3.166005 -2.63868,4.625 -1.72789,1.458996 -4.26127,2.795473 -7.40429,3.917969 -6.28605,2.244992 -15.00791,3.642623 -24.64258,3.642578 -9.63457,-5e-6 -18.35664,-1.39759 -24.64258,-3.642578 -3.14297,-1.122494 -5.67643,-2.458985 -7.4043,-3.917969 -1.72786,-1.458984 -2.63868,-3.018278 -2.63867,-4.625 V -136.64258 c 0.48164,1.00616 1.17937,1.97605 2.23242,2.86524 1.81431,1.53197 4.4069,2.88973 7.59766,4.02929 6.38153,2.27913 15.1601,3.67969 24.85547,3.67969 9.69546,5e-5 18.47188,-1.40056 24.85351,-3.67969 3.19082,-1.13956 5.78527,-2.49731 7.59961,-4.02929 1.05372,-0.88974 1.75087,-1.86035 2.23243,-2.86719 z"
           id="path15" /></g><g
         id="rect1-4-0-5"
         style="fill:none;stroke:#333333;stroke-width:30;stroke-dasharray:none;stroke-opacity:1"
         transform="translate(38.276788,-45.551531)"><path
           style="color:#000000;fill:none;stroke:#333333;stroke-width:30;stroke-linecap:round;stroke-linejoin:round;stroke-dasharray:none;stroke-opacity:1"
           d="m 194.04243,-158.88418 v 19.99992 c -4e-5,6.90356 15.66997,12.50001 34.99994,12.50002 19.33016,9e-5 35.00047,-5.59639 35.00044,-12.50002 v -19.99992 c 2e-5,6.90362 -15.67029,12.50009 -35.00044,12.5 -19.32996,-1e-5 -34.99996,-5.59645 -34.99994,-12.5 z"
           id="path16" /><path
           style="color:#000000;fill:none;stroke:#333333;stroke-width:30;stroke-linecap:round;stroke-linejoin:round;stroke-dasharray:none;stroke-opacity:1"
           d="m 194.04297,-159.19531 a 0.3150315,0.3150315 0 0 0 -0.31641,0.31054 v 20 c -1e-5,1.84506 1.04898,3.57545 2.86328,5.10743 1.81431,1.53197 4.40689,2.88973 7.59766,4.02929 6.38153,2.27913 15.16009,3.67969 24.85547,3.67969 9.69547,5e-5 18.47188,-1.40056 24.85351,-3.67969 3.19082,-1.13956 5.78527,-2.49731 7.59961,-4.02929 1.81434,-1.53199 2.86134,-3.26235 2.86133,-5.10743 v -20 a 0.3150315,0.3150315 0 0 0 -0.6289,0 c 0,1.60674 -0.91078,3.16601 -2.63868,4.625 -1.7279,1.459 -4.26127,2.79548 -7.40429,3.91797 -6.28605,2.24499 -15.00792,3.64263 -24.64258,3.64258 -9.63457,0 -18.35664,-1.39759 -24.64258,-3.64258 -3.14297,-1.12249 -5.67643,-2.45898 -7.4043,-3.91797 -1.72786,-1.45898 -2.63867,-3.01828 -2.63867,-4.625 a 0.3150315,0.3150315 0 0 0 -0.31445,-0.31054 z m 69.68555,2.55078 v 17.75976 c 0,1.60674 -0.91078,3.16601 -2.63868,4.625 -1.72789,1.459 -4.26127,2.79548 -7.40429,3.91797 -6.28605,2.24499 -15.00791,3.64263 -24.64258,3.64258 -9.63458,0 -18.35664,-1.39759 -24.64258,-3.64258 -3.14297,-1.12249 -5.67643,-2.45898 -7.4043,-3.91797 -1.72786,-1.45898 -2.63868,-3.01827 -2.63867,-4.625 v -17.75781 c 0.48164,1.00616 1.17937,1.97605 2.23242,2.86524 1.81431,1.53197 4.4069,2.88973 7.59766,4.02929 6.38153,2.27912 15.1601,3.67969 24.85547,3.67969 9.69546,5e-5 18.47188,-1.40056 24.85351,-3.67969 3.19082,-1.13956 5.78527,-2.49731 7.59961,-4.02929 1.05372,-0.88974 1.75087,-1.86035 2.23243,-2.86719 z"
           id="path17" /></g><g
         id="path1-9-3"
         style="fill:none;stroke:#333333;stroke-width:30;stroke-dasharray:none;stroke-opacity:1"
         transform="translate(38.276788,-45.551531)"><path
           style="color:#000000;fill:none;stroke:#333333;stroke-width:30;stroke-linecap:round;stroke-linejoin:round;stroke-dasharray:none;stroke-opacity:1"
           d="m 264.04236,-158.88419 a 35,12.5 0 0 1 -35,12.5 35,12.5 0 0 1 -35,-12.5 35,12.5 0 0 1 35,-12.5 35,12.5 0 0 1 35,12.5 z"
           id="path18" /><path
           style="color:#000000;fill:none;stroke:#333333;stroke-width:30;stroke-linecap:round;stroke-linejoin:round;stroke-dasharray:none;stroke-opacity:1"
           d="m 229.04297,-171.69922 c -9.69537,0 -18.47393,1.40057 -24.85547,3.67969 -3.19077,1.13956 -5.78334,2.49732 -7.59766,4.0293 -1.81431,1.53197 -2.86328,3.26041 -2.86328,5.10546 0,1.84506 1.04897,3.57545 2.86328,5.10743 1.81432,1.53197 4.40689,2.88973 7.59766,4.02929 6.38154,2.27912 15.1601,3.67969 24.85547,3.67969 9.69537,0 18.47197,-1.40057 24.85351,-3.67969 3.19077,-1.13956 5.78335,-2.49732 7.59766,-4.02929 1.81432,-1.53198 2.86328,-3.26237 2.86328,-5.10743 0,-1.84505 -1.04896,-3.57349 -2.86328,-5.10546 -1.81431,-1.53198 -4.40689,-2.88974 -7.59766,-4.0293 -6.38154,-2.27912 -15.15814,-3.67969 -24.85351,-3.67969 z m 0,0.63086 c 9.63457,0 18.35662,1.39759 24.64258,3.64258 3.14297,1.12249 5.67447,2.45703 7.40234,3.91601 1.72787,1.45899 2.63867,3.01828 2.63867,4.625 0,1.60673 -0.9108,3.16602 -2.63867,4.625 -1.72787,1.45899 -4.25937,2.79548 -7.40234,3.91797 -6.28596,2.24499 -15.00801,3.64258 -24.64258,3.64258 -9.63457,0 -18.35662,-1.39759 -24.64258,-3.64258 -3.14298,-1.12249 -5.67642,-2.45898 -7.4043,-3.91797 -1.72787,-1.45898 -2.63867,-3.01827 -2.63867,-4.625 0,-1.60672 0.9108,-3.16601 2.63867,-4.625 1.72788,-1.45898 4.26132,-2.79352 7.4043,-3.91601 6.28596,-2.24499 15.00801,-3.64258 24.64258,-3.64258 z"
           id="path19" /></g><g
         id="path8-5"
         style="fill:none;stroke:#333333;stroke-width:30;stroke-dasharray:none;stroke-opacity:1"
         transform="translate(38.276788,-45.551531)"><path
           style="color:#000000;fill:none;stroke:#333333;stroke-width:30;stroke-linecap:round;stroke-linejoin:round;stroke-dasharray:none;stroke-opacity:1"
           d="m 219.04259,-155.38402 h 20 v -15 h 30.00049 v -20 l -20.0005,-10 h -29.99999 z"
           id="path20" /><path
           style="color:#000000;fill:none;stroke:#333333;stroke-width:30;stroke-linecap:round;stroke-linejoin:round;stroke-dasharray:none;stroke-opacity:1"
           d="m 219.04297,-200.69922 a 0.3150315,0.3150315 0 0 0 -0.31445,0.31445 v 45 a 0.3150315,0.3150315 0 0 0 0.31445,0.31641 h 20 a 0.3150315,0.3150315 0 0 0 0.31445,-0.31641 v -14.68359 h 29.68555 a 0.3150315,0.3150315 0 0 0 0.31445,-0.31641 v -20 a 0.3150315,0.3150315 0 0 0 -0.17383,-0.28125 l -20,-10 a 0.3150315,0.3150315 0 0 0 -0.14062,-0.0332 z m 0.31445,0.63086 h 29.61133 l 19.75977,9.87891 v 19.49023 h -29.68555 a 0.3150315,0.3150315 0 0 0 -0.31445,0.31445 v 14.68555 h -19.3711 z"
           id="path21" /></g></g><g
       id="g23"
       transform="matrix(0,-1,-1,0,217.81558,355.22602)"><path
         id="rect10-2"
         style="fill:#8d8d8d;fill-opacity:1;stroke:#333333;stroke-width:7;stroke-linecap:round;stroke-linejoin:round;stroke-dasharray:none;stroke-opacity:1"
         d="m 258.11457,36.432067 -14.48904,3.882451 19.66548,73.391402 -11.90108,44.41434 14.48903,3.88194 12.94081,-48.29627 z" /><path
         id="rect1-4"
         style="fill:#979797;fill-opacity:1;stroke:#333333;stroke-width:7;stroke-linecap:round;stroke-linejoin:round;stroke-dasharray:none;stroke-opacity:1"
         d="M 181.63235,79.999773 V 190.00014 c -3e-5,6.90356 15.66998,12.50001 34.99994,12.50002 19.33016,9e-5 35.00047,-5.59639 35.00044,-12.50002 V 79.999773 c 2e-5,6.903625 -15.67029,12.500099 -35.00044,12.500012 -19.32996,-1.2e-5 -34.99996,-5.596456 -34.99994,-12.500012 z"
         sodipodi:nodetypes="ccccccc" /><path
         id="rect1-4-0"
         style="fill:#c7a588;fill-opacity:1;stroke:#333333;stroke-width:7;stroke-linecap:round;stroke-linejoin:round;stroke-dasharray:none;stroke-opacity:1"
         d="m 181.63235,59.999835 v 19.99993 c -4e-5,6.903559 15.66997,12.500009 34.99994,12.50002 19.33016,8.7e-5 35.00047,-5.596391 35.00044,-12.50002 v -19.99993 c 2e-5,6.903626 -15.67029,12.500099 -35.00044,12.500012 -19.32996,-1.1e-5 -34.99996,-5.596456 -34.99994,-12.500012 z"
         sodipodi:nodetypes="ccccccc" /><path
         id="rect1-4-0-1"
         style="fill:#c7a588;fill-opacity:1;stroke:#333333;stroke-width:7;stroke-linecap:round;stroke-linejoin:round;stroke-dasharray:none;stroke-opacity:1"
         d="m 181.63235,169.93001 v 19.99993 c -4e-5,6.90356 15.66997,12.50001 34.99994,12.50002 19.33016,9e-5 35.00047,-5.59639 35.00044,-12.50002 v -19.99993 c 2e-5,6.90363 -15.67029,12.5001 -35.00044,12.50001 -19.32996,-1e-5 -34.99996,-5.59645 -34.99994,-12.50001 z"
         sodipodi:nodetypes="ccccccc" /><path
         id="rect1-4-0-1-4"
         style="fill:#c7a588;fill-opacity:1;stroke:#333333;stroke-width:7;stroke-linecap:round;stroke-linejoin:round;stroke-dasharray:none;stroke-opacity:1"
         d="m 181.63232,100.50609 v 19.99993 c -4e-5,6.90356 15.66997,12.50001 34.99994,12.50002 19.33016,9e-5 35.00047,-5.59639 35.00044,-12.50002 v -19.99993 c 2e-5,6.90363 -15.67029,12.5001 -35.00044,12.50001 -19.32996,-1e-5 -34.99996,-5.59645 -34.99994,-12.50001 z"
         sodipodi:nodetypes="ccccccc" /><ellipse
         style="fill:#7d7d7d;stroke:#333333;stroke-width:7;stroke-linecap:round;stroke-linejoin:round;stroke-dasharray:none"
         id="path1-9"
         cx="216.63228"
         cy="59.999844"
         rx="35"
         ry="12.5" /><path
         id="rect1-4-6"
         style="fill:none;fill-opacity:1;stroke:#333333;stroke-width:20;stroke-linecap:round;stroke-linejoin:round;stroke-dasharray:none;stroke-opacity:0.1"
         d="M 181.63232,53.679632 V 183.67994 c -3e-5,6.90356 15.66998,12.50001 34.99994,12.50002 19.33016,9e-5 35.00047,-5.59639 35.00044,-12.50002 V 53.679632 c 2e-5,6.903625 -15.67029,12.500099 -35.00044,12.500012 -19.32996,-1.2e-5 -34.99996,-5.596456 -34.99994,-12.500012 z"
         sodipodi:nodetypes="ccccccc"
         clip-path="url(#clipPath2)"
         transform="translate(3e-5,6.25)" /><ellipse
         style="fill:none;stroke:#333333;stroke-width:20;stroke-linecap:round;stroke-linejoin:round;stroke-dasharray:none;stroke-opacity:0.1"
         id="path1-9-8-4"
         cx="89.130547"
         cy="9.5852337"
         rx="35"
         ry="12.5"
         clip-path="url(#clipPath3)"
         transform="translate(127.50218,50.344398)" /><path
         style="fill:#8d8d8d;fill-opacity:1;stroke:#333333;stroke-width:7;stroke-linecap:round;stroke-linejoin:round;stroke-dasharray:none;stroke-opacity:1"
         d="m 206.63251,63.499999 h 20 V 48.5 H 256.633 V 28.500001 L 236.6325,18.5 h -29.99999 z"
         id="path8"
         sodipodi:nodetypes="cccccccc" /><path
         style="fill:none;fill-opacity:1;stroke:#333333;stroke-width:20;stroke-linecap:round;stroke-linejoin:round;stroke-dasharray:none;stroke-opacity:0.1"
         d="m 195.85208,-36.695831 h 20 V -51.69583 h 30.00049 v -19.999999 l -20.0005,-10.000001 h -29.99999 z"
         id="path8-8"
         sodipodi:nodetypes="cccccccc"
         clip-path="url(#clipPath11)"
         transform="translate(10.78043,100.19583)" /><g
         id="g22"
         transform="translate(2.40983,-3.499999)"><path
           style="color:#000000;fill:#333333;stroke-linecap:round;stroke-linejoin:round;-inkscape-stroke:none"
           d="m 236.72268,42.499999 c -13.41844,0 -24.5,11.081562 -24.5,24.5 0,13.418439 11.08156,24.500001 24.5,24.5 13.41844,0 24.5,-11.081561 24.5,-24.5 0,-13.418438 -11.08156,-24.499999 -24.5,-24.5 z m 0,19 c 3.15009,0 5.5,2.349913 5.5,5.5 0,3.150088 -2.34991,5.5 -5.5,5.5 -3.15008,0 -5.5,-2.349912 -5.5,-5.5 0,-3.150087 2.34992,-5.499999 5.5,-5.5 z"
           id="path7-5-9" /><path
           style="color:#000000;fill:#979797;stroke-linecap:round;stroke-linejoin:round;-inkscape-stroke:none"
           d="m 236.72268,49.499999 c -9.63536,0 -17.5,7.864639 -17.5,17.5 0,9.635362 7.86464,17.5 17.5,17.5 9.63536,0 17.5,-7.864638 17.5,-17.5 0,-9.635361 -7.86464,-17.5 -17.5,-17.5 z m 0,5 c 6.93317,0 12.5,5.566836 12.5,12.5 0,6.933165 -5.56683,12.500001 -12.5,12.5 -6.93316,0 -12.5,-5.566835 -12.5,-12.5 0,-6.933164 5.56684,-12.5 12.5,-12.5 z"
           id="path7-5" /></g></g></g></svg>
