<?xml version="1.0" encoding="UTF-8" standalone="no"?>
<!-- Created with Inkscape (http://www.inkscape.org/) -->

<svg
   width="473.67599mm"
   height="250mm"
   viewBox="0 0 473.67598 250"
   version="1.1"
   id="svg5"
   inkscape:version="1.3 (0e150ed6c4, 2023-07-21)"
   sodipodi:docname="scar_loot.svg"
   xmlns:inkscape="http://www.inkscape.org/namespaces/inkscape"
   xmlns:sodipodi="http://sodipodi.sourceforge.net/DTD/sodipodi-0.dtd"
   xmlns="http://www.w3.org/2000/svg"
   xmlns:svg="http://www.w3.org/2000/svg">
  <sodipodi:namedview
     id="namedview7"
     pagecolor="#ffffff"
     bordercolor="#666666"
     borderopacity="1.0"
     inkscape:pageshadow="2"
     inkscape:pageopacity="0.0"
     inkscape:pagecheckerboard="0"
     inkscape:document-units="mm"
     showgrid="false"
     inkscape:zoom="0.8344175"
     inkscape:cx="774.792"
     inkscape:cy="398.48158"
     inkscape:window-width="1920"
     inkscape:window-height="1009"
     inkscape:window-x="-8"
     inkscape:window-y="-8"
     inkscape:window-maximized="1"
     inkscape:current-layer="layer1"
     inkscape:showpageshadow="2"
     inkscape:deskcolor="#d1d1d1" />
  <defs
     id="defs2">
    <inkscape:path-effect
       effect="powerclip"
       id="path-effect2"
       is_visible="true"
       lpeversion="1"
       inverse="true"
       flatten="false"
       hide_clip="false"
       message="Use fill-rule evenodd on &lt;b&gt;fill and stroke&lt;/b&gt; dialogue if no flatten result after convert clip to paths." />
    <clipPath
       clipPathUnits="userSpaceOnUse"
       id="clipPath2">
      <path
         id="lpe_path-effect2"
         style="stroke:#c7a588;stroke-width:0"
         class="powerclip"
         d="M 140.58735,221.62139 H 182.2943 V 258 h -41.70695 z m -4.44372,-2.62132 v 14.19965 h 1.90427 v 30.75678 h 14.19965 v -30.75678 h 28.85251 V 219.00007 H 152.24755 138.0479 Z" />
    </clipPath>
  </defs>
  <g
     inkscape:label="Layer 1"
     inkscape:groupmode="layer"
     id="layer1">
    <g
       id="g5"
       transform="translate(-141.95835,-225.42425)">
      <path
         style="fill:none;fill-opacity:1;stroke:#333333;stroke-width:30;stroke-linecap:round;stroke-linejoin:round;stroke-miterlimit:4;stroke-dasharray:none;stroke-opacity:1"
         d="m 305.14885,372.66609 31.53654,2.6e-4"
         id="path2535-7" />
      <rect
         style="fill:none;fill-opacity:1;fill-rule:evenodd;stroke:#333333;stroke-width:30;stroke-linecap:round;stroke-linejoin:round;stroke-miterlimit:4;stroke-dasharray:none;stroke-dashoffset:188.976;stroke-opacity:1"
         id="rect12463-8"
         width="9.0684338"
         height="36.937279"
         x="442.1684"
         y="339.24918"
         ry="4.5342169"
         transform="rotate(-7.5152602)" />
      <rect
         style="fill:none;fill-opacity:1;fill-rule:evenodd;stroke:#333333;stroke-width:30;stroke-linecap:round;stroke-linejoin:round;stroke-miterlimit:4;stroke-dasharray:none;stroke-dashoffset:188.976;stroke-opacity:1"
         id="rect12463-1-7"
         width="9.0684338"
         height="36.937279"
         x="-317.26443"
         y="239.06235"
         ry="4.5342169"
         transform="matrix(-0.99141006,-0.13079025,-0.13079024,0.99141006,0,0)" />
      <path
         style="fill:none;fill-opacity:1;stroke:#333333;stroke-width:30;stroke-linecap:butt;stroke-linejoin:round;stroke-miterlimit:4;stroke-dasharray:none;stroke-opacity:1"
         d="m 286.33487,355.68097 c 0,5.88565 -2.47816,8.82847 -2.47816,8.82847 l -23.69745,34.38454 24.93653,7.43449 h 1.0842 l 0.61954,-0.15488 1.70374,-1.85863 0.13068,-0.62047 -0.10259,-0.27358 -0.82073,-1.1969 -0.34198,-0.47876 -0.30777,-0.71814 v -1.12851 l 0.10259,-0.61555 8.10473,-13.71306 0.51295,-0.82073 0.27358,-0.30778 0.51296,-0.17098 3.00935,0.34197 h 0.58135 l 0.44457,-0.30778 0.20518,-0.51295 -0.0684,-0.68395 -1.57307,-2.29121 -0.44457,-0.99171 v -0.99172 l 0.47876,-0.82073 3.31713,-6.15549 2.63044,-0.1552 -0.0561,-16.02064 z"
         id="path869-7"
         sodipodi:nodetypes="ccccccccccccccccccccccccccccccc" />
      <path
         style="fill:none;fill-opacity:1;stroke:#333333;stroke-width:30;stroke-linecap:butt;stroke-linejoin:round;stroke-miterlimit:4;stroke-dasharray:none;stroke-opacity:1"
         d="m 270.22616,332.06734 -0.23692,-29.60125 206.26281,3.9e-4 -0.53854,42.40355 -83.47451,6e-5 -0.80782,-6.4626 -8.61345,0.32601 0.31879,-6.01161 z"
         id="path2881-9"
         sodipodi:nodetypes="ccccccccc" />
      <path
         style="fill:none;fill-opacity:1;stroke:#333333;stroke-width:30;stroke-linecap:butt;stroke-linejoin:round;stroke-miterlimit:4;stroke-dasharray:none;stroke-opacity:1"
         d="m 347.37139,422.9694 c -8.97621,-28.1853 -7.69274,-52.09483 -7.69274,-52.09483 l 30.77371,-7.49683 c -0.33248,31.64226 8.65019,51.21962 8.65019,51.21962 z"
         id="path5997-1"
         sodipodi:nodetypes="ccccc" />
      <rect
         style="fill:none;fill-opacity:1;fill-rule:evenodd;stroke:#333333;stroke-width:30;stroke-linecap:round;stroke-linejoin:round;stroke-miterlimit:4;stroke-dasharray:none;stroke-dashoffset:188.976;stroke-opacity:1"
         id="rect11363-5"
         width="87.792053"
         height="11.826516"
         x="475.85184"
         y="326.94177"
         ry="0" />
      <rect
         style="fill:none;fill-opacity:1;fill-rule:evenodd;stroke:#333333;stroke-width:30;stroke-linecap:round;stroke-linejoin:round;stroke-miterlimit:4;stroke-dasharray:none;stroke-dashoffset:188.976;stroke-opacity:1"
         id="rect11621-5"
         width="38.257282"
         height="17.003237"
         x="562.37689"
         y="323.84198" />
      <rect
         style="fill:none;fill-opacity:1;fill-rule:evenodd;stroke:#333333;stroke-width:30;stroke-linecap:round;stroke-linejoin:round;stroke-miterlimit:4;stroke-dasharray:none;stroke-dashoffset:188.976;stroke-opacity:1"
         id="rect12125-5"
         width="32.830795"
         height="9.8541307"
         x="476.20395"
         y="308.96613" />
      <path
         style="fill:none;fill-opacity:1;stroke:#333333;stroke-width:30;stroke-linecap:butt;stroke-linejoin:round;stroke-miterlimit:4;stroke-dasharray:none;stroke-opacity:1"
         d="m 270.04836,348.80475 -66.23761,3.4e-4 -12.28972,-33.70812 c 14.38321,-6.986 78.46821,-12.63088 78.46821,-12.63088 z"
         id="path12702-8"
         sodipodi:nodetypes="ccccc" />
      <path
         style="fill:none;fill-opacity:1;stroke:#333333;stroke-width:30;stroke-linecap:butt;stroke-linejoin:round;stroke-miterlimit:4;stroke-dasharray:none;stroke-opacity:1"
         d="m 202.06212,344.89295 -20.38448,37.8336 -1.46768,1.95691 -2.28306,1.79383 -2.60921,1.14154 -3.4246,0.32615 -0.48923,-70.93799 20.74613,-0.0761 z"
         id="path14655-2" />
      <path
         style="fill:none;fill-opacity:1;stroke:#333333;stroke-width:30;stroke-linecap:butt;stroke-linejoin:round;stroke-miterlimit:4;stroke-dasharray:none;stroke-opacity:1"
         d="m 156.95828,313.16544 c 4.34528,38.74543 0.36211,77.3098 0.36211,77.3098 l 14.5727,-2.53026 -0.48923,-70.93799 z"
         id="path15569-9" />
    </g>
    <path
       id="rect12463"
       style="fill:#848484;fill-rule:evenodd;stroke:#333333;stroke-width:7;stroke-linecap:round;stroke-linejoin:round;stroke-dashoffset:188.976"
       d="m 345.27764,52.488226 c 2.49038,-0.32854 4.75977,1.411858 5.0883,3.902235 l 3.64498,27.629459 c 0.32854,2.490372 -1.41186,4.759753 -3.90224,5.088293 -2.49038,0.328538 -4.75976,-1.411859 -5.08829,-3.902231 l -3.64498,-27.629459 c -0.32854,-2.490377 1.41186,-4.759759 3.90223,-5.088297 z" />
    <path
       id="rect12463-1"
       style="fill:#848484;fill-rule:evenodd;stroke:#333333;stroke-width:7;stroke-linecap:round;stroke-linejoin:round;stroke-dashoffset:188.976"
       d="m 136.81858,52.488395 c -2.49037,-0.328539 -4.75975,1.411859 -5.08829,3.902238 l -3.64497,27.629453 c -0.32854,2.490378 1.41185,4.75976 3.90223,5.088299 2.49038,0.32854 4.75976,-1.411858 5.0883,-3.902237 l 3.64497,-27.629453 c 0.32854,-2.490379 -1.41185,-4.75976 -3.90224,-5.0883 z" />
    <path
       style="fill:#c7a588;fill-opacity:1;stroke:#333333;stroke-width:7;stroke-linecap:butt;stroke-linejoin:round;stroke-miterlimit:4;stroke-dasharray:none;stroke-opacity:1"
       d="m 144.37658,130.25849 c -2.26446,-7.61422 -8.02088,-7.09762 -8.02088,-7.09762 l -8.26563,0.2214 0.1778,-16.73741 112.91036,-2.5e-4 -0.31879,6.66641 -0.41769,0.9249 -0.62655,0.68621 -0.68621,0.56687 -0.83539,0.47737 -0.74589,0.0895 -2.98353,0.0298 -1.10391,0.4177 -1.19342,0.77571 -0.65637,0.86523 -0.68622,1.0144 -0.4177,1.04424 -0.23868,1.67078 -0.0542,6.85793 1.42764,2.65132 -0.20395,5.81253 -36.71069,9.0841 v -16.32426 l -31.59267,0.30322 z"
       id="path2125"
       sodipodi:nodetypes="ccccccccccccccccccccccccc" />
    <rect
       style="fill:none;stroke:#c7a588;stroke-width:5;stroke-dasharray:none;stroke-opacity:1"
       id="rect1"
       width="30"
       height="20"
       x="154.66566"
       y="122.74197"
       ry="3.5081582" />
    <path
       style="fill:#c7a588;fill-opacity:1;stroke:#333333;stroke-width:7;stroke-linecap:butt;stroke-linejoin:round;stroke-miterlimit:4;stroke-dasharray:none;stroke-opacity:1"
       d="m 128.26787,106.64486 -0.23692,-29.601247 206.26281,3.87e-4 -0.53854,42.40355 -83.47451,6e-5 -0.80782,-6.4626 -8.61345,0.32601 0.31879,-6.01161 z"
       id="path2881"
       sodipodi:nodetypes="ccccccccc" />
    <path
       id="rect3899"
       style="fill:#333333;fill-opacity:0.2;fill-rule:evenodd;stroke:#333333;stroke-width:7;stroke-linecap:round;stroke-linejoin:round;stroke-dashoffset:188.976"
       d="m 250.2807,108.75269 h 83.43993 v 10.66026 H 250.2807 Z" />
    <path
       id="rect4859"
       style="fill:#828282;fill-rule:evenodd;stroke:#333333;stroke-width:7;stroke-linecap:round;stroke-linejoin:round;stroke-dashoffset:188.976;stroke-dasharray:none"
       d="m 180.66281,95.319321 h 49.66354 v 10.346569 h -49.66354 z" />
    <path
       id="rect5446"
       style="fill:#333333;fill-opacity:0.1;fill-rule:evenodd;stroke:#333333;stroke-width:7;stroke-linecap:round;stroke-linejoin:round;stroke-dashoffset:188.976"
       d="m 267.00375,96.871429 h 66.71689 v 11.881281 h -66.71689 z" />
    <path
       id="rect5710"
       style="fill:#333333;fill-opacity:0.4;fill-rule:evenodd;stroke:#333333;stroke-width:0;stroke-linecap:round;stroke-linejoin:round;stroke-dashoffset:188.976"
       d="m 178.89355,83.443108 h 65.00001 c 1.385,0 2.49999,1.114999 2.49999,2.499999 0,1.384999 -1.11499,2.499999 -2.49999,2.499999 h -65.00001 c -1.385,0 -2.5,-1.115 -2.5,-2.499999 0,-1.385 1.115,-2.499999 2.5,-2.499999 z" />
    <path
       id="rect5710-4"
       style="fill:#333333;fill-opacity:0.4;fill-rule:evenodd;stroke:#333333;stroke-width:0;stroke-linecap:round;stroke-linejoin:round;stroke-dashoffset:188.976"
       d="m 253.89355,83.443108 h 5.00001 c 1.38499,0 2.49999,1.114999 2.49999,2.499999 0,1.385 -1.115,2.5 -2.49999,2.5 h -5.00001 c -1.385,0 -2.5,-1.115 -2.5,-2.5 0,-1.385 1.115,-2.499999 2.5,-2.499999 z" />
    <path
       id="rect5710-4-7"
       style="fill:#333333;fill-opacity:0.4;fill-rule:evenodd;stroke:#333333;stroke-width:0;stroke-linecap:round;stroke-linejoin:round;stroke-dashoffset:188.976"
       d="m 268.89355,83.443108 h 5.00001 c 1.38499,0 2.49999,1.114999 2.49999,2.499999 0,1.385 -1.115,2.5 -2.49999,2.5 h -5.00001 c -1.385,0 -2.5,-1.115 -2.5,-2.5 0,-1.385 1.115,-2.499999 2.5,-2.499999 z" />
    <path
       id="rect5710-4-7-70"
       style="fill:#333333;fill-opacity:0.4;fill-rule:evenodd;stroke:#333333;stroke-width:0;stroke-linecap:round;stroke-linejoin:round;stroke-dashoffset:188.976"
       d="m 193.56195,113.11761 h 5 c 1.385,0 2.5,1.115 2.5,2.5 0,1.385 -1.115,2.5 -2.5,2.5 h -5 c -1.385,0 -2.5,-1.115 -2.5,-2.5 0,-1.385 1.115,-2.5 2.5,-2.5 z" />
    <path
       id="rect5710-4-7-70-9"
       style="fill:#333333;fill-opacity:0.4;fill-rule:evenodd;stroke:#333333;stroke-width:0;stroke-linecap:round;stroke-linejoin:round;stroke-dashoffset:188.976"
       d="m 163.89355,83.443108 h 5.00001 c 1.38499,0 2.49999,1.114999 2.49999,2.499999 0,1.385 -1.115,2.5 -2.49999,2.5 h -5.00001 c -1.385,0 -2.5,-1.115 -2.5,-2.5 0,-1.385 1.115,-2.499999 2.5,-2.499999 z" />
    <path
       id="rect5710-4-7-7"
       style="fill:#333333;fill-opacity:0.4;fill-rule:evenodd;stroke:#333333;stroke-width:0;stroke-linecap:round;stroke-linejoin:round;stroke-dashoffset:188.976"
       d="m 283.89355,83.443108 h 5.00001 c 1.38499,0 2.49999,1.114999 2.49999,2.499999 0,1.385 -1.115,2.5 -2.49999,2.5 h -5.00001 c -1.385,0 -2.5,-1.115 -2.5,-2.5 0,-1.385 1.115,-2.499999 2.5,-2.499999 z" />
    <path
       id="rect5710-4-7-7-3"
       style="fill:#333333;fill-opacity:0.4;fill-rule:evenodd;stroke:#333333;stroke-width:0;stroke-linecap:round;stroke-linejoin:round;stroke-dashoffset:188.976"
       d="m 298.89355,83.443108 h 14 c 1.385,0 2.5,1.114999 2.5,2.499999 0,1.385 -1.115,2.5 -2.5,2.5 h -14 c -1.385,0 -2.5,-1.115 -2.5,-2.5 0,-1.385 1.115,-2.499999 2.5,-2.499999 z" />
    <path
       id="rect5710-4-7-7-3-6"
       style="fill:#333333;fill-opacity:0.4;fill-rule:evenodd;stroke:#333333;stroke-width:0;stroke-linecap:round;stroke-linejoin:round;stroke-dashoffset:188.976"
       d="m 169.56155,113.11761 h 14 c 1.385,0 2.5,1.115 2.5,2.5 0,1.385 -1.115,2.5 -2.5,2.5 h -14 c -1.385,0 -2.5,-1.115 -2.5,-2.5 0,-1.385 1.115,-2.5 2.5,-2.5 z" />
    <path
       id="rect5710-4-7-7-3-6-9"
       style="fill:#333333;fill-opacity:0.4;fill-rule:evenodd;stroke:#333333;stroke-width:0;stroke-linecap:round;stroke-linejoin:round;stroke-dashoffset:188.976"
       d="m 208.56195,113.11761 h 14 c 1.385,0 2.5,1.115 2.5,2.5 0,1.385 -1.115,2.5 -2.5,2.5 h -14 c -1.385,0 -2.5,-1.115 -2.5,-2.5 0,-1.385 1.115,-2.5 2.5,-2.5 z" />
    <path
       style="fill:#828282;fill-opacity:1;stroke:#333333;stroke-width:7;stroke-linecap:butt;stroke-linejoin:round;stroke-miterlimit:4;stroke-dasharray:none;stroke-opacity:1"
       d="m 205.4131,197.54692 c -8.97621,-28.1853 -7.69274,-52.09483 -7.69274,-52.09483 l 30.77371,-7.49683 c -0.33248,31.64226 8.65019,51.21962 8.65019,51.21962 z"
       id="path5997"
       sodipodi:nodetypes="ccccc" />
    <path
       style="fill:#333333;fill-opacity:0.1;stroke:#000000;stroke-width:0;stroke-linecap:butt;stroke-linejoin:miter;stroke-miterlimit:4;stroke-dasharray:none;stroke-opacity:1"
       d="m 140.89142,80.102116 -0.18818,32.179214 c 12.80983,5.1712 15.45637,9.88546 16.69362,18.78174 l -13.02028,-0.80458 -1.9797,-5.18075 -9.22095,-2.25819 -5.08586,0.56272 -0.0591,-44.998749 z"
       id="path8076"
       sodipodi:nodetypes="ccccccccc" />
    <path
       style="fill:#333333;fill-opacity:0.1;stroke:#000000;stroke-width:0;stroke-linecap:butt;stroke-linejoin:miter;stroke-miterlimit:4;stroke-dasharray:none;stroke-opacity:1"
       d="m 194.72668,146.27961 0.22599,-7.75294 36.1264,-8.93329 0.3583,7.60213 z"
       id="path8958" />
    <path
       style="fill:#333333;fill-opacity:0.15;stroke:#000000;stroke-width:0;stroke-linecap:butt;stroke-linejoin:miter;stroke-miterlimit:4;stroke-dasharray:none;stroke-opacity:1"
       d="m 229.50397,125.71622 1.9334,11.47929 -35.07105,9.11815 -1.39335,-12.41905 z"
       id="path8993" />
    <path
       id="rect9726"
       style="fill:#333333;fill-opacity:0.1;fill-rule:evenodd;stroke:#333333;stroke-width:0;stroke-linecap:round;stroke-linejoin:round;stroke-dashoffset:188.976"
       d="m 183.54979,95.319321 h 5.61406 c 1.59939,0 2.88698,1.28759 2.88698,2.886974 v 6.169725 c 0,1.59939 -1.28759,2.88698 -2.88698,2.88698 h -5.61406 c -1.59939,0 -2.88698,-1.28759 -2.88698,-2.88698 v -6.169725 c 0,-1.599384 1.28759,-2.886974 2.88698,-2.886974 z" />
    <path
       id="rect9726-9"
       style="fill:#333333;fill-opacity:0.1;fill-rule:evenodd;stroke:#333333;stroke-width:0;stroke-linecap:round;stroke-linejoin:round;stroke-dashoffset:188.976"
       d="m 221.82531,95.319321 h 5.61407 c 1.59939,0 2.88698,1.28759 2.88698,2.886974 v 6.169725 c 0,1.59939 -1.28759,2.88698 -2.88698,2.88698 h -5.61407 c -1.59938,0 -2.88697,-1.28759 -2.88697,-2.88698 v -6.169725 c 0,-1.599384 1.28759,-2.886974 2.88697,-2.886974 z" />
    <path
       id="rect9905"
       style="fill:#333333;fill-opacity:0.1;fill-rule:evenodd;stroke:#333333;stroke-width:0;stroke-linecap:round;stroke-linejoin:round;stroke-dashoffset:188.976"
       d="m 320.21101,77.575729 h 11.19576 c 1.59939,0 2.88698,1.287591 2.88698,2.886975 v 35.427316 c 0,1.59939 -1.28759,2.88698 -2.88698,2.88698 h -11.19576 c -1.59938,0 -2.88697,-1.28759 -2.88697,-2.88698 V 80.462704 c 0,-1.599384 1.28759,-2.886975 2.88697,-2.886975 z" />
    <path
       style="fill:#333333;fill-opacity:0.1;stroke:#000000;stroke-width:0;stroke-linecap:butt;stroke-linejoin:miter;stroke-miterlimit:4;stroke-dasharray:none;stroke-opacity:1"
       d="m 230.56207,98.898094 h 34.92978 l 1.51191,9.854616 -14.34499,-0.25106 -3.18588,4.48336 -8.61345,0.32601 0.31879,-6.01161 -10.85187,-0.0364 z"
       id="path10056" />
    <path
       style="fill:#333333;fill-opacity:0.1;stroke:#000000;stroke-width:0;stroke-linecap:butt;stroke-linejoin:miter;stroke-miterlimit:4;stroke-dasharray:none;stroke-opacity:1"
       d="m 205.4131,197.54692 31.73116,-8.37204 -2.95561,-9.46427 -32.04964,8.18584 z"
       id="path10713" />
    <path
       style="fill:#333333;fill-opacity:0.1;stroke:#000000;stroke-width:0;stroke-linecap:butt;stroke-linejoin:miter;stroke-miterlimit:4;stroke-dasharray:none;stroke-opacity:1"
       d="m 197.72036,145.45209 30.77371,-7.49683 -0.27137,10.9544 -29.9685,6.65966 z"
       id="path10814" />
    <path
       style="fill:none;stroke:#333333;stroke-width:4;stroke-linecap:round;stroke-linejoin:miter;stroke-miterlimit:4;stroke-dasharray:none;stroke-opacity:0.4"
       d="m 206.87073,145.38279 c -1.12489,20.11003 4.14783,37.16194 4.14783,37.16194"
       id="path10849"
       sodipodi:nodetypes="cc" />
    <path
       style="fill:none;stroke:#333333;stroke-width:4;stroke-linecap:round;stroke-linejoin:miter;stroke-miterlimit:4;stroke-dasharray:none;stroke-opacity:0.4"
       d="m 213.90423,143.16021 c -1.12489,20.11003 4.14783,37.16194 4.14783,37.16194"
       id="path10849-5"
       sodipodi:nodetypes="cc" />
    <path
       id="rect11363"
       style="fill:#828282;fill-rule:evenodd;stroke:#333333;stroke-width:7;stroke-linecap:round;stroke-linejoin:round;stroke-dashoffset:188.976"
       d="m 333.89355,101.5193 h 87.79206 v 11.82652 h -87.79206 z" />
    <path
       id="rect11621"
       style="fill:#6d6d6d;fill-rule:evenodd;stroke:#333333;stroke-width:7;stroke-linecap:round;stroke-linejoin:round;stroke-dashoffset:188.976"
       d="m 420.41858,98.419487 h 38.25728 v 17.003233 h -38.25728 z" />
    <path
       id="rect11849"
       style="fill:#333333;fill-opacity:0.1;fill-rule:evenodd;stroke:#333333;stroke-width:0;stroke-linecap:round;stroke-linejoin:round;stroke-dashoffset:188.976"
       d="m 334.24567,101.87144 h 12.48756 v 11.72025 h -12.48756 z" />
    <path
       id="rect11849-4"
       style="fill:#333333;fill-opacity:0.1;fill-rule:evenodd;stroke:#333333;stroke-width:0;stroke-linecap:round;stroke-linejoin:round;stroke-dashoffset:188.976"
       d="m 407.41794,101.62555 h 14.26769 v 11.72025 h -14.26769 z" />
    <path
       id="rect12019"
       style="fill:#333333;fill-opacity:0.1;fill-rule:evenodd;stroke:#333333;stroke-width:0;stroke-linecap:round;stroke-linejoin:round;stroke-dashoffset:188.976"
       d="m 448.69473,98.419479 h 9.98112 v 17.278841 h -9.98112 z" />
    <path
       id="rect12021"
       style="fill:#333333;fill-opacity:0.1;fill-rule:evenodd;stroke:#333333;stroke-width:0;stroke-linecap:round;stroke-linejoin:round;stroke-dashoffset:188.976"
       d="m 420.41858,98.419479 h 9.73771 v 16.014851 h -9.73771 z" />
    <path
       id="rect12125"
       style="fill:#6a6a6a;fill-rule:evenodd;stroke:#333333;stroke-width:7;stroke-linecap:round;stroke-linejoin:round;stroke-dashoffset:188.976"
       d="m 334.24567,83.543648 h 32.83079 v 9.854131 h -32.83079 z" />
    <path
       style="fill:#c7a588;fill-opacity:1;stroke:#333333;stroke-width:7;stroke-linecap:butt;stroke-linejoin:round;stroke-miterlimit:4;stroke-dasharray:none;stroke-opacity:1"
       d="M 128.09007,123.38227 61.852459,123.38261 49.562736,89.67449 C 63.945949,82.688494 128.03095,77.043612 128.03095,77.043612 Z"
       id="path12702"
       sodipodi:nodetypes="ccccc" />
    <path
       id="rect13420"
       style="fill:#333333;fill-opacity:0.1;fill-rule:evenodd;stroke:#333333;stroke-width:0;stroke-linecap:round;stroke-linejoin:round;stroke-dashoffset:188.976"
       d="m 120.82824,76.686684 h 2.7276 c 2.51196,0 4.53422,2.022261 4.53422,4.534217 v 37.627169 c 0,2.51196 -2.02226,4.53422 -4.53422,4.53422 h -2.7276 c -2.51196,0 -4.53422,-2.02226 -4.53422,-4.53422 V 81.220901 c 0,-2.511956 2.02226,-4.534217 4.53422,-4.534217 z" />
    <path
       style="fill:#333333;fill-opacity:0.1;stroke:#000000;stroke-width:0;stroke-linecap:butt;stroke-linejoin:miter;stroke-miterlimit:4;stroke-dasharray:none;stroke-opacity:1"
       d="M 49.562736,89.674488 61.852457,123.38261 77.74879,122.97129 65.608561,85.943593 Z"
       id="path13902" />
    <path
       style="fill:#333333;fill-opacity:0.1;stroke:#000000;stroke-width:0;stroke-linecap:butt;stroke-linejoin:miter;stroke-miterlimit:4;stroke-dasharray:none;stroke-opacity:1"
       d="M 61.852457,123.38261 70.768158,123.2748 58.476175,88.068134 49.562736,89.674488 Z"
       id="path14003" />
    <path
       style="fill:none;stroke:#333333;stroke-width:5;stroke-linecap:butt;stroke-linejoin:round;stroke-miterlimit:4;stroke-dasharray:none;stroke-opacity:1"
       d="m 56.767173,104.49261 h 55.957467 l 6.44934,-24.279845"
       id="path14169" />
    <path
       style="fill:#333333;fill-opacity:0.2;stroke:#000000;stroke-width:0;stroke-linecap:butt;stroke-linejoin:miter;stroke-miterlimit:4;stroke-dasharray:none;stroke-opacity:1"
       d="M 56.767173,104.49261 49.562736,89.674488 119.17398,80.212765 112.72464,104.49261 Z"
       id="path14386" />
    <path
       style="fill:#c7a588;fill-opacity:1;stroke:#333333;stroke-width:7;stroke-linecap:butt;stroke-linejoin:round;stroke-miterlimit:4;stroke-dasharray:none;stroke-opacity:1"
       d="m 60.103833,119.47047 -20.384481,37.8336 -1.467683,1.95691 -2.283061,1.79383 -2.609212,1.14154 -3.424595,0.32615 -0.489228,-70.93799 20.746125,-0.07614 z"
       id="path14655" />
    <path
       style="fill:#333333;fill-opacity:0.1;stroke:#000000;stroke-width:0;stroke-linecap:butt;stroke-linejoin:miter;stroke-miterlimit:4;stroke-dasharray:none;stroke-opacity:1"
       d="M 50.191698,91.508368 60.103831,119.47047 53.047766,132.25202 37.920569,91.952222 Z"
       id="path15140" />
    <path
       style="fill:#717171;fill-opacity:1;stroke:#333333;stroke-width:7;stroke-linecap:butt;stroke-linejoin:round;stroke-miterlimit:4;stroke-dasharray:none;stroke-opacity:1"
       d="m 14.999993,87.742961 c 4.345281,38.745429 0.362106,77.309799 0.362106,77.309799 L 29.934801,162.5225 29.445573,91.58451 Z"
       id="path15569" />
    <path
       style="fill:#c7a588;fill-opacity:1;stroke:#333333;stroke-width:7;stroke-linecap:butt;stroke-linejoin:round;stroke-miterlimit:4;stroke-dasharray:none;stroke-opacity:1"
       d="m 144.37658,130.25849 c 0,5.88565 -2.47816,8.82847 -2.47816,8.82847 l -23.69745,34.38454 24.93653,7.43449 h 1.0842 l 0.61954,-0.15488 1.70374,-1.85863 0.13068,-0.62047 -0.10259,-0.27358 -0.82073,-1.1969 -0.34198,-0.47876 -0.30777,-0.71814 v -1.12851 l 0.10259,-0.61555 8.10473,-13.71306 0.51295,-0.82073 0.27358,-0.30778 0.51296,-0.17098 3.00935,0.34197 h 0.58135 l 0.44457,-0.30778 0.20518,-0.51295 -0.0684,-0.68395 -1.57307,-2.29121 -0.44457,-0.99171 v -0.99172 l 0.47876,-0.82073 3.31713,-6.15549 2.63044,-0.1552 -0.0561,-16.02064 z"
       id="path869"
       sodipodi:nodetypes="ccccccccccccccccccccccccccccccc" />
    <path
       id="rect8607"
       style="fill:#333333;fill-opacity:0.15;fill-rule:evenodd;stroke:#333333;stroke-width:0;stroke-linecap:round;stroke-linejoin:round;stroke-dashoffset:188.976"
       d="m 148.41234,144.65614 2.90531,2.02192 c 1.08231,0.75322 1.35554,2.23663 0.61263,3.32604 l -11.44501,16.78299 c -0.74291,1.0894 -2.21231,1.36005 -3.29462,0.60683 l -2.90531,-2.02192 c -1.08231,-0.75322 -1.35554,-2.23663 -0.61263,-3.32604 l 11.44501,-16.78299 c 0.74292,-1.0894 2.21231,-1.36005 3.29462,-0.60683 z" />
    <path
       style="fill:#333333;fill-opacity:0.1;stroke:#000000;stroke-width:0;stroke-linecap:butt;stroke-linejoin:miter;stroke-miterlimit:4;stroke-dasharray:none;stroke-opacity:1"
       d="m 118.20097,173.4715 5.01018,-6.87969 21.99403,7.26876 -0.98348,7.04542 z"
       id="path8890" />
  </g>
</svg>
